<?xml version="1.0" encoding="UTF-8"?>
<svg width="90px" height="90px" viewBox="0 0 90 90" version="1.1" xmlns="http://www.w3.org/2000/svg" xmlns:xlink="http://www.w3.org/1999/xlink">
    <!-- Generator: Sketch 57.1 (83088) - https://sketch.com -->
    <title>全国住房公积金</title>
    <desc>Created with Sketch.</desc>
    <defs>
        <rect id="path-1" x="0" y="0" width="90" height="90" rx="45"></rect>
        <rect id="path-3" x="0" y="0" width="90" height="90" rx="45"></rect>
    </defs>
    <g id="全国住房公积金" stroke="none" stroke-width="1" fill="none" fill-rule="evenodd">
        <g id="气象局">
            <g id="位图">
                <mask id="mask-2" fill="white">
                    <use xlink:href="#path-1"></use>
                </mask>
                <g id="蒙版"></g>
            </g>
            <mask id="mask-4" fill="white">
                <use xlink:href="#path-3"></use>
            </mask>
            <rect stroke="#EBEBEB" x="0.5" y="0.5" width="89" height="89" rx="44.5"></rect>
        </g>
        <g id="编组-19" transform="translate(18.000000, 17.000000)" stroke="#B00531" stroke-linecap="round" stroke-linejoin="round" stroke-width="6">
            <g id="编组" transform="translate(0.000000, 0.037037)">
                <path d="M8.03703704,45.9259259 L8.03703704,12.7407407 C8.03703704,10.1225019 10.159539,8 12.7777778,8 L12.7777778,8 L45.962963,8" id="路径" transform="translate(27.000000, 26.962963) rotate(-315.000000) translate(-27.000000, -26.962963) "></path>
                <path d="M25.6710205,32.8783531 L36.6296296,32.6855433 C36.6296296,34.3135289 36.6296296,37.078961 36.6296296,40.9818396 C36.6296296,43.6000784 34.5071277,45.7225803 31.8888889,45.7225803 C29.9233604,45.7225803 28.5407372,45.7225803 27.7410193,45.7225803 C25.9503083,45.7225803 24.5674994,45.7225803 23.5925926,45.7225803 C20.2045284,45.7225803 17.4390963,45.7225803 15.2962963,45.7225803 C13.1534963,45.7225803 10.3880642,45.7225803 7,45.7225803" id="路径" transform="translate(21.814815, 39.204062) rotate(-315.000000) translate(-21.814815, -39.204062) "></path>
                <path d="M35.0043538,24.1928098 L45.962963,24 C45.962963,25.6279857 45.962963,28.3934178 45.962963,32.2962963 C45.962963,34.9145351 43.840461,37.037037 41.2222222,37.037037 C39.2566937,37.037037 37.8740706,37.037037 37.0743527,37.037037 C35.2836416,37.037037 33.9008327,37.037037 32.9259259,37.037037 C29.5378617,37.037037 26.7724296,37.037037 24.6296296,37.037037 C22.4868297,37.037037 19.7213976,37.037037 16.3333333,37.037037" id="路径" transform="translate(31.148148, 30.518519) rotate(-135.000000) translate(-31.148148, -30.518519) "></path>
            </g>
        </g>
    </g>
</svg>