<?xml version="1.0" encoding="UTF-8"?>
<svg width="90px" height="90px" viewBox="0 0 90 90" version="1.1" xmlns="http://www.w3.org/2000/svg" xmlns:xlink="http://www.w3.org/1999/xlink">
    <!-- Generator: Sketch 60.1 (88133) - https://sketch.com -->
    <title>核酸和抗体检测查询</title>
    <desc>Created with Sketch.</desc>
    <g id="核酸和抗体检测查询" stroke="none" stroke-width="1" fill="none" fill-rule="evenodd">
        <g>
            <circle id="椭圆形备份-21" fill="#EDF8FF" cx="45" cy="45" r="45"></circle>
            <g id="编组-43备份-2" transform="translate(25.000000, 23.000000)" stroke="#0096FA">
                <path d="M19.9997647,2.09398209 L2,7.67431224 L2,24.5396932 C2,26.4110333 2.38361976,28.2472692 3.12133473,29.9480488 L3.18037133,30.0804136 C4.36502377,32.7364989 6.35856154,34.9538057 8.80069087,36.3471517 C12.6651196,38.2990824 15.5973009,39.7622074 17.5942642,40.7351184 C18.5834399,41.2170401 19.33974,41.5769984 19.8580738,41.8128084 C19.8896211,41.8271605 19.9201906,41.841008 19.9497661,41.8543453 C19.9820291,41.8400665 20.0154706,41.8251935 20.0500701,41.8097334 C20.5746248,41.5753458 21.3397051,41.2176827 22.3402669,40.7388704 C24.3598621,39.7724062 27.3250691,38.3190437 31.2046122,36.3944917 L31.1805088,36.4093495 C35.3832342,33.9873946 38,29.4550105 38,24.5938865 L38,7.67889218 L19.9997647,2.09398209 Z" id="路径" stroke-width="4" fill-rule="nonzero"></path>
                <polyline id="路径-113" stroke-width="3.6" stroke-linecap="round" stroke-linejoin="round" points="10 21 13.2513034 21 16.9118984 15.1351024 21.3597218 25.890291 25.5522399 21 30 21"></polyline>
            </g>
        </g>
    </g>
</svg>