<?xml version="1.0" encoding="UTF-8"?>
<svg width="90px" height="90px" viewBox="0 0 90 90" version="1.1" xmlns="http://www.w3.org/2000/svg" xmlns:xlink="http://www.w3.org/1999/xlink">
    <!-- Generator: Sketch 60.1 (88133) - https://sketch.com -->
    <title>普通话证书查询</title>
    <desc>Created with Sketch.</desc>
    <g id="普通话证书查询" stroke="none" stroke-width="1" fill="none" fill-rule="evenodd">
        <g>
            <circle id="椭圆形备份-89" fill="#EDF8FF" cx="45" cy="45" r="45"></circle>
            <rect id="矩形备份-159" x="25" y="25" width="40" height="40"></rect>
            <path d="M42.8449211,63 L30.6,63 C28.6117749,63 27,61.209139 27,59 L27,31 C27,28.790861 28.6117749,27 30.6,27 L59.4,27 C61.3882251,27 63,28.790861 63,31 L63,39.5" id="路径" stroke="#0096FA" stroke-width="4" stroke-linecap="round" transform="translate(45.000000, 45.000000) scale(-1, -1) translate(-45.000000, -45.000000) "></path>
            <circle id="椭圆形备份-90" stroke="#0096FA" stroke-width="4" cx="35" cy="33" r="6"></circle>
            <polygon id="矩形" fill="#0096FA" transform="translate(31.000000, 42.000000) rotate(-330.000000) translate(-31.000000, -42.000000) " points="29 38 33 38 33 46 31.1052335 43.2291264 29 46"></polygon>
            <polygon id="矩形备份-139" fill="#0096FA" transform="translate(41.000000, 42.000000) scale(-1, 1) rotate(-330.000000) translate(-41.000000, -42.000000) " points="39 38 43 38 43 46 41.1052335 43.2291264 39 46"></polygon>
            <path d="M50,47 L55,47 C56.1045695,47 57,47.8954305 57,49 C57,50.1045695 56.1045695,51 55,51 L50,51 C48.8954305,51 48,50.1045695 48,49 C48,47.8954305 48.8954305,47 50,47 Z" id="矩形" fill="#0096FA"></path>
            <path d="M35,54 L55,54 C56.1045695,54 57,54.8954305 57,56 C57,57.1045695 56.1045695,58 55,58 L35,58 C33.8954305,58 33,57.1045695 33,56 C33,54.8954305 33.8954305,54 35,54 Z" id="矩形备份-195" fill="#0096FA"></path>
        </g>
    </g>
</svg>