<?xml version="1.0" encoding="UTF-8"?>
<svg width="90px" height="90px" viewBox="0 0 90 90" version="1.1" xmlns="http://www.w3.org/2000/svg" xmlns:xlink="http://www.w3.org/1999/xlink">
    <!-- Generator: Sketch 60.1 (88133) - https://sketch.com -->
    <title>Health Code of Entry 防疫健康码(入境人员版)</title>
    <desc>Created with Sketch.</desc>
    <g id="Health-Code-of-Entry-防疫健康码(入境人员版)" stroke="none" stroke-width="1" fill="none" fill-rule="evenodd">
        <g>
            <circle id="椭圆形备份-23" fill="#EDF8FF" cx="45" cy="45" r="45"></circle>
            <g id="编组-25备份" transform="translate(25.681928, 26.000000)">
                <path d="M35.4506474,7.66460068 C31.8659189,3.01297917 26.1302686,0 19.6662239,0 C8.80486836,0 0,8.50658975 0,19 C0,29.4934102 8.80486836,38 19.6662239,38 C28.0126356,38 35.144659,32.9767241 38,25.8887266" id="路径" stroke="#0096FA" stroke-width="4" stroke-linecap="round"></path>
                <g id="飞行-旅游-出差-飞机-800" transform="translate(9.318072, 9.000000)" fill="#0096FA" fill-rule="nonzero">
                    <path d="M27.7184449,9.91368732 C26.1556732,10.3641982 10.2644866,14.7455025 10.2644866,14.7455025 C10.2644866,14.7455025 5.86490533,16.1486204 2.60943173,12.3657046 L6.22221341,10.9350746 C6.85020943,11.1379764 7.43489537,11.1207814 8.21086746,10.8834894 L12.3181058,9.91368732 L6.1572483,1.21985895 C6.1572483,1.21985895 4.90847461,-0.668159943 9.23587245,0.253495912 C9.23587245,0.253495912 17.0641676,5.96569881 18.4753541,7.01459819 C18.4753541,7.01459819 19.1971886,7.40664583 20.5289732,7.01459819 L26.6898307,5.08187211 C26.6898307,5.08187211 30.8620341,3.86790003 31.822074,6.04823515 C32.8326423,8.33517972 29.2776074,9.46317644 27.7184449,9.91368732 Z M1.9164706,11.6675847 C0.306779663,9.95495549 0,8.94732428 0,8.94732428 C0,8.94732428 0.332043871,6.85296452 3.07862415,8.94732428 C3.87986045,9.55946884 4.73162516,9.97902859 5.27300104,10.32293 L1.9164706,11.6675847 Z" id="形状"></path>
                </g>
            </g>
        </g>
    </g>
</svg>