<?xml version="1.0" encoding="UTF-8"?>
<svg width="90px" height="90px" viewBox="0 0 90 90" version="1.1" xmlns="http://www.w3.org/2000/svg" xmlns:xlink="http://www.w3.org/1999/xlink">
    <!-- Generator: Sketch 60.1 (88133) - https://sketch.com -->
    <title>高等教育学历证书查询</title>
    <desc>Created with Sketch.</desc>
    <g id="高等教育学历证书查询" stroke="none" stroke-width="1" fill="none" fill-rule="evenodd">
        <g id="编组-158">
            <circle id="椭圆形备份-53" fill="#FFF4F0" cx="45" cy="45" r="45"></circle>
            <g id="编组-157" transform="translate(25.000000, 25.000000)">
                <rect id="矩形" x="0" y="0" width="40" height="40"></rect>
                <path d="M18.5023334,6 L36.1904762,6 C38.2944181,6 40,7.67893219 40,9.75 L40,32.25 C40,34.3210678 38.2944181,36 36.1904762,36 L3.80952381,36 C1.70558191,36 0,34.3210678 0,32.25 L0,9.75 C0,7.67893219 1.70558191,6 3.80952381,6 L8.3250037,6" id="路径" stroke="#FF6E32" stroke-width="4"></path>
                <path d="M8,2 L8,13.6998294 L13,11.0896893 L18,13.6998294 L18,2 L8,2 Z" id="矩形" stroke="#FF6E32" stroke-width="4"></path>
                <circle id="椭圆形" stroke="#FF6E32" stroke-width="4" cx="26.5" cy="23.5" r="5.5"></circle>
                <path d="M32.8751023,25.306493 L32.969283,25.306493 C34.0363783,25.306493 34.9155269,26.1442422 34.9669586,27.2100974 L35.1636648,31.286581 C35.2143956,32.3379127 34.4032483,33.2313109 33.3519167,33.2820417 C33.3213202,33.2835181 33.2906925,33.2842566 33.2600604,33.2842566 L33.1658797,33.2842566 C32.0987843,33.2842566 31.2196357,32.4465074 31.1682041,31.3806522 L30.9714979,27.3041687 C30.920767,26.252837 31.7319143,25.3594388 32.783246,25.308708 C32.8138425,25.3072316 32.8444701,25.306493 32.8751023,25.306493 Z" id="矩形" fill="#FF6E32" transform="translate(33.067581, 29.295375) rotate(-45.000000) translate(-33.067581, -29.295375) "></path>
            </g>
        </g>
    </g>
</svg>