<?xml version="1.0" encoding="UTF-8"?>
<svg width="90px" height="90px" viewBox="0 0 90 90" version="1.1" xmlns="http://www.w3.org/2000/svg" xmlns:xlink="http://www.w3.org/1999/xlink">
    <!-- Generator: Sketch 60.1 (88133) - https://sketch.com -->
    <title>跨省异地就医备案</title>
    <desc>Created with Sketch.</desc>
    <g id="跨省异地就医备案" stroke="none" stroke-width="1" fill="none" fill-rule="evenodd">
        <g>
            <circle id="椭圆形备份-27" fill="#EFFCFA" cx="45" cy="45" r="45"></circle>
            <g id="编组-165" transform="translate(25.000000, 25.000000)">
                <rect id="矩形" x="0" y="0" width="40" height="40"></rect>
                <path d="M37,10.8284271 L28.1715729,2 L5,2 C3.8954305,2 3,2.8954305 3,4 L3,36 C3,37.1045695 3.8954305,38 5,38 L35,38 C36.1045695,38 37,37.1045695 37,36 L37,10.8284271 Z" id="矩形" stroke="#00B68A" stroke-width="4"></path>
                <path d="M27,-3.28626015e-14 L27,10.0715156 C27,11.1760851 27.8954305,12.0715156 29,12.0715156 L38.1666128,12.0715156 L38.1666128,12.0715156" id="路径-284" stroke="#00B68A" stroke-width="3.5"></path>
                <rect id="矩形" fill="#00B68A" x="8" y="11" width="11" height="4" rx="2"></rect>
                <rect id="矩形备份-197" fill="#00B68A" x="8" y="23" width="16" height="3.5" rx="1.75"></rect>
                <rect id="矩形备份-198" fill="#00B68A" x="8" y="29" width="24" height="3.5" rx="1.75"></rect>
                <rect id="矩形备份-196" fill="#00B68A" transform="translate(13.500000, 13.000000) rotate(-270.000000) translate(-13.500000, -13.000000) " x="8" y="11" width="11" height="4" rx="2"></rect>
            </g>
        </g>
    </g>
</svg>