<?xml version="1.0" encoding="UTF-8"?>
<svg width="90px" height="90px" viewBox="0 0 90 90" version="1.1" xmlns="http://www.w3.org/2000/svg" xmlns:xlink="http://www.w3.org/1999/xlink">
    <!-- Generator: Sketch 60.1 (88133) - https://sketch.com -->
    <title>全国核酸检测机构查询</title>
    <desc>Created with Sketch.</desc>
    <g id="全国核酸检测机构查询" stroke="none" stroke-width="1" fill="none" fill-rule="evenodd">
        <g>
            <circle id="椭圆形备份-20" fill="#EFFCFA" cx="45" cy="45" r="45"></circle>
            <g id="编组-98" transform="translate(25.000000, 25.000000)">
                <path d="M20,2.53372317 L7.82907264,12 L32.1709274,12 L20,2.53372317 Z" id="三角形" stroke="#00B68A" stroke-width="4"></path>
                <path d="M10,12 L10,38 L30,38 L30,12 L10,12 Z" id="矩形" stroke="#00B68A" stroke-width="4"></path>
                <path d="M30,22 L30,38 L38,38 L38,22 L30,22 Z" id="矩形备份-71" stroke="#00B68A" stroke-width="4"></path>
                <path d="M2,22 L2,38 L10,38 L10,22 L2,22 Z" id="矩形备份-72" stroke="#00B68A" stroke-width="4"></path>
                <path d="M20,19.5 C20.8284271,19.5 21.5,20.1715729 21.5,21 L21.5,23 L23.5,23 C24.3284271,23 25,23.6715729 25,24.5 C25,25.3284271 24.3284271,26 23.5,26 L21.499,26 L21.5,28 C21.5,28.8284271 20.8284271,29.5 20,29.5 C19.1715729,29.5 18.5,28.8284271 18.5,28 L18.499,26 L16.5,26 C15.6715729,26 15,25.3284271 15,24.5 C15,23.6715729 15.6715729,23 16.5,23 L18.5,23 L18.5,21 C18.5,20.1715729 19.1715729,19.5 20,19.5 Z" id="形状结合" fill="#00B68A"></path>
            </g>
        </g>
    </g>
</svg>