<?xml version="1.0" encoding="UTF-8"?>
<svg width="90px" height="90px" viewBox="0 0 90 90" version="1.1" xmlns="http://www.w3.org/2000/svg" xmlns:xlink="http://www.w3.org/1999/xlink">
    <!-- Generator: Sketch 57.1 (83088) - https://sketch.com -->
    <title>山西政务三晋通</title>
    <desc>Created with Sketch.</desc>
    <defs>
        <rect id="path-1" x="0" y="0" width="90" height="90" rx="45"></rect>
        <rect id="path-3" x="0" y="0" width="90" height="90" rx="45"></rect>
    </defs>
    <g id="山西政务三晋通" stroke="none" stroke-width="1" fill="none" fill-rule="evenodd">
        <g id="气象局">
            <g id="位图">
                <mask id="mask-2" fill="white">
                    <use xlink:href="#path-1"></use>
                </mask>
                <g id="蒙版"></g>
            </g>
            <mask id="mask-4" fill="white">
                <use xlink:href="#path-3"></use>
            </mask>
            <rect stroke="#EBEBEB" x="0.5" y="0.5" width="89" height="89" rx="44.5"></rect>
        </g>
        <g id="编组" transform="translate(16.000000, 22.000000)">
            <rect id="矩形" fill="#0663BF" x="5" y="0" width="48" height="4" rx="2"></rect>
            <g id="编组-2" transform="translate(11.000000, 24.000000)" fill="#0663BF">
                <rect id="矩形备份-2" x="0.5" y="0" width="25" height="4" rx="2"></rect>
                <rect id="矩形备份-3" x="0.5" y="18" width="36" height="4" rx="2"></rect>
                <rect id="矩形备份-2" transform="translate(2.000000, 11.000000) rotate(-270.000000) translate(-2.000000, -11.000000) " x="-9" y="9.5" width="22" height="3" rx="1.5"></rect>
                <rect id="矩形备份-5" transform="translate(24.000000, 6.000000) rotate(-270.000000) translate(-24.000000, -6.000000) " x="18" y="4.5" width="12" height="3" rx="1.5"></rect>
                <rect id="矩形备份-5" x="8.5" y="9" width="17" height="3" rx="1.5"></rect>
                <rect id="矩形备份-4" transform="translate(34.500000, 14.000000) rotate(-270.000000) translate(-34.500000, -14.000000) " x="26.5" y="12" width="16" height="4" rx="2"></rect>
                <circle id="椭圆形" cx="34.5" cy="2" r="2"></circle>
            </g>
            <rect id="矩形备份" fill="#0663BF" x="0" y="18" width="58" height="4" rx="2"></rect>
            <polyline id="路径-396" stroke="#0663BF" stroke-width="3" stroke-linecap="round" stroke-linejoin="round" points="5 19.5 13.9202084 8.01940095 19.9577492 19.5 29 2.91707706 38.4176684 19.5 45.0926557 8.01940095 53 19.5"></polyline>
        </g>
    </g>
</svg>