<?xml version="1.0" encoding="UTF-8"?>
<svg width="90px" height="90px" viewBox="0 0 90 90" version="1.1" xmlns="http://www.w3.org/2000/svg" xmlns:xlink="http://www.w3.org/1999/xlink">
    <!-- Generator: Sketch 60.1 (88133) - https://sketch.com -->
    <title>湖北省</title>
    <desc>Created with Sketch.</desc>
    <defs>
        <linearGradient x1="3.5244491%" y1="50%" x2="100%" y2="50%" id="linearGradient-1">
            <stop stop-color="#E15024" offset="0%"></stop>
            <stop stop-color="#BB2E3E" offset="100%"></stop>
        </linearGradient>
    </defs>
    <g id="湖北省" stroke="none" stroke-width="1" fill="none" fill-rule="evenodd">
        <g>
            <rect id="矩形备份-3" stroke="#EBEBEB" x="0" y="0" width="90" height="90" rx="45"></rect>
            <path d="M38.0384107,66 C37.3116287,61.9967022 35.3303288,61.3319964 28.3687781,59.2579289 C21.4072275,57.1838614 21.6786011,52.5386455 22.2831481,47.3971211 C22.8876951,42.2555967 28.3687781,38.0368465 28.3687781,33.7414917 C28.3687781,30.9445166 27.0634372,28.7356106 24.4527553,27.1147739 L24.2640581,27 L34.8200901,27.0247189 C37.4643798,28.3397613 37.4079543,33.3865636 36.8822067,35.8472388 L36.7460502,36.4401588 C36.1331148,39.0566507 34.8507044,44.2911645 35.3303288,48.1112646 C35.6630931,50.7616579 37.2652366,52.4011346 40.1367593,53.0296948 L40.3300747,53.0701012 L40.3300747,29.8898488 L42.1260285,29.8898488 L41.9443387,55.7706249 C36.2019179,55.7706249 31.8320859,53.8918954 30.9815557,49.7963342 C30.1310255,45.700773 32.7069936,41.1180889 34.4106145,37.3918846 C36.0838135,33.7322195 35.197448,30.759758 34.8390945,29.932818 L34.8200901,29.8898488 C34.4758098,29.1278019 32.5652671,27.1464941 30.9815557,28.4828337 C29.3978442,29.8191732 30.5804369,31.1789538 31.355323,31.4638714 C31.8719138,31.6538165 32.7144756,31.3831579 33.8830083,30.6518956 C34.4037265,33.3184634 33.4515561,35.0857974 32.3347817,37.5757953 L31.9745737,38.3871873 C30.840155,40.9072196 29.855732,42.4055663 28.8901242,46.7934467 C27.8806253,51.3807762 29.880201,53.7433629 32.1302092,55.3436205 C33.579367,56.3742948 37.4002214,56.9337902 43.5927722,57.0221065 L44.2533794,57.0296627 L44.2533794,29.8898488 L45.7466206,29.8898488 L45.7466206,57.0296627 L46.4072278,57.0221065 C52.5997786,56.9337902 56.420633,56.3742948 57.8697908,55.3436205 L58.0901982,55.1837081 C60.247684,53.5860477 62.0862764,51.230372 61.1098758,46.7934467 C60.1223224,42.3058418 59.1150888,40.8406054 57.9478456,38.2137379 L57.6652183,37.5757953 C56.5484439,35.0857974 55.5962735,33.3184634 56.1169917,30.6518956 C57.2855244,31.3831579 58.1280862,31.6538165 58.644677,31.4638714 C59.4195631,31.1789538 60.6021558,29.8191732 59.0184443,28.4828337 C57.4347329,27.1464941 55.5241902,29.1278019 55.1799099,29.8898488 L55.1408539,29.9800429 C54.7711667,30.8680747 53.9466083,33.7987589 55.5893855,37.3918846 L55.789584,37.8255557 C57.486089,41.4698825 59.8362618,45.8582945 59.0184443,49.7963342 C58.1679141,53.8918954 53.7980821,55.7706249 48.0556613,55.7706249 L47.8739715,29.8898488 L49.6699253,29.8898488 L49.6699253,53.0701012 C52.6629302,52.473501 54.3295122,50.8205555 54.6696712,48.1112646 C55.1799099,44.0473283 53.6959943,38.3826522 53.1453943,35.9721764 C52.5947942,33.5617006 52.490029,28.3624345 55.1799099,27.0247189 L65.7359419,27 C62.9994619,28.630758 61.6312219,30.8779219 61.6312219,33.7414917 C61.6312219,38.0368465 67.1123049,42.2555967 67.7168519,47.3971211 L67.7901859,48.0370766 C68.3255728,52.8681938 68.3032655,57.1756742 61.8464237,59.1922797 L59.9549462,59.7612347 C54.3405426,61.4698121 52.626329,62.3384471 51.9615893,66 L38.0384107,66 Z" id="路径" fill="url(#linearGradient-1)"></path>
        </g>
    </g>
</svg>