<?xml version="1.0" encoding="UTF-8"?>
<svg width="90px" height="90px" viewBox="0 0 90 90" version="1.1" xmlns="http://www.w3.org/2000/svg" xmlns:xlink="http://www.w3.org/1999/xlink">
    <!-- Generator: Sketch 60.1 (88133) - https://sketch.com -->
    <title>壮掌桂</title>
    <desc>Created with Sketch.</desc>
    <defs>
        <polygon id="path-1" points="0 58.7538488 41.370586 58.7538488 41.370586 0 0 0"></polygon>
    </defs>
    <g id="壮掌桂" stroke="none" stroke-width="1" fill="none" fill-rule="evenodd">
        <g>
            <rect id="矩形备份-15" stroke="#EBEBEB" x="0.5" y="0.5" width="89" height="89" rx="44.5"></rect>
            <g id="编组" transform="translate(25.000000, 16.000000)">
                <path d="M4.30313442,14.3981885 C3.72214256,14.0494908 3.60591,12.1904536 3.60591,12.1904536 C6.62214488,7.88130244 21.1178833,5.44623035 21.1178833,5.44623035 C12.5183833,3.20294198 4.90002279,9.06413965 3.03261,10.655842 L3.01979023,10.6172117 C3.01979023,10.6172117 2.9772286,10.660799 2.93569256,10.7052408 C2.51452047,8.84329779 2.28752512,6.82426988 2.58904605,5.01531523 C2.58904605,5.01531523 23.703374,-6.61905105 31.8905902,6.30806058 L31.02876,8.46263616 C31.02876,8.46263616 30.5146019,8.48314779 29.5691867,8.59356872 C24.668446,-0.492569651 10.3453472,3.29165477 10.3453472,3.29165477 C22.2448263,1.70525128 27.5682774,7.78165012 28.3401984,8.7585164 C24.1722356,9.38053151 15.5388914,11.2889676 5.17453674,17.0807676 C5.17453674,17.0807676 4.96446349,16.6604501 4.66174605,15.9517734 C12.8383647,9.67384779 24.5652042,6.7389757 24.5652042,6.7389757 C12.4370205,6.380535 4.30313442,14.3981885 4.30313442,14.3981885" id="Fill-1" fill="#26AF85"></path>
                <path d="M4.65400291,15.9333984 C4.65656686,15.9390391 4.65930174,15.9460472 4.66169477,15.9516879 C4.62545756,15.9795495 4.63280756,15.9634821 4.65400291,15.9333984" id="Fill-3" fill="#26AF85"></path>
                <path d="M4.74348488,15.7880906 C4.82245465,15.725701 4.70092326,15.8670603 4.65408837,15.9333813 C4.16044186,14.7760127 3.42544186,12.8602266 2.9417093,10.7335127 C2.96905814,10.7099243 3.0022186,10.6817208 3.03264419,10.6559103 L4.74348488,15.7880906 Z" id="Fill-5" fill="#26AF85"></path>
                <path d="M2.9417093,10.7334614 C2.79829884,10.8573858 2.86564535,10.7799544 2.93572674,10.705087 C2.93794884,10.7144881 2.93948721,10.7240602 2.9417093,10.7334614" id="Fill-7" fill="#26AF85"></path>
                <path d="M29.305185,8.46261907 L28.0126106,8.46261907 C28.0126106,8.46261907 28.4067757,8.84293884 28.3401129,8.7584993 C28.8064106,8.6889307 29.2188652,8.63457488 29.5692722,8.59355163 C29.6239699,8.69491326 29.2528803,8.3581807 29.305185,8.46261907" id="Fill-9" fill="#26AF85"></path>
                <path d="M25.858035,0.275419884 C25.858035,0.275419884 31.0288455,-1.01732547 32.3214199,1.99908035 C32.3214199,1.99908035 32.3214199,4.58440012 31.8906757,5.44623035 C31.8906757,5.44623035 30.1670152,1.99908035 24.9962048,0.275419884 L25.858035,0.275419884 Z" id="Fill-11" fill="#26AF85"></path>
                <path d="M31.4596751,8.89353419 C31.4596751,8.89353419 32.3215053,16.2189202 29.3052705,19.6662412 C29.3052705,19.6662412 24.9962902,14.9261749 17.2398181,12.3408551 C17.2398181,12.3408551 23.2726298,9.75536442 31.4596751,8.89353419" id="Fill-13" fill="#26AF85"></path>
                <path d="M31.5736856,8.54741756 L31.5718053,8.54810128 C32.003746,7.81874198 32.2871484,7.01502802 32.46936,6.23558616 C33.7109972,8.61066174 34.906996,18.3735129 34.906996,18.3735129 C34.0451658,1.99908035 32.7397716,4.48782453 32.7397716,4.48782453 L32.7396007,4.48799547 C32.8383984,3.29832105 32.7524205,2.42999547 32.7524205,2.42999547 C34.0451658,8.89355128 41.3705519,15.7880222 41.3705519,15.7880222 C40.9398077,16.6498524 37.9232309,19.6662583 37.9232309,19.6662583 C37.4924867,20.5280885 35.7688263,20.0971734 35.7688263,20.0971734 C32.7524205,19.6662583 30.5980158,21.3899187 30.5980158,21.3899187 C31.02876,20.5280885 30.1671007,19.2353431 30.1671007,19.2353431 C33.1833356,14.926192 31.5736856,8.54741756 31.5736856,8.54741756" id="Fill-15" fill="#26AF85"></path>
                <path d="M13.2263934,14.5876476 C13.2263934,14.5876476 14.9551817,17.1808301 17.1164236,17.6131127 C17.1164236,17.6131127 14.9551817,15.4520417 14.9551817,14.1555359 C14.9551817,14.1555359 16.2518585,14.1555359 17.9806469,15.8843243 C17.9806469,15.8843243 19.7096062,18.4775069 22.7350713,18.0453952 C22.7350713,18.0453952 24.4638597,19.7741836 23.1671829,23.6640429 C23.1671829,23.6640429 24.8959713,22.3673662 25.3282538,18.0453952 C25.3282538,18.0453952 25.7605364,17.6131127 26.192648,18.0453952 C26.192648,18.0453952 25.3282538,16.3164359 16.684141,12.8588592 C16.684141,12.8588592 13.6586759,13.7232534 13.2263934,14.5876476" id="Fill-17" fill="#26AF85"></path>
                <path d="M8.04006244,16.7487356 C8.04006244,16.7487356 7.17549733,21.0708774 8.04006244,24.0961716 C8.04006244,24.0961716 5.87882058,22.3673833 5.44670895,18.0452414 C5.44670895,18.0452414 6.7433857,17.1808472 8.04006244,16.7487356" id="Fill-19" fill="#26AF85"></path>
                <path d="M29.6503786,20.6385607 C29.6503786,20.6385607 29.218267,24.0963084 25.3282367,24.0963084 C25.3282367,24.0963084 28.3537019,22.7996316 28.3537019,19.3420549 C28.3537019,19.3420549 29.218267,20.2064491 29.6503786,20.6385607" id="Fill-21" fill="#26AF85"></path>
                <path d="M8.37007744,24.7398949 C8.37007744,24.7398949 10.2292856,31.479503 14.7714147,32.0613495 C14.7714147,32.0613495 18.0090042,31.4386507 19.8765879,30.0689867 C19.8765879,30.0689867 17.3863053,32.4348321 14.6469774,32.5592693 C14.6469774,32.5592693 9.64829372,31.1309763 8.37007744,24.7398949" id="Fill-23" fill="#26AF85"></path>
                <path d="M25.6043062,18.4888395 C25.6043062,18.4888395 28.0945887,17.3682209 27.8457143,20.4812023 C27.8457143,20.4812023 27.4722317,22.8470477 24.7327329,23.7186209 C24.7327329,23.7186209 27.7212771,22.4733942 27.4722317,20.232157 C27.4722317,20.232157 27.4722317,18.2397942 25.479869,18.862493 L25.6043062,18.4888395 Z" id="Fill-25" fill="#26AF85"></path>
                <path d="M25.3554317,20.4811681 C25.3554317,20.4811681 25.6665248,19.2359414 27.2231864,20.1699042 C27.2231864,20.1699042 26.6004876,19.2359414 25.3554317,19.8584693 L25.3554317,20.4811681 Z" id="Fill-27" fill="#26AF85"></path>
                <path d="M26.6005217,18.6133622 C26.6005217,18.6133622 25.6043403,18.8624076 25.3554659,19.858589 L25.6458764,19.858589 C25.6458764,19.858589 25.7287776,18.9870157 26.6005217,18.6133622" id="Fill-29" fill="#26AF85"></path>
                <path d="M22.8650979,27.9521867 C22.8650979,27.9521867 23.9857165,34.0535414 16.0166072,36.1703414 L16.0166072,33.4308426 C16.0166072,33.4308426 21.9933537,30.0689867 22.8650979,27.9521867" id="Fill-31" fill="#26AF85"></path>
                <path d="M12.1565752,31.5631563 C12.1565752,31.5631563 13.401631,35.2986656 13.6506764,35.7967563 L13.0283194,36.4194551 C13.0283194,36.4194551 11.6584845,35.7967563 11.1603938,33.9290016 C11.1603938,33.9290016 10.5378659,30.9404574 12.1565752,31.5631563" id="Fill-33" fill="#26AF85"></path>
                <path d="M23.3630177,29.4464076 C23.3630177,29.4464076 26.9740898,31.7137971 30.0870712,32.1259099 C30.0870712,32.1259099 36.0638177,33.362761 37.4334816,36.1453343 C37.4334816,36.1453343 38.9277537,40.2678297 36.8109537,46.8636855 C36.8109537,46.8636855 37.9315723,38.9279076 36.312863,36.660689 C36.312863,36.660689 34.0714549,33.5689029 29.5889805,33.1566192 C29.5889805,33.1566192 24.4838072,30.9923006 23.3630177,29.4464076" id="Fill-35" fill="#26AF85"></path>
                <path d="M10.5379172,33.1565337 C10.5379172,33.1565337 3.19133581,35.3208523 1.94610907,36.1452488 C1.94610907,36.1452488 -0.544173488,41.0923116 0.700882326,45.317707 C0.700882326,45.317707 -0.0460827907,39.4433477 2.31976256,37.0728872 C2.31976256,37.0728872 2.94229047,36.0423488 10.5379172,33.1565337" id="Fill-37" fill="#26AF85"></path>
                <path d="M36.5618742,38.4126384 C36.5618742,38.4126384 34.9431649,43.0504884 33.0754102,44.5963814 C33.0754102,44.5963814 36.3128288,42.7412756 36.5618742,38.4126384" id="Fill-39" fill="#26AF85"></path>
                <path d="M23.3630177,30.4425206 C23.3630177,30.4425206 26.4759991,36.7927497 25.1063351,39.158595 C25.1063351,39.158595 28.2191456,38.536238 23.3630177,30.4425206" id="Fill-41" fill="#26AF85"></path>
                <path d="M26.2269366,32.5592864 C26.2269366,32.5592864 29.339918,37.4154143 27.8458169,43.516769 C27.8458169,43.516769 28.3437366,39.0341236 26.2269366,32.5592864" id="Fill-43" fill="#26AF85"></path>
                <path d="M16.0165217,35.6300138 C16.0165217,35.6300138 15.3939938,39.5463673 16.0165217,45.3178266 C16.0165217,45.3178266 14.5224206,41.9166569 16.0165217,35.6300138" id="Fill-45" fill="#26AF85"></path>
                <path d="M12.4056206,35.9392437 C12.4056206,35.9392437 10.4134287,39.5463844 10.1643834,44.5963472 C10.1643834,44.5963472 9.04359384,39.6494553 12.4056206,35.9392437" id="Fill-47" fill="#26AF85"></path>
                <path d="M23.7083822,24.8247788 C23.7083822,24.8247788 22.6501531,27.646666 20.533695,29.5867242 C20.533695,29.5867242 23.0027822,28.175866 23.7083822,24.8247788" id="Fill-49" fill="#26AF85"></path>
                <path d="M16.0355634,19.2676148 C16.0355634,19.2676148 15.8359169,19.7539113 16.3341785,19.6862229 C16.3341785,19.6862229 17.9819459,19.3657287 18.5352471,19.1696717 C18.5352471,19.1696717 19.7667994,18.8091799 21.0603994,19.2616322 C21.0603994,19.2616322 21.4453343,19.4269217 21.612675,19.2349671 C21.612675,19.2349671 21.649425,19.0768566 21.2885913,18.948659 C21.2885913,18.948659 20.020289,18.3639066 19.7208192,18.1146903 C19.7208192,18.1146903 19.6637285,18.0499078 19.4502366,18.0789659 C19.4502366,18.0789659 18.7242959,18.2500671 18.4364494,18.264938 C18.4364494,18.264938 16.3982773,18.7351671 16.0355634,19.2676148" id="Fill-51" fill="#26AF85"></path>
                <path d="M19.5331207,21.4119345 C19.5331207,21.4119345 19.7513986,20.9312787 19.706273,20.7871845 L20.0754823,21.0375973 C20.0754823,21.0375973 19.8329323,21.3409985 19.5331207,21.4119345 L19.5331207,21.4119345 Z M19.1611765,20.9514485 C19.1611765,20.9514485 19.0652847,20.8140206 19.2437358,20.609588 C19.2437358,20.609588 19.3782579,20.651295 19.4290242,20.6444578 C19.4290242,20.6444578 19.4437242,20.9430729 19.1611765,20.9514485 L19.1611765,20.9514485 Z M18.4242963,20.8410276 L18.2123428,20.9900787 L18.1721742,20.6948822 C18.148073,20.5177985 18.224137,20.5075427 18.224137,20.5075427 C18.3174649,20.4347264 18.451987,20.4766043 18.451987,20.4766043 C18.4600207,20.5355752 18.3748974,20.6673624 18.3748974,20.6673624 L18.4242963,20.8410276 Z M19.9498486,20.3031101 C19.9498486,20.3031101 19.3367219,19.9656938 18.5477079,20.0426124 C18.5477079,20.0426124 17.7762998,20.0573124 17.6455381,20.0450055 C17.6455381,20.0450055 17.4310207,19.9839834 17.0966812,20.1796985 C17.0966812,20.1796985 16.4584277,20.4166078 16.3160428,20.8870078 C16.3160428,20.8870078 16.2442521,21.4979124 16.8572079,21.2644217 C16.8572079,21.2644217 17.5513556,20.869402 17.7845044,20.6875322 C17.7845044,20.6875322 17.8352707,21.2517729 18.1711486,21.4466334 C18.1711486,21.4466334 17.8887719,21.454838 17.6489567,21.3974055 C17.6489567,21.3974055 16.9664323,21.3095473 16.9560056,21.611581 C16.9560056,21.611581 16.9679707,21.7002938 17.1158253,21.6500403 C17.1158253,21.6500403 17.5422963,21.5620113 17.7354474,21.6560229 C17.7354474,21.6560229 19.6519172,21.9067776 20.6564742,21.1391299 C20.6564742,21.1391299 20.7884323,20.9707636 21.1121742,21.0772531 C21.1121742,21.0772531 21.0308114,20.6673624 19.9498486,20.3031101 L19.9498486,20.3031101 Z" id="Fill-53" fill="#26AF85"></path>
                <path d="M13.6785893,19.2614442 C13.6785893,19.2614442 13.958744,19.7062047 13.4562091,19.724836 C13.4562091,19.724836 11.7778451,19.6916756 11.1992463,19.5933907 C11.1992463,19.5933907 9.92393581,19.4492965 8.7269114,20.1167791 C8.7269114,20.1167791 8.37616256,20.3454837 8.17839628,20.1851512 C8.17839628,20.1851512 8.11515209,20.0357581 8.44846605,19.8477349 C8.44846605,19.8477349 9.59780093,19.0541058 9.85043581,18.7572 C9.85043581,18.7572 9.89539047,18.6837 10.1107626,18.6756663 C10.1107626,18.6756663 10.8551637,18.7197663 11.1413009,18.6850674 C11.1413009,18.6850674 13.2300684,18.798907 13.6785893,19.2614442" id="Fill-55" fill="#26AF85"></path>
                <path d="M12.0547521,21.7340867 C12.0547521,21.7340867 12.2532021,21.2754809 12.2132044,21.1421553 L12.5439544,21.3626553 C12.5439544,21.3626553 12.3246509,21.6563135 12.0547521,21.7340867 L12.0547521,21.7340867 Z M11.7224637,21.317017 C11.7224637,21.317017 11.6366567,21.192067 11.7980149,20.993446 C11.7980149,20.993446 11.9188626,21.0274612 11.9645009,21.0190856 C11.9645009,21.0190856 11.976466,21.2983856 11.7224637,21.317017 L11.7224637,21.317017 Z M11.0601091,21.2418077 L10.8690091,21.3894914 L10.8341393,21.1144647 C10.8132858,20.949517 10.8818288,20.9368681 10.8818288,20.9368681 C10.9659265,20.8652484 11.0867742,20.8992635 11.0867742,20.8992635 C11.0937823,20.954303 11.0165219,21.0809623 11.0165219,21.0809623 L11.0601091,21.2418077 Z M12.4345591,20.6794472 C12.4345591,20.6794472 11.8846765,20.3866437 11.1749742,20.4892019 C11.1749742,20.4892019 10.4809974,20.5324472 10.3633974,20.5259519 C10.3633974,20.5259519 10.17093,20.4768949 9.86923814,20.6729519 C9.86923814,20.6729519 9.29439977,20.9196042 9.16415093,21.3655612 C9.16415093,21.3655612 9.09680442,21.9405705 9.64908,21.6983623 C9.64908,21.6983623 10.2750265,21.3018042 10.4854416,21.1223274 C10.4854416,21.1223274 10.528687,21.6489635 10.829866,21.8186972 C10.829866,21.8186972 10.5758637,21.8373286 10.3603207,21.7925449 C10.3603207,21.7925449 9.74719395,21.7366507 9.73642535,22.0198821 C9.73642535,22.0198821 9.74668116,22.1024414 9.87983581,22.0497949 C9.87983581,22.0497949 10.2637451,21.9509972 10.4372393,22.0316763 C10.4372393,22.0316763 12.1593614,22.1932053 13.0661463,21.4354716 C13.0661463,21.4354716 13.1854556,21.272746 13.4762079,21.3600914 C13.4762079,21.3600914 13.4047591,20.9792588 12.4345591,20.6794472 L12.4345591,20.6794472 Z" id="Fill-57" fill="#26AF85"></path>
                <path d="M12.4253288,27.3605972 C12.4253288,27.3605972 12.8442788,27.6079333 13.238273,27.3718786 C13.238273,27.3718786 13.7353381,27.0001053 14.1689881,27.2048798 C14.1689881,27.2048798 14.4587149,27.2465867 14.6669079,27.1371914 C14.6669079,27.1371914 14.6759672,27.054803 14.855273,27.0305309 C14.855273,27.0305309 16.3109149,26.9949774 17.0033533,27.1647112 C17.0033533,27.1647112 17.2559881,27.2318867 17.5212719,27.0942879 C17.5212719,27.0942879 18.0945719,26.8339612 17.9964579,27.4558053 C17.9964579,27.4558053 17.9646649,27.5209298 17.7973242,27.4828123 C17.7973242,27.4828123 17.5421253,27.3958088 16.7558463,28.0301309 C16.7558463,28.0301309 16.4514195,28.4771135 15.872137,28.3935286 C15.872137,28.3935286 16.8806253,28.0537193 16.9471172,27.4968286 C16.9471172,27.4968286 14.5287963,28.2108042 13.182037,27.703996 C13.182037,27.703996 13.2240858,28.6111228 14.3638486,28.6389844 C14.3638486,28.6389844 14.9785137,28.5352298 15.0173149,28.671803 C15.0173149,28.671803 15.0282544,28.7516274 14.5990486,28.7287228 C14.5990486,28.7287228 14.2724009,28.7123135 14.0161765,28.767353 C14.0161765,28.767353 13.2591265,28.8700821 12.7492416,27.8034774 C12.7492416,27.8034774 12.7591556,27.5788751 12.5174602,27.591524 C12.5174602,27.591524 12.3246509,27.5163147 12.4253288,27.3605972" id="Fill-59" fill="#26AF85"></path>
                <path d="M14.3092364,29.1332463 C14.3092364,29.1332463 14.1670224,29.1322207 14.2620597,29.3829753 C14.2620597,29.3829753 14.3977783,29.4862172 14.4456387,29.540744 C14.4456387,29.540744 14.530762,29.5696312 14.6249445,29.5163009 C14.6249445,29.5163009 14.9780864,29.4277591 15.0857724,29.4740812 C15.0857724,29.4740812 15.3129387,29.503994 15.3149899,29.219737 C15.3149899,29.219737 15.145769,29.0195777 14.7273317,29.0763265 C14.7273317,29.0763265 14.4875166,29.2510172 14.3092364,29.1332463" id="Fill-61" fill="#26AF85"></path>
                <path d="M15.8534372,25.185322 C15.8534372,25.185322 16.0375291,25.3359115 15.6695163,25.4027452 C15.6695163,25.4027452 15.4016686,25.4027452 15.3180837,25.3526627 C15.3180837,25.3526627 14.8830663,25.285658 14.4480488,25.4027452 C14.4480488,25.4027452 13.6617698,25.587008 13.6282674,25.1017371 C13.6282674,25.1017371 13.6115163,24.9343964 13.879193,24.8675627 C13.879193,24.8675627 14.0465337,24.7838069 14.2808791,24.8675627 C14.2808791,24.8675627 14.4983023,24.9343964 14.665643,24.9008941 C14.665643,24.9008941 15.1842453,24.800558 15.8534372,25.185322" id="Fill-63" fill="#26AF85"></path>
                <path d="M4.93243116,58.7538488 L2.72469628,58.7538488 L2.72469628,55.6065105 C2.06695674,56.1702384 1.40938814,56.6399547 0.751648605,57.0156593 L6.8372093e-05,54.666907 C0.907878837,54.2286419 1.81603116,53.6650849 2.72469628,52.9757233 L2.72469628,51.7544267 L1.40938814,52.3651605 L6.8372093e-05,49.1236395 L1.83192767,48.2310419 L2.72469628,50.063243 L2.72469628,47.3386151 L4.93243116,47.3386151 L4.93243116,58.7538488 Z" id="Fill-65" fill="#26AF85"></path>
                <polygon id="Fill-67" fill="#26AF85" points="5.16746023 50.439016 7.2343486 50.439016 7.2343486 47.3856893 9.53626605 47.3856893 9.53626605 50.4860219 11.5561486 50.4860219 11.5561486 52.7409335 9.53626605 52.7409335 9.53626605 55.9822835 11.3212905 55.9822835 11.3212905 58.1901893 5.49615907 58.1901893 5.49615907 55.9822835 7.2343486 55.9822835 7.2343486 52.7409335 5.16746023 52.7409335"></polygon>
                <path d="M16.3982773,47.1976831 L17.0088401,48.4191506 L17.6197448,48.4191506 L17.6197448,47.244518 L19.733639,47.244518 L19.733639,48.4191506 L20.4850483,48.4191506 C20.6099983,48.1689087 20.735461,47.8082459 20.8609238,47.3385297 L23.0218238,47.5265529 C22.9587506,47.9338797 22.8809773,48.2311273 22.7869657,48.4191506 L24.2902971,48.4191506 L24.2902971,51.4724773 L22.1764029,51.4724773 L22.1764029,50.0161517 L15.2706506,50.0161517 L15.2706506,51.4724773 L13.1099215,51.4724773 L13.1099215,48.4191506 L14.5660762,48.4191506 L14.2372064,47.761411 L16.3982773,47.1976831 Z" id="Fill-69" fill="#26AF85"></path>
                <path d="M18.1833701,52.5060412 C20.312648,52.3812621 21.8159794,52.2241772 22.6930224,52.0363249 L23.2567503,53.2576214 C23.0056538,53.3514621 21.9722097,53.4454737 20.1562469,53.5394853 L19.9213887,53.5394853 L19.9213887,53.7743435 L23.5386143,53.7743435 L23.5386143,55.0428167 L19.9213887,55.0428167 L19.9213887,55.3245098 L24.0083306,55.3245098 L24.0083306,56.874847 L19.9213887,56.874847 C19.9213887,57.6888167 19.8113097,58.1901551 19.592519,58.3781784 C19.4048376,58.5967981 18.8717062,58.7068772 17.9953469,58.7068772 L16.5860271,58.7068772 L15.8814527,57.2035458 L17.2437666,57.2035458 C17.6504097,57.2351679 17.838262,57.1257726 17.8074945,56.874847 L13.1568248,56.874847 L13.1568248,55.3245098 L17.8074945,55.3245098 L17.8074945,55.0428167 L13.7675585,55.0428167 L13.7675585,53.7743435 L17.8074945,53.7743435 L17.8074945,53.5394853 L14.1904399,53.5394853 L13.7205527,52.5060412 C14.7541678,52.6000528 16.2412608,52.6000528 18.1833701,52.5060412" id="Fill-71" fill="#26AF85"></path>
                <mask id="mask-2" fill="white">
                    <use xlink:href="#path-1"></use>
                </mask>
                <g id="Clip-74"></g>
                <path d="M17.5726535,51.425557 L19.7805593,51.425557 L19.7805593,51.0966872 L17.5726535,51.0966872 L17.5726535,51.425557 Z M15.6466116,52.0832965 L21.8944535,52.0832965 L21.8944535,50.2982721 L15.6466116,50.2982721 L15.6466116,52.0832965 Z" id="Fill-73" fill="#26AF85" mask="url(#mask-2)"></path>
                <path d="M29.977898,52.271183 L29.4611759,51.7544609 L29.977898,51.7544609 L29.977898,52.271183 Z M34.4405445,50.8618633 L34.4405445,50.3449702 L36.6954562,50.3449702 L36.6954562,48.2782528 L34.4405445,48.2782528 L34.4405445,47.3386493 L32.2796445,47.3386493 L32.2796445,48.2782528 L30.4944492,48.2782528 L30.4944492,50.3449702 L32.2796445,50.3449702 L32.2796445,50.8618633 L30.2127562,50.8618633 L30.2127562,49.6403958 L29.3671643,49.6403958 L29.3671643,47.3386493 L27.2532701,47.3386493 L27.2532701,49.5935609 L25.8909562,49.5935609 L25.8909562,51.7544609 L27.0652469,51.7544609 C26.8773945,52.4120295 26.4076783,53.1796772 25.656098,54.0562074 L26.4076783,56.4519656 C26.7835538,56.2333458 27.0652469,55.9984877 27.2532701,55.7473912 L27.2532701,58.6598714 L29.3671643,58.6598714 L29.3671643,54.4790888 L29.8368806,54.99564 L30.4006085,52.7877342 L37.0243259,52.7877342 L37.0243259,50.8618633 L34.4405445,50.8618633 Z" id="Fill-75" fill="#26AF85" mask="url(#mask-2)"></path>
                <polygon id="Fill-76" fill="#26AF85" mask="url(#mask-2)" points="32.2327071 53.8214006 32.2327071 53.0226436 34.4406129 53.0226436 34.4406129 53.8214006 36.6015129 53.8214006 36.6015129 55.8412831 34.3936071 55.8412831 34.3936071 56.4520169 37.0714001 56.4520169 37.0714001 58.5189052 29.836778 58.5189052 29.836778 56.4520169 32.2327071 56.4520169 32.2327071 55.8412831 30.2596594 55.8412831 30.2596594 53.8214006"></polygon>
            </g>
        </g>
    </g>
</svg>