<?xml version="1.0" encoding="UTF-8"?>
<svg width="90px" height="90px" viewBox="0 0 90 90" version="1.1" xmlns="http://www.w3.org/2000/svg" xmlns:xlink="http://www.w3.org/1999/xlink">
    <!-- Generator: Sketch 60.1 (88133) - https://sketch.com -->
    <title>广东省</title>
    <desc>Created with Sketch.</desc>
    <g id="广东省" stroke="none" stroke-width="1" fill="none" fill-rule="evenodd">
        <g>
            <rect id="矩形备份" stroke="#EBEBEB" x="0" y="0" width="90" height="90" rx="45"></rect>
            <g id="编组-72" transform="translate(24.000000, 25.000000)">
                <path d="M10.1866786,4.97379915e-13 C28.2034862,4.97379915e-13 37.4796319,4.97379915e-13 38.0151157,4.97379915e-13 C38.8183413,4.97379915e-13 39.5434086,0.278958062 39.5434086,1.78568222 C39.381913,2.87255481 39.2178192,3.80349949 39.0511272,4.57851624 C23.2650725,4.57851624 15.0367886,4.57851624 14.3662755,4.57851624 C13.3605058,4.57851624 12.8533509,5.17735398 12.6125727,6.53719109 C12.4520538,7.44374917 11.9270138,10.3409393 11.0374528,15.2287614 L4.88187446,19.8774887 C6.77834896,8.47935652 7.80809736,2.44875437 7.97111966,1.78568222 C8.29018191,0.75877574 9.02870155,0.163548334 10.1866786,4.97379915e-13 Z" id="路径-146" fill="#00ADF8"></path>
                <path d="M15.2700503,7.11583463 L38.5719127,7.11583463 L35.6397809,24.6849111 C35.2291384,26.3374872 34.141396,27.1637752 32.3765536,27.1637752 C30.6117113,27.1637752 23.7517597,27.1637752 11.7966989,27.1637752 L26.2400293,18.2716234 L29.8604676,26.3785114 L32.3765536,10.9926243 L7.25351569,27.1637752 C6.01865032,27.5409851 5.09511083,27.355978 4.48289721,26.6087539 C3.8706836,25.8615298 3.79910482,24.8041999 4.26816086,23.4367641 L20.326754,11.4946044 L15.2700503,7.11583463 Z" id="路径-147" fill="#8CD400"></path>
                <path d="M0.660440704,29.6804475 L1.42108547e-14,32.1100778 L5.5793089,32.1100778 L3.61927516,36.9255095 C20.6210943,36.9255095 29.3754608,36.9255095 29.8823747,36.9255095 C30.6427456,36.9255095 31.0605747,37.5041171 31.0605747,38.1281461 C31.0605747,38.7521751 31.0605747,40.2426988 29.5765474,40.2426988 C28.5871958,40.2426988 22.926661,40.2426988 12.5949429,40.2426988 L12.0583366,42.8265507 C23.210805,42.8265507 29.0502085,42.8265507 29.5765474,42.8265507 C30.3660556,42.8265507 33.1046047,41.736563 33.6240363,39.7435112 C34.143468,37.7504593 34.0852127,35.1219626 31.4708798,34.4397717 C30.2769957,34.4383718 22.3609141,34.4383718 7.72263487,34.4397717 L8.56935512,32.1100778 L37.3240729,32.1100778 L37.841479,29.6804475 L0.660440704,29.6804475 Z" id="路径-148" fill="#7D777E"></path>
            </g>
        </g>
    </g>
</svg>