<?xml version="1.0" encoding="UTF-8"?>
<svg width="90px" height="90px" viewBox="0 0 90 90" version="1.1" xmlns="http://www.w3.org/2000/svg" xmlns:xlink="http://www.w3.org/1999/xlink">
    <!-- Generator: Sketch 60.1 (88133) - https://sketch.com -->
    <title>西藏</title>
    <desc>Created with Sketch.</desc>
    <g id="西藏" stroke="none" stroke-width="1" fill="none" fill-rule="evenodd">
        <g>
            <rect id="矩形备份-9" stroke="#EBEBEB" x="0" y="0" width="90" height="90" rx="45"></rect>
            <g id="编组-119" transform="translate(24.000000, 21.000000)" fill="#0758D8">
                <path d="M11.5698286,5.92880243 C8.15480148,5.92880243 6.77180629,5.63020249 8.36700874,3.38483161 C9.96221119,1.13946072 12.7822618,-8.97060204e-14 13.7023857,-8.97060204e-14 C14.6225097,-8.97060204e-14 21.3133291,4.7826316 23.0034449,9.25160722 C19.4776944,9.23479024 14.9848557,5.92880243 11.5698286,5.92880243 Z" id="路径-229"></path>
                <path d="M24.1994055,7.86587496 C26.5180812,3.87869998 28.7688059,1.88511249 30.9515797,1.88511249 C34.2257404,1.88511249 42.3067936,2.85956988 44.6060932,0.844049692 C46.9053928,-1.17147049 42.3798577,6.52973 35.187684,6.72066552 C30.3929016,6.84795587 26.7301421,7.22969235 24.1994055,7.86587496 Z" id="路径-230"></path>
                <rect id="矩形" x="8.90431369" y="10.4110619" width="11.96" height="2.76"></rect>
                <rect id="矩形备份-75" x="7.98431369" y="16.8510619" width="30.36" height="2.76"></rect>
                <rect id="矩形备份-73" x="25.4643137" y="10.4110619" width="11.96" height="2.76"></rect>
                <rect id="矩形备份-77" x="26.3843137" y="21.4510619" width="11.96" height="2.76"></rect>
                <rect id="矩形" x="13.5043137" y="8.5710619" width="2.76" height="6.44"></rect>
                <rect id="矩形备份-76" x="6.14431369" y="16.8510619" width="2.76" height="18.4"></rect>
                <rect id="矩形备份-74" x="30.0643137" y="8.5710619" width="2.76" height="6.44"></rect>
                <path d="M6.14431369,35.2510619 L6.14431369,32.5174941 C3.35725652,32.4771692 1.70528183,33.7949532 1.18838962,36.4708462 C0.413051307,40.4846856 1.18838962,46.2047869 1.18838962,46.2047869 C1.42041967,42.7614265 1.9071221,40.2128697 2.6484969,38.5591166 C3.38987171,36.9053634 4.55514398,35.8026785 6.14431369,35.2510619 Z" id="路径-231"></path>
                <path d="M12.0834671,27.5842332 L12.0834671,20.9910619 L24.1994055,20.9910619 C24.1706909,25.8137336 24.1706909,31.412536 24.1994055,37.787469 C23.4674718,27.6735358 22.9524662,25.3240062 21.3642811,24.2091491 C19.7760959,23.0942919 16.2643137,23.0229685 14.8843137,24.2091491 C13.9643137,24.9999361 13.0306982,26.1249642 12.0834671,27.5842332 Z" id="路径-232"></path>
                <path d="M12.1182826,31.161517 C11.6644073,32.3081741 12.0299074,34.3802228 15.3129464,34.3802228 C18.5959855,34.3802228 24.420578,38.5054485 24.420578,40.2743579 C23.4287013,36.0626191 22.0278044,33.4562829 20.2178875,32.4553493 C17.5030122,30.9539489 12.5721578,30.01486 12.1182826,31.161517 Z" id="路径-233"></path>
                <path d="M10.9133706,41.4629096 C10.9133706,42.3249456 13.7413738,42.9875977 13.7413738,41.4629096 C13.7413738,39.9382214 13.0693339,37.6185758 10.2303671,36.84894 C7.39140025,36.0793042 4.20784038,37.6185758 4.20784038,41.0248821 C4.20784038,44.4311884 5.14737982,47.708095 9.17068688,48.034736 C13.1939939,48.3613771 12.9542974,45.9755245 16.0572785,45.1522757 C19.1602597,44.3290269 24.1479096,44.0181665 25.3261273,45.5083798 C23.0854727,43.0968565 20.6993296,42.0657828 18.1676979,42.4151587 C14.3702504,42.9392226 15.2111248,44.2187665 11.4725367,44.6855211 C8.98014464,44.9966909 7.52315263,44.1279723 7.10156065,42.0793656 C6.89019185,40.6444212 7.40655639,39.7165049 8.65065426,39.2956167 C10.5168011,38.6642844 10.9133706,40.6008735 10.9133706,41.4629096 Z" id="路径-234"></path>
                <path d="M0.0848861731,18.5878066 C1.96330474,22.192044 3.80643151,24.0055952 6.14431369,24.0525681 L6.26169706,27.597903 C1.60119097,26.7885112 -0.457745988,23.7851457 0.0848861731,18.5878066 Z" id="路径-235"></path>
                <path d="M31.9794563,24.2110619 C29.8982326,26.3078406 28.6527197,28.1111664 28.2429177,29.6210392 C27.8301507,26.9141342 27.8034663,24.3678164 28.2429177,23.8757175 C28.5358853,23.5476515 29.7813981,23.659433 31.9794563,24.2110619 Z" id="路径-236"></path>
                <path d="M27.3166562,30.9639141 L27.3166562,34.2597993 C31.8390626,33.4876342 34.5913231,34.9342017 35.5734376,38.5995017 C36.5555521,42.2648017 37.3604917,46.0781882 37.9882565,50.0396611 C38.2945262,41.7170101 37.8343203,36.4570561 36.6076388,34.2597993 C35.3809573,32.0625425 32.2839631,30.9639141 27.3166562,30.9639141 Z" id="路径-237"></path>
            </g>
        </g>
    </g>
</svg>