<?xml version="1.0" encoding="UTF-8"?>
<svg width="90px" height="90px" viewBox="0 0 90 90" version="1.1" xmlns="http://www.w3.org/2000/svg" xmlns:xlink="http://www.w3.org/1999/xlink">
    <!-- Generator: Sketch 60.1 (88133) - https://sketch.com -->
    <title>重庆市</title>
    <desc>Created with Sketch.</desc>
    <defs>
        <linearGradient x1="50%" y1="0%" x2="50%" y2="94.9654285%" id="linearGradient-1">
            <stop stop-color="#4AA9E9" offset="0%"></stop>
            <stop stop-color="#CEE7FC" offset="100%"></stop>
        </linearGradient>
        <linearGradient x1="50%" y1="0%" x2="50%" y2="100%" id="linearGradient-2">
            <stop stop-color="#72A7EB" offset="0%"></stop>
            <stop stop-color="#C2E2FB" offset="100%"></stop>
        </linearGradient>
    </defs>
    <g id="重庆市" stroke="none" stroke-width="1" fill="none" fill-rule="evenodd">
        <g>
            <rect id="矩形备份" stroke="#EBEBEB" x="0" y="0" width="90" height="90" rx="45"></rect>
            <g id="编组-113" transform="translate(16.000000, 22.000000)">
                <path d="M10.2599718,8.60828159 L21.6430568,5.12066306 L21.6430568,27.7617571 C16.8718744,28.5616157 13.0775128,29.7621877 10.2599718,31.3634731 C10.2205017,16.403243 10.2205017,8.81817911 10.2599718,8.60828159 Z" id="路径-204" fill="url(#linearGradient-1)"></path>
                <path d="M23.2933532,3.40920102 L34.3152156,2.13162821e-14 L34.3152156,28.0468048 C30.6374713,27.4368005 26.9635172,27.4368005 23.2933532,28.0468048 C23.2781925,12.0036289 23.2781925,3.79109427 23.2933532,3.40920102 Z" id="路径-205" fill="#AAD8FD"></path>
                <path d="M36.0018063,8.56007321 L47.8325825,5.12066306 L47.8325825,30.0873872 C44.5271467,28.7269989 40.5835546,28.0468048 36.0018063,28.0468048 C36.0100255,15.2757409 36.0100255,8.78016369 36.0018063,8.56007321 Z" id="路径-206" fill="url(#linearGradient-2)"></path>
                <path d="M45.8651665,31.3634731 C29.9835507,28.1791875 15.9065706,29.5326474 3.63422619,35.4238528 L9.09494702e-13,41.4575211 C7.11694946,37.3918564 13.8439795,34.6616854 20.1810902,33.2670082 C26.5182009,31.8723311 35.0795597,31.2378194 45.8651665,31.3634731 Z" id="路径-207" fill="#ECCA38"></path>
                <path d="M57.9136102,37.4809966 C43.9339028,32.023264 30.1609089,31.3871161 16.5946284,35.5725528 L12.9604022,41.6062212 C17.4073442,39.3350978 23.3130627,37.6556606 30.6775578,36.5679097 C38.042053,35.4801589 47.1207371,35.7845212 57.9136102,37.4809966 Z" id="路径-207备份" fill="#6BCBD4" transform="translate(35.437006, 37.226929) scale(-1, 1) translate(-35.437006, -37.226929) "></path>
                <path d="M12.5783133,26.5642234 C15.7885851,23.3031792 21.2214126,21.6726571 28.8767956,21.6726571 C36.5321786,21.6726571 42.0304239,23.3031792 45.3715315,26.5642234" id="路径-208备份-2" stroke="#4D73B5" stroke-width="2.44578313" stroke-linecap="round"></path>
                <ellipse id="椭圆形" fill="#4D73B5" cx="29.2261932" cy="8.39554869" rx="1.92168675" ry="2.44578313"></ellipse>
                <path d="M17.5213739,16.1910231 C21.4812133,14.361621 25.4410526,13.4469199 29.400892,13.4469199 C33.3607313,13.4469199 37.3205707,14.361621 41.28041,16.1910231" id="路径-208" stroke="#4D73B5" stroke-width="1.74698795" stroke-linecap="round"></path>
                <path d="M16.1237835,19.8745917 C20.4330205,18.0451895 24.7422574,17.1304885 29.0514944,17.1304885 C33.3607313,17.1304885 37.6699683,18.0451895 41.9792052,19.8745917" id="路径-208备份" stroke="#4D73B5" stroke-width="2.09638554" stroke-linecap="round"></path>
            </g>
        </g>
    </g>
</svg>