<?xml version="1.0" encoding="UTF-8"?>
<svg width="90px" height="90px" viewBox="0 0 90 90" version="1.1" xmlns="http://www.w3.org/2000/svg" xmlns:xlink="http://www.w3.org/1999/xlink">
    <!-- Generator: Sketch 60.1 (88133) - https://sketch.com -->
    <title>秦务员</title>
    <desc>Created with Sketch.</desc>
    <defs>
        <linearGradient x1="100%" y1="26.6340366%" x2="0%" y2="73.3659634%" id="linearGradient-1">
            <stop stop-color="#FD8B00" offset="0%"></stop>
            <stop stop-color="#D12400" offset="100%"></stop>
        </linearGradient>
    </defs>
    <g id="秦务员" stroke="none" stroke-width="1" fill="none" fill-rule="evenodd">
        <rect id="矩形备份-3" stroke="#EBEBEB" x="0.5" y="0.5" width="89" height="89" rx="44.5"></rect>
        <g id="编组-176" transform="translate(20.000000, 28.000000)">
            <path d="M13.5,0 L41.5,0 L41.5,0 C41.5,14.9116882 29.4116882,27 14.5,27 L0.5,27 L0.5,27 L0.5,13 C0.5,5.82029825 6.32029825,-4.57467025e-16 13.5,0 Z" id="矩形" fill="#C39D7A"></path>
            <path d="M21.5,7 L49.5,7 L49.5,7 C49.5,21.9116882 37.4116882,34 22.5,34 L8.5,34 L8.5,34 L8.5,20 C8.5,12.8202983 14.3202983,7 21.5,7 Z" id="矩形备份-206" fill="#EE6D00" transform="translate(29.000000, 20.500000) scale(-1, -1) translate(-29.000000, -20.500000) "></path>
            <path d="M12.936574,27.999897 L9.14051771,27.9990615 C12.155642,15.9357578 23.0660362,7 36.0634885,7 L39.8597474,7.00002471 C36.8449094,19.0637389 25.9343175,27.999897 12.936574,27.999897 Z" id="形状结合" fill="url(#linearGradient-1)"></path>
        </g>
    </g>
</svg>