<?xml version="1.0" encoding="UTF-8"?>
<svg width="86px" height="86px" viewBox="0 0 86 86" version="1.1" xmlns="http://www.w3.org/2000/svg" xmlns:xlink="http://www.w3.org/1999/xlink">
    <!-- Generator: Sketch 57.1 (83088) - https://sketch.com -->
    <title>编组</title>
    <desc>Created with Sketch.</desc>
    <defs>
        <circle id="path-1" cx="42" cy="42" r="42"></circle>
    </defs>
    <g id="页面-1" stroke="none" stroke-width="1" fill="none" fill-rule="evenodd">
        <g id="画板" transform="translate(-124.000000, -16.000000)">
            <g id="编组" transform="translate(125.000000, 17.000000)">
                <mask id="mask-2" fill="white">
                    <use xlink:href="#path-1"></use>
                </mask>
                <use id="蒙版" stroke="#F0F0F0" fill="#FFFFFF" xlink:href="#path-1"></use>
                <path d="M39.602,25.206 L39.602,34.952 L32.364,34.952 L32.364,41.2 L30.098,41.2 L30.098,34.952 L22.728,34.952 L22.728,25.206 L30.098,25.206 L30.098,21.246 L32.364,21.334 L32.364,25.206 L39.602,25.206 Z M25.038,32.796 L30.098,32.796 L30.098,27.428 L25.038,27.428 L25.038,32.796 Z M37.314,32.796 L37.314,27.428 L32.364,27.428 L32.364,32.796 L37.314,32.796 Z M44.134,22.038 L61.58,22.038 L61.58,41.244 L59.38,41.244 L59.38,40.298 L46.312,40.298 L46.312,41.222 L44.134,41.222 L44.134,22.038 Z M46.312,38.252 L59.38,38.252 L59.38,24.084 L46.312,24.084 L46.312,38.252 Z M56.63,34.754 L58.676,34.754 L58.676,36.712 L46.994,36.712 L46.994,34.754 L51.834,34.754 L51.834,31.674 L47.83,31.674 L47.83,29.76 L51.834,29.76 L51.834,27.538 L47.522,27.538 L47.522,25.668 L58.17,25.668 L58.17,27.538 L53.836,27.538 L53.836,29.76 L57.928,29.76 L57.928,31.674 L56.124,31.674 C56.674,32.312 57.334,33.17 57.708,33.72 L56.63,34.754 Z M53.836,31.674 L53.836,34.754 L56.256,34.754 C55.794,34.006 55.002,32.95 54.54,32.444 L55.508,31.674 L53.836,31.674 Z M31.638,56.138 L27.92,56.138 L27.92,60.912 C27.92,62.628 27.48,62.87 25.522,63.112 L24.686,63.222 L24.004,61.088 L24.862,60.978 C25.654,60.868 25.874,60.692 25.874,59.922 L25.874,56.138 L21.914,56.138 L21.914,54.202 L25.874,54.202 L25.874,52.178 L21.65,52.178 L21.65,50.264 L23.982,50.264 C23.894,49.318 23.784,48.064 23.674,47.184 L22.222,47.184 L22.222,45.292 L25.808,45.292 L25.28,43.378 L27.282,43.114 C27.458,43.62 27.7,44.478 27.942,45.292 L31.484,45.292 L31.484,47.184 L30.164,47.184 L29.834,50.264 L31.968,50.264 L31.968,52.178 L27.92,52.178 L27.92,54.202 L31.638,54.202 L31.638,56.138 Z M40.944,50.484 L40.944,52.552 L38.722,52.552 L38.722,63.068 L36.632,63.068 L36.632,52.552 L34.432,52.552 C34.432,57.942 34.058,60.252 31.814,63.552 L29.812,62.54 C31.99,59.526 32.386,57.436 32.386,52.09 L32.386,45.16 C34.916,44.918 37.754,44.324 39.624,43.62 L40.306,45.754 C38.788,46.348 36.456,46.92 34.432,47.162 L34.432,50.484 L40.944,50.484 Z M28.228,47.184 L25.588,47.184 C25.698,48.13 25.83,49.318 25.918,50.264 L27.876,50.264 C28.03,49.318 28.162,48.13 28.228,47.184 Z M23.52,56.336 L25.28,57.04 C24.62,58.646 23.498,60.736 22.552,62.034 L20.946,61.066 C21.87,59.856 22.992,57.964 23.52,56.336 Z M31.594,59.328 L30.12,60.604 C29.702,59.724 28.602,58.206 28.008,57.436 L29.482,56.38 C30.12,57.15 31.066,58.448 31.594,59.328 Z M43.782,45.776 L43.782,43.994 L49.634,43.994 L49.634,49.318 L46.004,49.318 L45.872,51.254 L49.568,51.254 C49.568,52.09 49.436,59.944 49.436,60.758 C49.37,62.518 48.776,62.87 46.884,63.046 L45.388,63.178 L44.816,61.352 L46.246,61.22 C47.346,61.11 47.5,60.978 47.61,60.076 C47.698,59.46 47.83,53.586 47.83,52.97 L43.804,52.97 L44.156,47.624 L47.61,47.624 L47.61,45.776 L43.782,45.776 Z M61.866,44.038 L61.866,45.688 L50.47,45.688 L50.47,44.038 L61.866,44.038 Z M61.338,51.518 L50.69,51.518 L50.69,46.502 L61.338,46.502 L61.338,51.518 Z M55.134,47.668 L52.648,47.668 L52.648,48.438 L55.134,48.438 L55.134,47.668 Z M59.38,48.438 L59.38,47.668 L56.916,47.668 L56.916,48.438 L59.38,48.438 Z M52.648,49.538 L52.648,50.374 L55.134,50.374 L55.134,49.538 L52.648,49.538 Z M56.916,50.374 L59.38,50.374 L59.38,49.538 L56.916,49.538 L56.916,50.374 Z M62.394,52.42 L62.394,53.894 L49.744,53.894 L49.744,52.42 L62.394,52.42 Z M47.39,57.436 L47.434,58.954 C46.796,59.064 43.782,59.614 43.078,59.79 L42.968,58.272 C43.232,58.206 43.98,58.096 44.794,57.942 L44.794,56.226 L43.474,56.226 L43.474,54.73 L44.794,54.73 L44.794,53.3 L46.29,53.388 L46.29,54.73 L47.478,54.73 L47.478,56.226 L46.29,56.226 L46.29,57.656 L47.39,57.436 Z M61.426,60.076 L50.58,60.076 L50.58,54.73 L61.426,54.73 L61.426,60.076 Z M55.134,55.94 L52.582,55.94 L52.582,56.754 L55.134,56.754 L55.134,55.94 Z M59.468,56.754 L59.468,55.94 L56.916,55.94 L56.916,56.754 L59.468,56.754 Z M52.582,57.92 L52.582,58.822 L55.134,58.822 L55.134,57.92 L52.582,57.92 Z M56.916,58.822 L59.468,58.822 L59.468,57.92 L56.916,57.92 L56.916,58.822 Z M49.722,60.978 L62.614,60.978 L62.614,62.54 L49.722,62.54 L49.722,60.978 Z" id="中国新疆" fill="#D2160D" fill-rule="nonzero" mask="url(#mask-2)"></path>
            </g>
        </g>
    </g>
</svg>