<?xml version="1.0" encoding="UTF-8"?>
<svg width="90px" height="90px" viewBox="0 0 90 90" version="1.1" xmlns="http://www.w3.org/2000/svg" xmlns:xlink="http://www.w3.org/1999/xlink">
    <!-- Generator: Sketch 60.1 (88133) - https://sketch.com -->
    <title>宁夏</title>
    <desc>Created with Sketch.</desc>
    <g id="宁夏" stroke="none" stroke-width="1" fill="none" fill-rule="evenodd">
        <g>
            <rect id="矩形备份-9" stroke="#EBEBEB" x="0" y="0" width="90" height="90" rx="45"></rect>
            <path d="M40.9577206,42.0680147 C43.0533088,42.0680147 44.1011029,40.9099265 44.1011029,38.59375 L44.1011029,38.59375 L41.6194853,38.59375 C41.6194853,39.3658088 41.3161765,39.7518382 40.7095588,39.7518382 C39.9926471,39.7518382 39.4136029,39.0900735 38.9724265,37.7665441 C40.9025735,36.3327206 42.4742647,34.1268382 43.6875,31.1488971 L43.6875,31.1488971 L40.3786765,31.1488971 C39.7169118,32.4724265 39.0275735,33.5753676 38.3106618,34.4577206 C38.1452206,33.2996324 38.0349265,31.9761029 37.9797794,30.4871324 L37.9797794,30.4871324 L44.1011029,30.4871324 L44.1011029,28.0882353 L37.9797794,28.0882353 C37.9246324,26.5992647 37.9246324,24.8621324 37.9797794,22.8768382 L37.9797794,22.8768382 L34.4227941,22.8768382 C34.4227941,25.2481618 34.4503676,26.9852941 34.5055147,28.0882353 L34.5055147,28.0882353 L31.6102941,28.0882353 L31.6102941,26.1856618 C32.3272059,26.0753676 32.9613971,25.9650735 33.5128676,25.8547794 C33.6783088,25.7996324 33.8161765,25.7720588 33.9264706,25.7720588 L33.9264706,25.7720588 L33.9264706,23.2904412 C32.5477941,23.6764706 31.3069853,23.8694853 30.2040441,23.8694853 L30.2040441,23.8694853 L25.40625,23.8694853 L25.40625,26.1856618 L28.1360294,26.1856618 L28.1360294,28.0882353 L25.0753676,28.0882353 L25.0753676,30.4871324 L28.1360294,30.4871324 L28.1360294,33.4650735 C27.8051471,33.5202206 27.28125,33.5477941 26.5643382,33.5477941 C25.9577206,33.6029412 25.4613971,33.6305147 25.0753676,33.6305147 L25.0753676,33.6305147 L25.0753676,36.4430147 C26.1231618,36.3327206 27.1433824,36.25 28.1360294,36.1948529 L28.1360294,36.1948529 L28.1360294,38.7591912 C28.1360294,39.3658088 27.8327206,39.6691176 27.2261029,39.6691176 L27.2261029,39.6691176 L26.3161765,39.6691176 L26.3161765,41.8198529 L28.8805147,41.8198529 C30.7003676,41.8198529 31.6102941,40.9375 31.6102941,39.1727941 L31.6102941,39.1727941 L31.6102941,35.5330882 C31.7205882,35.4779412 31.9136029,35.4227941 32.1893382,35.3676471 C33.0716912,35.0919118 33.7610294,34.8713235 34.2573529,34.7058824 L34.2573529,34.7058824 L34.2573529,32.4724265 C33.8713235,32.5275735 33.3198529,32.6378676 32.6029412,32.8033088 C32.1617647,32.9136029 31.8308824,32.9963235 31.6102941,33.0514706 L31.6102941,33.0514706 L31.6102941,30.4871324 L34.6709559,30.4871324 C34.78125,32.2518382 34.9466912,33.7683824 35.1672794,35.0367647 C35.2224265,35.1470588 35.2775735,35.3400735 35.3327206,35.6158088 C35.4430147,36.2224265 35.5533088,36.6636029 35.6636029,36.9393382 C34.78125,37.4908088 33.7610294,38.0698529 32.6029412,38.6764706 L32.6029412,38.6764706 L32.6029412,40.9099265 C32.7132353,40.8547794 32.8786765,40.7996324 33.0992647,40.7444853 C34.7536765,40.1378676 35.9117647,39.6691176 36.5735294,39.3382353 C37.5661765,41.1580882 39.0275735,42.0680147 40.9577206,42.0680147 Z M43.0257353,27.34375 C42.8051471,26.0202206 42.4191176,24.7518382 41.8676471,23.5386029 L41.8676471,23.5386029 L38.8897059,23.5386029 C39.4411765,24.8621324 39.7444853,26.1305147 39.7996324,27.34375 L39.7996324,27.34375 L43.0257353,27.34375 Z M61.96875,41.6544118 C64.0091912,41.7095588 65.0018382,40.7720588 64.9466912,38.8419118 L64.9466912,38.8419118 L64.9466912,24.9448529 L60.3970588,24.9448529 C60.3970588,24.7794118 60.4522059,24.53125 60.5625,24.2003676 C60.6176471,23.7040441 60.6727941,23.3180147 60.7279412,23.0422794 L60.7279412,23.0422794 L57.4191176,23.0422794 C57.2536765,25.2481618 56.6470588,26.8198529 55.5992647,27.7573529 L55.5992647,27.7573529 L55.5992647,29.8253676 C57.2536765,29.2738971 58.4669118,28.4466912 59.2389706,27.34375 L59.2389706,27.34375 L61.5551471,27.34375 L61.5551471,38.3455882 C61.6102941,39.1727941 61.2518382,39.5588235 60.4797794,39.5036765 L60.4797794,39.5036765 L58.9080882,39.5036765 L58.9080882,41.6544118 L61.96875,41.6544118 Z M52.6213235,41.3235294 C54.4963235,41.3786765 55.40625,40.4411765 55.3511029,38.5110294 L55.3511029,38.5110294 L55.3511029,25.2757353 L52.5386029,25.2757353 C52.7040441,24.6139706 52.8694853,23.8970588 53.0349265,23.125 L53.0349265,23.125 L49.6433824,23.125 C49.6433824,23.2352941 49.6158088,23.4283088 49.5606618,23.7040441 C49.3952206,24.4209559 49.2573529,24.9448529 49.1470588,25.2757353 L49.1470588,25.2757353 L46.7481618,25.2757353 L46.7481618,41.3235294 L52.6213235,41.3235294 Z M52.125,31.8933824 L49.9742647,31.8933824 L49.9742647,27.5919118 L52.125,27.5919118 L52.125,31.8933824 Z M60.5625,35.8639706 C60.1764706,33.7132353 59.625,31.8106618 58.9080882,30.15625 L58.9080882,30.15625 L56.1783088,30.15625 C56.7849265,31.9209559 57.1985294,33.8235294 57.4191176,35.8639706 L57.4191176,35.8639706 L60.5625,35.8639706 Z M51.4147059,39.1783088 L51.2977941,39.1727941 L49.9742647,39.1727941 L49.9742647,34.2095588 L52.125,34.2095588 L52.125,38.0974265 C52.1801471,38.8694853 51.9044118,39.2279412 51.2977941,39.1727941 L51.4147059,39.1783088 Z M29.2941176,52.9981618 L29.2941176,50.8474265 L39.9650735,50.8474265 L39.9650735,52.9981618 L43.6047794,52.9981618 L43.6047794,48.3658088 L36.65625,48.3658088 L36.65625,47.0422794 L32.4375,47.0422794 L32.4375,48.3658088 L25.6544118,48.3658088 L25.6544118,52.9981618 L29.2941176,52.9981618 Z M33.5128676,65.8198529 C35.9944853,65.9301471 37.1801471,64.7996324 37.0698529,62.4283088 L37.0698529,62.4283088 L37.0698529,56.6378676 L44.0183824,56.6378676 L44.0183824,54.15625 L25.0753676,54.15625 L25.0753676,56.6378676 L33.1819853,56.6378676 L33.1819853,62.1801471 C33.2371324,63.1727941 32.7959559,63.6415441 31.8584559,63.5863971 L31.8584559,63.5863971 L30.2867647,63.5863971 L30.2867647,65.8198529 L33.5128676,65.8198529 Z M65.1121324,65.9852941 L65.1121324,64.0827206 C63.0716912,63.9724265 61.2794118,63.7518382 59.7352941,63.4209559 C61.1139706,62.7591912 62.4099265,61.9319853 63.6231618,60.9393382 L63.6231618,60.9393382 L63.6231618,59.0367647 L54.1930147,59.0367647 C54.4136029,58.8713235 54.6066176,58.6507353 54.7720588,58.375 L54.7720588,58.375 L60.9761029,58.375 C62.90625,58.4852941 63.8161765,57.4926471 63.7058824,55.3970588 L63.7058824,55.3970588 L63.7058824,50.2683824 L56.5091912,50.2683824 C56.6194853,50.1029412 56.7022059,49.8547794 56.7573529,49.5238971 L56.7573529,49.5238971 L65.1948529,49.5238971 L65.1948529,47.5386029 L46.5,47.5386029 L46.5,49.5238971 L53.0349265,49.5238971 C52.9797794,49.7444853 52.8970588,49.9926471 52.7867647,50.2683824 L52.7867647,50.2683824 L48.3198529,50.2683824 L48.3198529,58.375 L50.8841912,58.375 C49.7261029,59.4227941 48.3474265,60.1948529 46.7481618,60.6911765 L46.7481618,60.6911765 L46.7481618,62.4283088 C47.7408088,62.2628676 48.6231618,62.0698529 49.3952206,61.8492647 C50.3878676,62.5110294 51.3529412,63.0349265 52.2904412,63.4209559 C50.6911765,63.7518382 48.7610294,63.9724265 46.5,64.0827206 L46.5,64.0827206 L46.5,65.9852941 C50.5808824,65.7647059 53.7518382,65.2959559 56.0128676,64.5790441 C57.8878676,65.1856618 60.9209559,65.6544118 65.1121324,65.9852941 L65.1121324,65.9852941 Z M60.2316176,52.5845588 L51.7941176,52.5845588 L51.7941176,52.0055147 L60.2316176,52.0055147 L60.2316176,52.5845588 Z M60.2316176,54.6525735 L51.7941176,54.6525735 L51.7941176,53.9908088 L60.2316176,53.9908088 L60.2316176,54.6525735 Z M59.3735751,56.6456992 L59.2389706,56.6378676 L51.7941176,56.6378676 L51.7941176,55.9761029 L60.1488971,55.9761029 C60.1488971,56.4724265 59.8455882,56.6930147 59.2389706,56.6378676 L59.3735751,56.6456992 Z M55.8474265,62.3455882 C55.7371324,62.2904412 55.5716912,62.2077206 55.3511029,62.0974265 C54.5238971,61.7665441 53.9172794,61.4908088 53.53125,61.2702206 L53.53125,61.2702206 L51.1323529,61.2702206 C51.1875,61.2150735 51.2977941,61.1599265 51.4632353,61.1047794 C51.5735294,60.9944853 51.65625,60.9393382 51.7113971,60.9393382 L51.7113971,60.9393382 L58.4117647,60.9393382 C57.5294118,61.4908088 56.6746324,61.9595588 55.8474265,62.3455882 Z" id="我的宁夏" fill="#B98A5D" fill-rule="nonzero"></path>
        </g>
    </g>
</svg>