<?xml version="1.0" encoding="UTF-8"?>
<svg width="90px" height="90px" viewBox="0 0 90 90" version="1.1" xmlns="http://www.w3.org/2000/svg" xmlns:xlink="http://www.w3.org/1999/xlink">
    <!-- Generator: Sketch 60.1 (88133) - https://sketch.com -->
    <title>电子营业执照</title>
    <desc>Created with Sketch.</desc>
    <defs>
        <linearGradient x1="0%" y1="17.419291%" x2="67.4671834%" y2="82.580709%" id="linearGradient-1">
            <stop stop-color="#9656FF" offset="0%"></stop>
            <stop stop-color="#A1AFFF" offset="100%"></stop>
        </linearGradient>
        <linearGradient x1="43.7866159%" y1="0%" x2="56.2133841%" y2="100%" id="linearGradient-2">
            <stop stop-color="#9064FC" offset="0%"></stop>
            <stop stop-color="#9FA8FE" offset="100%"></stop>
        </linearGradient>
    </defs>
    <g id="电子营业执照" stroke="none" stroke-width="1" fill="none" fill-rule="evenodd">
        <g>
            <rect id="矩形备份-15" stroke="#EBEBEB" x="0" y="0" width="90" height="90" rx="45"></rect>
            <g id="编组" transform="translate(21.000000, 27.000000)">
                <path d="M44.0591263,0.00117883946 C37.0826773,6.21481151 32.6488546,13.0645024 30.7576579,20.5502516 L26.0806452,20.5502463 L26.0806452,26.8728269 L29.7741486,26.8723748 C29.5972233,29.6883863 29.7486929,32.5865483 30.2285575,35.566861 L3.16129032,35.5663753 C1.41535789,35.5663753 -7.12845477e-14,34.1510174 -7.10542736e-14,32.405085 L-7.10542736e-14,3.16314951 C-7.17121778e-14,1.41721708 1.41535789,0.0018591886 3.16129032,0.0018591886 L44.0591263,0.00117883946 Z M13.4354839,20.5502463 L7.11290323,20.5502463 L7.11290323,26.8728269 L13.4354839,26.8728269 L13.4354839,20.5502463 Z M22.9193548,20.5502463 L16.5967742,20.5502463 L16.5967742,26.8728269 L22.9193548,26.8728269 L22.9193548,20.5502463 Z M24.5,6.32443983 C21.8811013,6.32443983 19.7580645,8.44747667 19.7580645,11.0663753 C19.7580645,13.685274 21.8811013,15.8083108 24.5,15.8083108 C27.1188987,15.8083108 29.2419355,13.685274 29.2419355,11.0663753 C29.2419355,8.44747667 27.1188987,6.32443983 24.5,6.32443983 Z" id="形状结合" fill="url(#linearGradient-1)"></path>
                <path d="M48.2672348,1.14100545 C48.7252594,1.68886038 49,2.39392039 49,3.16314951 L49,32.405085 C49,34.1510174 47.5846421,35.5663753 45.8387097,35.5663753 L37.4969061,35.5668481 C36.9916963,32.5864565 36.7891037,29.6882198 36.8891282,26.8721382 L41.8870968,26.8728269 L41.8870968,20.5502463 L37.6506317,20.5503639 C39.1226614,13.5194694 42.6615291,7.0496832 48.2672348,1.14100545 Z" id="形状结合" fill="url(#linearGradient-2)"></path>
            </g>
        </g>
    </g>
</svg>