<?xml version="1.0" encoding="UTF-8"?>
<svg width="90px" height="90px" viewBox="0 0 90 90" version="1.1" xmlns="http://www.w3.org/2000/svg" xmlns:xlink="http://www.w3.org/1999/xlink">
    <!-- Generator: Sketch 60.1 (88133) - https://sketch.com -->
    <title>计量服务中小企业</title>
    <desc>Created with Sketch.</desc>
    <g id="计量服务中小企业" stroke="none" stroke-width="1" fill="none" fill-rule="evenodd">
        <g>
            <rect id="矩形备份-15" stroke="#EBEBEB" x="0" y="0" width="90" height="90" rx="45"></rect>
            <g id="编组-31" transform="translate(22.000000, 22.000000)" fill="#1EB170">
                <path d="M5.1828881,27.9609909 C7.15595417,35.0623735 13.26065,40.4440596 20.7449988,41.3540723 L20.7456875,45.8909272 C10.7620181,44.9197251 2.647942,37.5654571 0.53641748,27.9610814 L5.1828881,27.9609909 Z M40.8171119,27.9609909 L45.4635825,27.9610814 C43.352058,37.5654571 35.2379819,44.9197251 25.2543125,45.8909272 L25.2550012,41.3540723 C32.73935,40.4440596 38.8440458,35.0623735 40.8171119,27.9609909 Z M23,1.0658141e-14 C35.7025492,1.0658141e-14 46,10.2974508 46,23 C46,23.1504867 45.9985547,23.3006358 45.9956774,23.4504342 L41.484805,23.4509381 C41.4883922,23.3010603 41.4901961,23.1507408 41.4901961,23 C41.4901961,12.7881467 33.2118533,4.50980392 23,4.50980392 C12.7881467,4.50980392 4.50980392,12.7881467 4.50980392,23 C4.50980392,23.1507408 4.51160775,23.3010603 4.51519501,23.4509381 L0.00432263722,23.4504342 C0.00144525335,23.3006358 0,23.1504867 0,23 C0,10.2974508 10.2974508,1.0658141e-14 23,1.0658141e-14 Z" id="形状结合"></path>
                <path d="M20.7449608,18.9411765 L20.7449608,23.4501765 L0.901960784,23.4509804 L0.901960784,18.9411765 L20.7449608,18.9411765 Z M45.0980392,18.9411765 L45.0980392,23.4509804 L25.2539608,23.4501765 L25.2539608,18.9411765 L45.0980392,18.9411765 Z" id="形状结合"></path>
                <rect id="矩形备份-93" x="16.2352941" y="20.745098" width="4.50980392" height="23.4509804"></rect>
                <rect id="矩形备份-94" x="25.254902" y="20.745098" width="4.50980392" height="23.4509804"></rect>
                <path d="M23,18.9411765 C26.9851135,18.9411765 30.2156863,15.7106037 30.2156863,11.7254902 C30.2156863,7.74037671 26.9851135,4.50980392 23,4.50980392 C19.0148865,4.50980392 15.7843137,7.74037671 15.7843137,11.7254902 C15.7843137,15.7106037 19.0148865,18.9411765 23,18.9411765 Z" id="椭圆形"></path>
            </g>
        </g>
    </g>
</svg>