<?xml version="1.0" encoding="UTF-8"?>
<svg width="90px" height="90px" viewBox="0 0 90 90" version="1.1" xmlns="http://www.w3.org/2000/svg" xmlns:xlink="http://www.w3.org/1999/xlink">
    <!-- Generator: Sketch 60.1 (88133) - https://sketch.com -->
    <title>电子社保卡</title>
    <desc>Created with Sketch.</desc>
    <defs>
        <radialGradient cx="50%" cy="47.5015425%" fx="50%" fy="47.5015425%" r="80.9956422%" gradientTransform="translate(0.500000,0.475015),scale(0.720000,1.000000),rotate(143.127945),translate(-0.500000,-0.475015)" id="radialGradient-1">
            <stop stop-color="#9BE0F9" offset="0%"></stop>
            <stop stop-color="#7ECBF0" offset="36.1885622%"></stop>
            <stop stop-color="#3197D9" offset="100%"></stop>
        </radialGradient>
        <path d="M4,8 C6.209139,8 8,6.209139 8,4 C8,1.790861 6.209139,0 4,0 C1.790861,0 0,1.790861 0,4 C0,6.209139 1.790861,8 4,8 Z" id="path-2"></path>
    </defs>
    <g id="电子社保卡" stroke="none" stroke-width="1" fill="none" fill-rule="evenodd">
        <rect id="矩形备份-15" stroke="#EBEBEB" x="0.5" y="0.5" width="89" height="89" rx="44.5"></rect>
        <g id="编组-164" transform="translate(20.000000, 27.000000)">
            <rect id="矩形" fill="url(#radialGradient-1)" x="0" y="0" width="50" height="36" rx="4"></rect>
            <path d="M2.47917167,5.66320139 C6.05077389,1.18477165 13.4316394,0.812654421 24.6217683,4.54684972 C37.8885717,0.673252325 45.7886059,2.36400498 48.3218709,9.61910767 C50.8551359,16.8742104 42.6742529,25.2352377 23.7792219,34.7021898 C6.79494163,27.8075535 -2.87823165,12.380846 2.47917167,5.66320139 Z M10.4130865,11.5550681 C6.35551762,18.0968261 24.8855484,30.1632014 24.8855484,30.1632014 C35.094702,23.6323933 39.7792525,17.7769349 38.9391999,12.5968261 C38.0991474,7.41671729 33.4145969,6.58338395 24.8855484,10.0968261 C17.9422864,6.70781545 13.1181325,7.19389612 10.4130865,11.5550681 Z" id="形状结合" fill="#AEDBF7"></path>
            <g id="编组-163" transform="translate(19.000000, 5.000000)">
                <path d="M6,-5.5067062e-14 C9.3137085,-5.5067062e-14 12,2.6862915 12,6 C12,7.55257671 11.4103006,8.96742175 10.442663,10.032774 L10.9644374,12.1446064 C7.68440865,13.8196496 4.40250508,13.8196496 1.1187267,12.1446064 L1.1187267,12.1446064 L1.70439094,10.1890068 C0.649773953,9.10772134 0,7.62974209 0,6 C0,2.6862915 2.6862915,-5.5067062e-14 6,-5.5067062e-14 Z" id="形状结合" fill="#F45B79"></path>
                <path d="M6,11.5546915 C9.03756612,11.5546915 11.5,9.09225767 11.5,6.05469154 C11.5,3.01712542 9.03756612,0.554691543 6,0.554691543 C2.96243388,0.554691543 0.5,3.01712542 0.5,6.05469154 C0.5,9.09225767 2.96243388,11.5546915 6,11.5546915 Z" id="椭圆形" fill="#FFCDD6"></path>
                <g id="编组-162" transform="translate(2.000000, 2.054692)">
                    <mask id="mask-3" fill="white">
                        <use xlink:href="#path-2"></use>
                    </mask>
                    <use id="蒙版" fill="#F8002C" xlink:href="#path-2"></use>
                    <g mask="url(#mask-3)">
                        <g transform="translate(0.000000, 4.385224)">
                            <rect id="矩形" fill="#FFE9ED" x="0" y="1.56008463" width="8" height="1"></rect>
                            <polygon id="矩形" fill="#FFD5E1" points="2 0.985762576 6 0.985762576 6 1.56008463 2 1.56008463"></polygon>
                            <polygon id="矩形备份-195" fill="#FFE9ED" points="2 0 6 0 6.26635927 1 1.6899947 1"></polygon>
                        </g>
                    </g>
                </g>
                <path d="M6,11.2679877 C6.55228475,11.2679877 7,10.8202725 7,10.2679877 C7,9.71570298 6.55228475,9.26798773 6,9.26798773 C5.44771525,9.26798773 5,9.71570298 5,10.2679877 C5,10.8202725 5.44771525,11.2679877 6,11.2679877 Z" id="椭圆形" fill="#FFCDD6"></path>
                <polygon id="路径" fill="#FFCAD5" fill-rule="nonzero" points="7 3.21124847 6.32963471 3.07582485 5.99999771 2.44726082 5.67036758 3.07582485 5 3.21124847 5.46663796 3.73508102 5.38193234 4.44726082 5.99999771 4.14246528 6.61802414 4.44726082 6.53331852 3.73508102"></polygon>
                <polygon id="路径备份-10" fill="#FFCAD5" fill-rule="nonzero" points="7.57727451 5.00262995 7.24209186 4.93491814 7.07727336 4.62063613 6.9124583 4.93491814 6.57727451 5.00262995 6.81059349 5.26454623 6.76824068 5.62063613 7.07727336 5.46823835 7.38628658 5.62063613 7.34393377 5.26454623"></polygon>
                <polygon id="路径备份-13" fill="#FFCAD5" fill-rule="nonzero" points="5.5 5.00262995 5.16481736 4.93491814 4.99999885 4.62063613 4.83518379 4.93491814 4.5 5.00262995 4.73331898 5.26454623 4.69096617 5.62063613 4.99999885 5.46823835 5.30901207 5.62063613 5.26665926 5.26454623"></polygon>
                <polygon id="路径备份-12" fill="#FFCAD5" fill-rule="nonzero" points="8.4573472 3.82925465 8.12216455 3.76154283 7.95734605 3.44726082 7.79253099 3.76154283 7.4573472 3.82925465 7.69066618 4.09117092 7.64831337 4.44726082 7.95734605 4.29486305 8.26635927 4.44726082 8.22400646 4.09117092"></polygon>
                <polygon id="路径备份-14" fill="#FFCAD5" fill-rule="nonzero" points="4.58424224 3.82925465 4.24905959 3.76154283 4.08424109 3.44726082 3.91942603 3.76154283 3.58424224 3.82925465 3.81756121 4.09117092 3.77520841 4.44726082 4.08424109 4.29486305 4.39325431 4.44726082 4.3509015 4.09117092"></polygon>
            </g>
            <text id="中华人民共和国" font-family="STSongti-SC-Bold, Songti SC" font-size="3" font-weight="bold" fill="#2E2E2E">
                <tspan x="14" y="23">中华人民共和国</tspan>
            </text>
            <text id="社会保障卡" font-family="STBaoliSC-Regular, Baoli SC" font-size="6" font-weight="normal" letter-spacing="0.5" fill="#2E2E2E">
                <tspan x="9" y="30">社会保障卡</tspan>
            </text>
        </g>
    </g>
</svg>