<?xml version="1.0" encoding="UTF-8"?>
<svg width="90px" height="90px" viewBox="0 0 90 90" version="1.1" xmlns="http://www.w3.org/2000/svg" xmlns:xlink="http://www.w3.org/1999/xlink">
    <!-- Generator: Sketch 60.1 (88133) - https://sketch.com -->
    <title>气象局</title>
    <desc>Created with Sketch.</desc>
    <g id="气象局" stroke="none" stroke-width="1" fill="none" fill-rule="evenodd">
        <g>
            <rect id="矩形备份-13" stroke="#EBEBEB" x="0" y="0" width="90" height="90" rx="45"></rect>
            <g id="编组-80" transform="translate(20.000000, 23.000000)">
                <path d="M17.4698795,23.4793387 C13.217175,15.6908846 13.6711205,9.37347111 18.8317158,4.5270982 C23.9923111,-0.319274718 30.3807727,-1.27452421 37.9971008,1.66134971 L40.3152668,7.0166354 C35.0989738,5.11217593 29.4825631,5.32322332 23.4660347,7.64977759 C17.4495063,9.97633185 15.4507879,15.2528522 17.4698795,23.4793387 Z" id="路径-172" fill="#F04344"></path>
                <path d="M25.1710624,31.8395433 C20.9183579,24.0510892 21.3723033,17.7336757 26.5328987,12.8873028 C31.693494,8.04092988 38.0819556,7.08568038 45.6982836,10.0215543 L48.0164497,15.37684 C42.8001567,13.4723805 37.183746,13.6834279 31.1672176,16.0099822 C25.1506892,18.3365364 23.1519708,23.6130568 25.1710624,31.8395433 Z" id="路径-172" fill="#F5C149" transform="translate(35.152803, 20.099874) rotate(-285.000000) translate(-35.152803, -20.099874) "></path>
                <path d="M18.7453596,42.2813104 C14.4926551,34.4928563 14.9466005,28.1754428 20.1071958,23.3290699 C25.2677911,18.4826969 31.6562528,17.5274475 39.2725808,20.4633214 L41.5907469,25.8186071 C36.3744539,23.9141476 30.7580432,24.125195 24.7415148,26.4517493 C18.7249864,28.7783035 16.726268,34.0548239 18.7453596,42.2813104 Z" id="路径-172" fill="#7DC25A" transform="translate(28.727100, 30.541641) rotate(-210.000000) translate(-28.727100, -30.541641) "></path>
                <path d="M7.50037967,38.6668526 C3.2476752,30.8783985 3.70162061,24.5609849 8.86221592,19.714612 C14.0228112,14.8682391 20.4112729,13.9129896 28.0276009,16.8488635 L30.345767,22.2041492 C25.1294739,20.2996898 19.5130632,20.5107372 13.4965349,22.8372914 C7.48000647,25.1638457 5.48128808,30.4403661 7.50037967,38.6668526 Z" id="路径-172" fill="#5FA7EC" transform="translate(17.482120, 26.927183) rotate(-135.000000) translate(-17.482120, -26.927183) "></path>
                <path d="M7.50037967,27.8234791 C3.2476752,20.035025 3.70162061,13.7176114 8.86221592,8.87123853 C14.0228112,4.02486562 20.4112729,3.06961613 28.0276009,6.00549005 L30.345767,11.3607757 C25.1294739,9.45631627 19.5130632,9.66736366 13.4965349,11.9939179 C7.48000647,14.3204722 5.48128808,19.5969926 7.50037967,27.8234791 Z" id="路径-172" fill="#9E47D3" transform="translate(17.482120, 16.083810) rotate(-75.000000) translate(-17.482120, -16.083810) "></path>
            </g>
        </g>
    </g>
</svg>