<?xml version="1.0" encoding="UTF-8"?>
<svg width="90px" height="90px" viewBox="0 0 90 90" version="1.1" xmlns="http://www.w3.org/2000/svg" xmlns:xlink="http://www.w3.org/1999/xlink">
    <!-- Generator: Sketch 60.1 (88133) - https://sketch.com -->
    <title>安徽省</title>
    <desc>Created with Sketch.</desc>
    <g id="安徽省" stroke="none" stroke-width="1" fill="none" fill-rule="evenodd">
        <g>
            <rect id="矩形备份" stroke="#EBEBEB" x="0" y="0" width="90" height="90" rx="45"></rect>
            <g id="编组-109" transform="translate(20.000000, 28.000000)" fill="#FF0000">
                <path d="M-9.09494702e-13,24.229193 C0.725445321,26.805273 2.06483756,29.2350045 4.01817671,31.5183877 C8.96101936,21.1608698 11.765416,15.391723 12.4313665,14.2109473 C13.4302923,12.4397837 13.7684103,12.4415049 14.2174362,12.7247952 C14.5167867,12.9136554 14.870941,13.2717833 15.2798989,13.799179 L17.5086369,9.95199413 C16.3917912,9.84957681 15.7411235,9.61422998 15.5566337,9.24595364 C15.2798989,8.69353913 19.0585255,2.25051793 23.5949604,0.148529245 C18.7187484,-0.69815439 14.0791127,2.0750207 9.67605335,8.46805453 C9.41266595,8.78595893 8.45461636,8.85717516 6.80190458,8.6817032 C7.82047107,9.39758488 8.23826312,10.0018346 8.05528074,10.4944524 C7.87229836,10.9870702 5.18720478,15.5653171 -9.09494702e-13,24.229193 Z" id="路径-186"></path>
                <path d="M45.9746419,31.5183877 C47.9072687,28.8990067 49.2037175,26.431889 49.8639882,24.1170344 C42.7144737,12.2285796 37.8764765,5.08150684 35.3499967,2.67581622 C31.560277,-0.932719708 27.1476465,-0.294425425 24.5617489,2.27682125 C21.9758512,4.84806792 14.0676922,19.1591434 14.0676922,24.5389826 C14.0676922,29.9188218 15.0659615,31.7497057 24.0916967,32.450755 C33.1174318,33.1518043 37.8726754,28.4268521 37.2111593,24.1170344 C36.5496431,19.8072168 33.1174318,14.8223892 26.5833411,12.9515187 L24.8575875,16.8674371 C28.1799365,18.5222779 29.9725048,20.2610095 30.2352923,22.0836319 C30.6294735,24.8175655 27.8301926,26.2506639 23.5949604,25.730367 C19.3597282,25.2100702 20.9388748,20.6531416 21.5105866,18.7602894 C22.0822984,16.8674371 25.4904011,7.25098027 27.2835903,5.59545643 C29.0767795,3.93993258 30.5186333,3.57276284 33.5323685,7.98103518 C35.5415253,10.9198834 39.6889498,18.7656676 45.9746419,31.5183877 Z" id="路径-187"></path>
            </g>
        </g>
    </g>
</svg>