<?xml version="1.0" encoding="UTF-8"?>
<svg width="90px" height="90px" viewBox="0 0 90 90" version="1.1" xmlns="http://www.w3.org/2000/svg" xmlns:xlink="http://www.w3.org/1999/xlink">
    <!-- Generator: Sketch 60.1 (88133) - https://sketch.com -->
    <title>北京市</title>
    <desc>Created with Sketch.</desc>
    <g id="北京市" stroke="none" stroke-width="1" fill="none" fill-rule="evenodd">
        <g>
            <rect id="矩形" stroke="#EBEBEB" x="0" y="0" width="90" height="90" rx="45"></rect>
            <path d="M59.7120035,55.5143571 C59.5994167,55.8393659 59.2776228,56.0565206 58.9294726,56.0423445 L58.9078122,56.0411294 C58.8376069,56.0362112 58.7702192,56.0226716 58.7057078,56.0008577 C58.5762154,55.9581558 55.439987,54.9419898 49.9504721,54.6787193 C49.826204,54.6727017 49.7008793,54.667147 49.5743806,54.6619973 C49.5016512,54.6590464 49.346859,54.6532023 49.346859,54.6532023 C48.921753,54.632835 48.57689,54.2621155 48.5926216,53.8436602 C48.609175,53.4131696 48.9778116,53.0761255 49.4143054,53.0920954 C49.4855087,53.094757 49.5563597,53.0974765 49.6269172,53.1003696 C49.7602838,53.1058086 49.8924764,53.1117104 50.0231428,53.1179595 C55.8050429,53.3952903 59.0819754,54.4766665 59.2186292,54.5226086 C59.6321713,54.6622287 59.8532946,55.1071269 59.7120035,55.5143571 L59.7120035,55.5143571 Z M46.9408011,51.6004223 C46.526261,51.6004223 46.1862114,51.9066261 46.1833938,52.2830739 L46.1833938,53.8561004 C46.1833938,54.4420074 45.6998225,54.9187294 45.1053667,54.9187294 L44.8139794,54.9187294 C44.2195236,54.9187294 43.7359523,54.4420074 43.7359523,53.8561004 L43.7359523,52.2806438 C43.7373611,52.0928827 43.6606401,51.916289 43.5200534,51.7823393 C43.3774121,51.6463645 43.1866955,51.5706815 42.9830062,51.5691771 C42.8993586,51.5685984 42.8161219,51.5683091 42.7325917,51.5683091 C41.4578605,51.5683091 40.0048572,51.6393632 38.7389898,51.7794462 L35.9702826,52.0859972 C35.9188614,52.0916676 35.8667944,52.0945607 35.8155492,52.0945607 C35.4586527,52.0945607 35.112146,51.9537834 34.8650187,51.7083922 C34.6297487,51.4747469 34.501489,51.1682538 34.503837,50.8453858 L34.508533,50.2072298 C34.5128181,49.6293657 34.9753748,49.28966 35.3778226,49.0582713 C35.86609,48.7775266 39.8180148,47.4771442 44.6618288,47.4417907 L44.6618288,47.4398234 L44.8277153,47.4400549 L45.3800831,47.4441052 L45.3800831,47.4469983 C49.8971137,47.5469253 54.0061199,48.8175669 54.6439551,49.1966763 C55.0429396,49.4338512 55.5004481,49.780211 55.496163,50.3580173 L55.491467,50.9961733 C55.4864775,51.6745431 54.8987722,52.2264853 54.1813984,52.2264853 C54.1232853,52.2264853 54.0645852,52.22284 54.0067656,52.2155494 L51.2429893,51.8693054 C49.8968202,51.7006387 48.3058717,51.610201 46.9476103,51.6004802 L46.9408011,51.6004223 Z M40.6969899,54.6532023 C40.6969899,54.6532023 40.5422565,54.6590464 40.4695271,54.6619973 C40.3429697,54.667147 40.217645,54.6727017 40.0933769,54.6787193 C34.6039207,54.9419898 31.4676923,55.9581558 31.3381412,56.0008577 C31.2736885,56.0226716 31.2063008,56.0362112 31.1360955,56.0411294 L31.1143764,56.0423445 C30.7662849,56.0565206 30.444491,55.8393659 30.3319042,55.5143571 C30.1905544,55.1071269 30.4117364,54.6622287 30.8252198,54.5226086 C30.9618736,54.4766665 34.2388061,53.3952903 40.0207062,53.1179595 C40.1514313,53.1117104 40.2835652,53.1058086 40.4169905,53.1003696 C40.4874893,53.0974765 40.5583403,53.094757 40.6296022,53.0920954 C41.0660961,53.0761255 41.434674,53.4131696 41.4512861,53.8436602 C41.4670177,54.2621155 41.1221547,54.632835 40.6969899,54.6532023 L40.6969899,54.6532023 Z M34.3332545,45.4814385 C34.5161053,45.4341076 38.8282726,44.3309177 43.8927989,44.2131692 C43.9760357,43.721056 44.41341,43.3429881 44.9339037,43.3429881 L45.1021969,43.3442032 C45.626917,43.3479642 46.0621194,43.7324548 46.1381947,44.2293126 C51.1956184,44.4196196 55.4953999,45.5847215 55.677605,45.6347139 C56.0984846,45.7504372 56.3455533,46.1820272 56.2285053,46.5968373 C56.1332351,46.9334763 55.8193657,47.168626 55.4652281,47.168626 L55.4594755,47.168626 C55.389505,47.1681052 55.3196519,47.1583844 55.2519119,47.1396373 C55.2036605,47.1263291 50.3435279,45.8038435 45.004109,45.7654812 C44.923279,45.7649026 44.8431534,45.7646133 44.7624995,45.7646133 C39.5079609,45.7646133 34.7838951,46.979997 34.7368177,46.9923215 C34.6706627,47.0095064 34.6026293,47.0182436 34.5345959,47.0182436 L34.5289019,47.0182436 C34.1720054,47.0156398 33.85931,46.7760926 33.7684423,46.435519 C33.6575578,46.0189731 33.9109074,45.5910284 34.3332545,45.4814385 L34.3332545,45.4814385 Z M35.2716929,41.5097578 C36.2283282,40.9560219 38.1418338,40.2251716 41.8246774,39.8877804 C42.1523413,39.8578081 42.4012883,39.5897351 42.4036364,39.2643213 L42.4136741,37.9145828 C42.2395696,37.907408 42.0708655,37.903242 41.9103795,37.9020847 C41.8743963,37.9018533 41.8387067,37.9016797 41.8030757,37.9016797 C38.7114594,37.9016797 36.8113375,38.8727137 36.7925535,38.8825502 C36.6786166,38.9437099 36.5480676,38.9764017 36.4164033,38.9764017 L36.4106507,38.9764017 C36.3920428,38.976286 36.3733762,38.975476 36.3548269,38.9740294 C36.0867436,38.9533728 35.8497127,38.8022382 35.7207486,38.5696923 C35.6191974,38.3865024 35.5960696,38.1753652 35.6557089,37.975164 C35.7153482,37.7749048 35.8505345,37.6095363 36.0364376,37.5094935 C36.1248987,37.4617577 38.2478461,36.3384897 41.7822959,36.3384897 C41.822212,36.3384897 41.862715,36.3386054 41.9029246,36.3388947 C42.0696328,36.3401098 42.2446765,36.344218 42.4251793,36.3512193 L42.4492463,33.0973122 C42.4525922,32.6531663 42.8218158,32.2918204 43.2723977,32.2918204 L43.2784438,32.2918204 C43.7323716,32.2950606 44.0989536,32.6617298 44.0956664,33.1091739 L44.0501152,39.2760672 C44.0414276,40.4385653 43.1502428,41.3962333 41.9770041,41.5037402 C40.4492169,41.6437075 37.6548578,42.0124597 36.1053515,42.9092572 C35.9789703,42.9823943 35.8350376,43.0210459 35.6890505,43.0210459 C35.6889918,43.0210459 35.6830044,43.0209881 35.6830044,43.0209881 C35.3945522,43.0189629 35.1245905,42.865456 34.9786033,42.6204119 C34.7487925,42.2345327 34.880222,41.7362861 35.2716929,41.5097578 L35.2716929,41.5097578 Z M46.0392264,33.1130506 C46.0425136,32.6689047 46.4117959,32.3075009 46.8623778,32.3075009 L46.8684239,32.3075587 C47.3223517,32.310799 47.6889337,32.6774682 47.6856465,33.1249122 L47.6615795,36.3790507 C47.8062752,36.3754633 47.9474489,36.3736696 48.0831635,36.3736696 C48.119675,36.3736696 48.156069,36.3737853 48.1924631,36.3740746 C51.7979987,36.3999388 53.9513528,37.5787539 54.0412226,37.6289199 C54.2254822,37.7315086 54.3580857,37.8988445 54.41479,38.0998558 C54.4714356,38.3008671 54.4452553,38.5117149 54.3409453,38.6934005 C54.2085179,38.9241527 53.9692563,39.0718734 53.7009382,39.0885955 C53.6843261,39.089637 53.6676552,39.0901577 53.6509257,39.0901577 L53.6451144,39.0901577 C53.5115717,39.0891741 53.3792617,39.0544571 53.2624485,38.9896521 C53.2447211,38.980047 51.3184189,37.9595992 48.161939,37.9369753 C48.1295953,37.936686 48.0970754,37.9365703 48.0646143,37.9365703 C47.9314825,37.9365703 47.7925394,37.9385376 47.6500156,37.9424721 L47.6400365,39.2918634 C47.6376298,39.6172772 47.8825853,39.8888798 48.2098383,39.9236546 C50.2396287,40.1390156 53.019841,40.6115716 54.7381101,41.6395415 C54.9261265,41.7520824 55.0583778,41.9298912 55.1105621,42.1405075 C55.1628639,42.3508924 55.1288766,42.5689729 55.0147049,42.7542459 C54.8664285,42.9951818 54.5965254,43.1447541 54.3103625,43.1447541 L54.3044925,43.1447541 C54.1562161,43.1436547 54.0107573,43.1029201 53.883789,43.0268899 C52.347725,42.1079314 49.5590599,41.699139 48.0335032,41.5371842 C46.8619669,41.4128974 45.9850462,40.4424999 45.9936751,39.2800018 L46.0392264,33.1130506 Z M45.4336176,20.0000413 C46.0746813,19.9958174 46.6349149,20.3160237 46.9246585,20.7912413 C47.1041634,21.0855835 47.1525323,21.4310753 47.0847337,21.7616967 L47.0847337,21.7616967 L46.7384619,23.4495207 C46.7079965,23.5981093 46.7961054,23.7465823 46.9506627,23.8030553 C47.5931939,24.0376263 47.9834908,24.4973949 47.8998431,25.2829245 L47.8998431,25.2829245 L47.7370678,26.7210176 C47.7230972,26.8441472 47.7734031,26.9658302 47.8736629,27.0498453 C48.5773009,27.6395133 51.4977477,29.660331 59.1541765,31.9220845 C60.5451338,32.3330179 60.7550453,34.0388946 59.4983938,34.7179588 L59.4983938,34.7179588 L56.6205632,35.8971211 C56.4326055,35.9741928 56.3119769,36.1473727 56.2793396,36.3454331 C56.0985433,37.4438784 56.4409997,37.7910482 57.4342639,38.1462608 C59.8521793,39.0109451 62.587486,40.1268068 65.0406802,41.0326308 C66.1033279,41.4249905 66.2139189,42.7155365 65.1724032,43.1423818 C63.7275005,43.7345956 61.88015,44.4379038 61.027766,44.7740221 C60.6608904,44.9186762 60.4707021,46.3175391 61.2794132,46.7539316 C61.3044782,46.7674712 61.3307171,46.7791593 61.3570735,46.7902108 L61.3570735,46.7902108 L67.7567333,49.4752223 C68.5812935,49.8105305 68.4483965,51.0701783 67.5631991,51.2351418 L67.5631991,51.2351418 L65.1552041,51.5981657 C64.0473573,51.8046161 63.7971775,51.8503268 63.8054542,52.8756928 L63.8054542,52.8756928 L63.8204814,56.4803571 C63.8254709,57.0992452 64.2939563,57.6365484 64.9575022,57.7823597 C66.0203847,58.0158892 67.6570606,58.2356477 68.3986775,58.4235245 C69.0117999,58.5781308 69.5049394,58.711849 69.8637143,58.8120075 C69.9439574,58.8238113 71.1808856,59.1945308 70.9774311,60.0853686 C70.8431253,60.6733585 70.2479651,61.0852177 69.5945744,60.9849434 C69.4730652,60.9662541 57.8397054,59.106639 45,59.1905962 C32.1602946,59.106639 20.5269348,60.9662541 20.4053669,60.9849434 C19.7519762,61.0852177 19.156816,60.6733585 19.0225689,60.0853686 C18.8191144,59.1945308 20.0560427,58.8238113 20.136227,58.8120075 C20.4950606,58.711849 20.9882001,58.5781308 21.6013225,58.4235245 C22.3429395,58.2356477 23.9795567,58.0158892 25.0424979,57.7823597 C25.7060437,57.6365484 26.1745291,57.0992452 26.1795186,56.4803571 L26.1795186,56.4803571 L26.1945458,52.8756928 C26.2028225,51.8503268 25.9526428,51.8046161 24.8447373,51.5981657 L24.8447373,51.5981657 L22.4367422,51.2351418 C21.5516035,51.0701783 21.4187065,49.8105305 22.243208,49.4752223 L22.243208,49.4752223 L28.6429266,46.7902108 C28.6692829,46.7791593 28.6954631,46.7674712 28.7205868,46.7539316 C29.5292979,46.3175391 29.3391096,44.9186762 28.9722341,44.7740221 C28.1197914,44.4379038 26.2724995,43.7345956 24.8275968,43.1423818 C23.7860225,42.7155365 23.8966134,41.4249905 24.9593198,41.0326308 C27.412514,40.1268068 30.1478208,39.0109451 32.5657361,38.1462608 C33.5590004,37.7910482 33.901398,37.4438784 33.7206604,36.3454331 C33.6880232,36.1473727 33.5673945,35.9741928 33.3794368,35.8971211 L33.3794368,35.8971211 L30.5016062,34.7179588 C29.2449547,34.0388946 29.4548662,32.3330179 30.8458235,31.9220845 C38.5021936,29.660331 41.4226992,27.6395133 42.1263371,27.0498453 C42.2265382,26.9658302 42.2768442,26.8441472 42.2629322,26.7210176 L42.2629322,26.7210176 L42.1001569,25.2829245 C42.0164506,24.4973949 42.4068062,24.0376263 43.0492786,23.8030553 C43.2038947,23.7465823 43.2920035,23.5981093 43.2615382,23.4495207 L43.2615382,23.4495207 L42.9152663,21.7616967 C42.847409,21.4310753 42.8958366,21.0855835 43.0752828,20.7912413 C43.3650851,20.3160237 43.9253188,19.9958174 44.5663825,20.0000413 L44.5663825,20.0000413 L45,20.0028765 Z M45.0090281,48.8169883 L44.7873765,48.8165254 L44.7873765,48.8165254 C40.0816252,48.8165254 37.4660079,49.45526 37.4426452,49.4616826 C37.1141008,49.5517153 36.9208602,49.8887594 37.0120214,50.2130739 C37.0864531,50.47646 37.3314086,50.66046 37.6076512,50.6604022 C37.6639446,50.6604022 37.7201206,50.6527066 37.7706613,50.6386462 C37.7953741,50.6326286 40.43905,50.0372902 44.796886,50.0372902 L45.0296905,50.0379845 C49.5635093,50.0869355 52.1953278,50.7359116 52.216636,50.7413506 C52.2738686,50.7581305 52.3329209,50.7666361 52.3922079,50.7666361 C52.6643416,50.7666361 52.9082991,50.5861657 52.9855485,50.327582 C53.0814057,50.004772 52.8931545,49.6651242 52.5661363,49.5703468 C52.5419519,49.5633455 49.8489092,48.8655921 45.0090281,48.8169883 Z" id="Combined-Shape" fill="#E10000"></path>
        </g>
    </g>
</svg>