<?xml version="1.0" encoding="UTF-8"?>
<svg width="90px" height="90px" viewBox="0 0 90 90" version="1.1" xmlns="http://www.w3.org/2000/svg" xmlns:xlink="http://www.w3.org/1999/xlink">
    <!-- Generator: Sketch 60.1 (88133) - https://sketch.com -->
    <title>全国电子献血证</title>
    <desc>Created with Sketch.</desc>
    <g id="全国电子献血证" stroke="none" stroke-width="1" fill="none" fill-rule="evenodd">
        <g>
            <circle id="椭圆形备份-28" fill="#FFF4F0" cx="45" cy="45" r="45"></circle>
            <g id="编组-38" transform="translate(25.000000, 25.000000)">
                <g id="编组-37">
                    <rect id="矩形" x="0" y="0" width="40" height="40"></rect>
                    <path d="M10.2828715,38.0899048 L29.7171285,38.0899048 L35.4863158,32.9737894 C35.8735803,32.6303633 36.0952381,32.1375365 36.0952381,31.6199311 L36.0952381,3.80952381 C36.0952381,2.81015141 35.2850867,2 34.2857143,2 L5.71428571,2 C4.71491331,2 3.9047619,2.81015141 3.9047619,3.80952381 L3.9047619,31.6199311 C3.9047619,32.1375365 4.12641965,32.6303633 4.51368416,32.9737894 L10.2828715,38.0899048 Z" id="矩形" stroke="#FF6E32" stroke-width="4"></path>
                    <rect id="矩形" fill="#FF6E32" x="23.8095238" y="5.71428571" width="8.57142857" height="4" rx="1.9047619"></rect>
                    <path d="M20.2847458,14.3813989 C20.125908,14.2538194 19.872155,14.2538194 19.7133172,14.3813989 C18.5569007,15.3031608 14.2857143,19.8736963 14.2857143,23.5878544 C14.2857143,26.185692 16.8445521,28.5714286 20,28.5714286 C23.1554479,28.5714286 25.7142857,26.4647721 25.7142857,23.8669346 C25.7142857,19.8736963 21.4411622,15.3063503 20.2847458,14.3813989 Z" id="路径" stroke="#FF6E32" stroke-width="4" fill-rule="nonzero"></path>
                    <rect id="矩形" fill="#FF6E32" x="1.9047619" y="18.0952381" width="12.3809524" height="4"></rect>
                    <rect id="矩形备份-104" fill="#FF6E32" x="25.7142857" y="18.0952381" width="12.3809524" height="4"></rect>
                </g>
            </g>
        </g>
    </g>
</svg>