<?xml version="1.0" encoding="UTF-8"?>
<svg width="90px" height="90px" viewBox="0 0 90 90" version="1.1" xmlns="http://www.w3.org/2000/svg" xmlns:xlink="http://www.w3.org/1999/xlink">
    <!-- Generator: Sketch 60.1 (88133) - https://sketch.com -->
    <title>福建省</title>
    <desc>Created with Sketch.</desc>
    <g id="福建省" stroke="none" stroke-width="1" fill="none" fill-rule="evenodd">
        <g>
            <rect id="矩形备份-2" stroke="#EBEBEB" x="0" y="0" width="90" height="90" rx="45"></rect>
            <g id="编组-110" transform="translate(22.000000, 25.000000)" fill="#0070E4">
                <path d="M11.7396527,31.6467897 C9.97681672,30.7898008 2.66647814,26.8343212 9.50358939,17.7740134 C16.3407006,8.71370572 30.3857923,6.60631125 32.1795879,6.26142818 C32.4947139,5.57308194 29.3838275,5.55397137 27.5329572,6.06359185 C25.6820869,6.57321234 24.3397238,7.17800155 24.7023346,6.46465416 C25.0649454,5.75130676 28.9647197,4.66302631 32.9624,4.44929094 C36.9600804,4.23555558 39.9943833,4.34522378 39.9943833,3.85737392 C39.9943833,3.36952406 38.4200253,3.05244298 38.0174049,3.05244298 C39.6637213,3.08385818 40.4867184,2.96046032 40.4863962,2.68224941 C40.4857614,2.26493303 38.3056527,2.04481361 38.0174049,2.04481361 C37.7291571,2.04481361 39.2328538,1.93834802 39.0983541,1.61272144 C38.9638545,1.28709486 34.64461,1.06441963 34.0549359,1.06441963 C34.9940376,1.02160976 35.42392,0.892461323 35.3445833,0.676974321 C35.2255783,0.353743817 34.5879371,-0.414837788 24.0678395,0.285342212 C13.5477419,0.985522211 3.08939402,9.50509768 1.08757002,14.9066236 C-0.914253994,20.3081495 -1.51629563,28.9677827 11.7396527,31.6467897 Z" id="路径-188"></path>
                <path d="M17.1408256,40.7549392 C15.3779895,39.8979503 8.06765094,35.9424707 14.9047622,26.882163 C21.7418734,17.8218553 35.7869651,15.7144608 37.5807607,15.3695777 C37.8958867,14.6812315 34.7850003,14.6621209 32.93413,15.1717414 C31.0832597,15.6813619 29.7408966,16.2861511 30.1035074,15.5728037 C30.4661182,14.8594563 34.3658925,13.7711759 38.3635729,13.5574405 C42.3612532,13.3437051 45.3955561,13.4533733 45.3955561,12.9655235 C45.3955561,12.4776736 43.8211981,12.1605925 43.4185777,12.1605925 C45.0648941,12.1920077 45.8878912,12.0686099 45.887569,11.790399 C45.8869342,11.3730826 43.7068255,11.1529632 43.4185777,11.1529632 C43.1303299,11.1529632 44.6340266,11.0464976 44.4995269,10.720871 C44.3650273,10.3952444 40.0457828,10.1725692 39.4561087,10.1725692 C40.3952104,10.1297593 40.8250928,10.0006109 40.7457561,9.78512387 C40.6267511,9.46189336 39.9891099,8.69331176 29.4690123,9.39349176 C18.9489147,10.0936718 8.49056683,18.6132472 6.48874282,24.0147732 C4.48691881,29.4162991 3.88487718,38.0759323 17.1408256,40.7549392 Z" id="路径-188备份" transform="translate(25.644371, 24.931544) scale(-1, -1) translate(-25.644371, -24.931544) "></path>
                <circle id="椭圆形" cx="23.2678395" cy="20.3081495" r="6"></circle>
            </g>
        </g>
    </g>
</svg>