<?xml version="1.0" encoding="UTF-8"?>
<svg width="90px" height="90px" viewBox="0 0 90 90" version="1.1" xmlns="http://www.w3.org/2000/svg" xmlns:xlink="http://www.w3.org/1999/xlink">
    <!-- Generator: Sketch 60.1 (88133) - https://sketch.com -->
    <title>公积金贷款信息</title>
    <desc>Created with Sketch.</desc>
    <g id="公积金贷款信息" stroke="none" stroke-width="1" fill="none" fill-rule="evenodd">
        <g id="编组-151">
            <circle id="椭圆形备份-57" fill="#FFF4F0" cx="45" cy="45" r="45"></circle>
            <g id="编组-150" transform="translate(27.000000, 25.000000)">
                <rect id="矩形" x="0" y="0" width="40" height="40"></rect>
                <ellipse id="椭圆形" stroke="#FF6E32" stroke-width="4" cx="16.5" cy="8" rx="14.5" ry="6"></ellipse>
                <path d="M30.9891669,8 C30.9891669,12.5822277 30.9891669,16.0188986 30.9891669,18.3100124 M23.2483736,37.1956422 C21.1208715,37.7195169 18.8236291,38 16.5,38 C10.8106917,38 5.40033024,36.9906281 2.03130623,33.5 L2.03130623,8" id="形状" stroke="#FF6E32" stroke-width="4"></path>
                <path d="M2.03130623,22.4178122 C6.85761634,25.0432876 11.6839265,26.3560253 16.5102366,26.3560253" id="路径-242" stroke="#FF6E32" stroke-width="4" stroke-linecap="round"></path>
                <circle id="椭圆形" stroke="#FF6E32" stroke-width="4" cx="28" cy="28" r="10"></circle>
                <rect id="矩形" fill="#FF6E32" x="26.5" y="26" width="3" height="9" rx="1.5"></rect>
                <rect id="矩形备份-186" fill="#FF6E32" transform="translate(28.000000, 27.000000) rotate(-270.000000) translate(-28.000000, -27.000000) " x="26.5" y="22.5" width="3" height="9" rx="1.5"></rect>
                <path d="M26.5,22 C27.3284271,22 28,22.6715729 28,23.5 L28,26.5 C28,27.3284271 27.3284271,28 26.5,28 C25.6715729,28 25,27.3284271 25,26.5 L25,23.5 C25,22.6715729 25.6715729,22 26.5,22 Z" id="矩形备份-188" fill="#FF6E32" transform="translate(26.500000, 25.000000) rotate(-225.000000) translate(-26.500000, -25.000000) "></path>
                <path d="M29.5,22 C30.3284271,22 31,22.6715729 31,23.5 L31,26.5 C31,27.3284271 30.3284271,28 29.5,28 C28.6715729,28 28,27.3284271 28,26.5 L28,23.5 C28,22.6715729 28.6715729,22 29.5,22 Z" id="矩形备份-189" fill="#FF6E32" transform="translate(29.500000, 25.000000) scale(-1, 1) rotate(-225.000000) translate(-29.500000, -25.000000) "></path>
                <rect id="矩形备份-187" fill="#FF6E32" transform="translate(28.000000, 31.000000) rotate(-270.000000) translate(-28.000000, -31.000000) " x="26.5" y="26.5" width="3" height="9" rx="1.5"></rect>
            </g>
        </g>
    </g>
</svg>