<?xml version="1.0" encoding="UTF-8"?>
<svg width="90px" height="90px" viewBox="0 0 90 90" version="1.1" xmlns="http://www.w3.org/2000/svg" xmlns:xlink="http://www.w3.org/1999/xlink">
    <!-- Generator: Sketch 60.1 (88133) - https://sketch.com -->
    <title>公积金基本信息</title>
    <desc>Created with Sketch.</desc>
    <g id="公积金基本信息" stroke="none" stroke-width="1" fill="none" fill-rule="evenodd">
        <g id="编组-153">
            <circle id="椭圆形备份-58" fill="#FEF5F6" cx="45" cy="45" r="45"></circle>
            <g id="编组-152" transform="translate(25.000000, 24.000000)">
                <rect id="矩形" x="0" y="0" width="40" height="40"></rect>
                <path d="M3.02398527,38.0010428 L36.9760147,38.0010428 C37.6502438,36.0939966 38,34.0727912 38,32 C38,22.0588745 29.9411255,14 20,14 C10.0588745,14 2,22.0588745 2,32 C2,34.0727912 2.34975624,36.0939966 3.02398527,38.0010428 Z" id="形状结合" stroke="#F3364E" stroke-width="4"></path>
                <path d="M11.8413111,1.75 C11.7900181,1.75 11.7399664,1.7657774 11.6979455,1.79519202 C11.5848332,1.87437065 11.5573245,2.03025326 11.6365031,2.14336559 L15.8365031,8.14336559 C15.8832853,8.21019726 15.9597327,8.25 16.0413111,8.25 L23.9586889,8.25 C24.0402673,8.25 24.1167147,8.21019726 24.1634969,8.14336559 L28.3634969,2.14336559 C28.3929115,2.1013447 28.4086889,2.05129303 28.4086889,2 C28.4086889,1.86192881 28.2967601,1.75 28.1586889,1.75 L11.8413111,1.75 Z" id="矩形" stroke="#F3364E" stroke-width="3.5"></path>
                <path d="M26.3216326,25.3575715 L21.8850059,24.5348761 L21.6120501,23.9551061 L19.9866684,20.5026717 L18.0913821,24.5304029 L17.4667245,24.6502671 L13.6540589,25.3811174 L16.8787133,28.5260839 L16.7578052,29.1819385 L16.0538007,32.9993971 L19.9894755,30.9698904 L20.563442,31.2677755 L23.9006182,33.0001187 L23.1013932,28.5265673 L23.5709764,28.064414 L26.3216326,25.3575715 Z M19.5714227,19.6206582 L19.5691356,19.6158001 C19.5698869,19.6174244 19.5706492,19.6190435 19.5714223,19.6206574 Z M12.898247,25.5259991 L12.8608703,25.5331638 C12.8735575,25.5312235 12.8860218,25.5288267 12.898247,25.5259991 Z M15.7960489,33.5106937 C15.7783038,33.4918467 15.7583889,33.4739909 15.7363023,33.4573853 L15.7960489,33.5106937 Z M15.3028471,33.3866408 C15.2867501,33.3942366 15.2704815,33.4026835 15.253943,33.4118592 L15.3028471,33.3866408 Z M24.6867094,33.4081822 L24.7257663,33.4284568 C24.7127329,33.4212636 24.6997222,33.4144863 24.6867099,33.4081824 Z M24.1524453,33.5104219 L24.2081661,33.4604966 C24.1876965,33.4760193 24.1691123,33.4927043 24.1524467,33.5104207 Z" id="路径" stroke="#F3364E" stroke-width="2.5" fill-rule="nonzero"></path>
            </g>
        </g>
    </g>
</svg>