<?xml version="1.0" encoding="UTF-8"?>
<svg width="90px" height="90px" viewBox="0 0 90 90" version="1.1" xmlns="http://www.w3.org/2000/svg" xmlns:xlink="http://www.w3.org/1999/xlink">
    <!-- Generator: Sketch 60.1 (88133) - https://sketch.com -->
    <title>河北省</title>
    <desc>Created with Sketch.</desc>
    <g id="河北省" stroke="none" stroke-width="1" fill="none" fill-rule="evenodd">
        <g>
            <rect id="矩形备份-2" stroke="#EBEBEB" x="0.5" y="0.5" width="89" height="89" rx="44.5"></rect>
            <g id="编组-73" transform="translate(20.000000, 22.000000)" fill="#5B1212">
                <polygon id="路径-149" points="14.3246689 3.71488659 13.8574483 6.56027866 24.1295696 3.39912142 24.1295696 6.1817218e-13 22.0408731 0.755605475 22.0408731 2.51554241 20.219557 3.28013933 20.219557 1.67930158 18.1972542 2.51554241 18.1972542 3.92465699 16.3968705 4.55849801 16.3968705 3.01436862"></polygon>
                <polygon id="路径-150" points="24.7400383 0 24.7400383 3.49508171 32.9153451 7.30951762 32.7333139 4.48667161 31.6645306 3.8485717 31.6645306 5.43273862 29.981857 4.6205452 29.981857 2.92037052 28.1812608 1.79192763 28.1812608 3.65475881 26.5637473 2.79916564 26.5637473 1.00206485"></polygon>
                <path d="M24.7400383,4.60614167 L33.1007204,8.31527641 L34.039527,17.8438808 L31.5788065,17.3815705 C31.617458,15.8472726 31.5627291,14.9061104 31.4146199,14.5580838 C31.1924561,14.036044 30.6071164,13.1572975 29.8963234,13.1572975 C29.1855304,13.1572975 28.6883847,14.1411071 28.6883847,14.6912347 L28.6883847,17.2556655 L28.6883847,17.2556655 C30.1242275,17.2445901 30.8977078,17.3672041 31.0088254,17.6235077 L28.3285259,17.6235077 L27.1703325,18.0617517 C31.6924632,18.1518892 34.0302231,18.2823204 34.183612,18.4530453 L25.8130836,18.3649749 L24.1429241,19.0245612 C30.9931124,19.2067703 34.5385912,19.4170386 34.7793605,19.6553658 C35.1405145,20.0128566 22.523226,19.9005707 21.96531,19.6553658 L20.3104758,20.5463268 C29.36712,20.6658756 33.9434704,20.9236242 34.039527,21.3195728 C34.1355837,21.7155214 28.8267501,21.7155214 18.1130262,21.3195728 L15.6360013,22.6387328 C27.5249901,22.7721962 33.6131923,23.0116495 33.9006079,23.3570926 C34.1880234,23.7025357 27.3361189,23.7960962 13.3448943,23.6377741 L10.5547207,25.4354466 L23.9452677,26.1139393 C10.8686632,26.5875476 2.88690728,25.8940676 -2.84217094e-13,24.0334992 L1.24933319,23.6825597 L1.24933319,21.9476081 L3.12298641,21.3195728 L3.12298641,22.6387328 L4.81249799,21.9476081 L4.81249799,20.8421788 L6.60308946,20.3479526 L6.60308946,21.6508179 L8.34900409,21.3195728 L8.34900409,20.3479526 L10.5547207,19.8929425 L13.3448943,7.85256223 L23.9452677,4.60614167 L23.5871622,17.3815705 L24.7400383,17.2556655 L24.7400383,4.60614167 Z M30.4739249,8.71913106 L30.4739249,10.5228014 L31.5639856,10.7210987 L31.5639856,9.10788364 L30.4739249,8.71913106 Z M16.2658216,8.58905158 L15.0638326,8.74628538 L14.7319819,10.5228014 L16.0523136,10.5228014 L16.2658216,8.58905158 Z M18.7736294,7.6908297 L17.5207082,8.17597056 L17.3934834,10.142162 L18.5797521,9.78149965 L18.7736294,7.6908297 Z M27.6102912,7.52593396 L27.6102912,9.55592648 L28.8276917,9.91232815 L28.8276917,8.0404363 L27.6102912,7.52593396 Z M21.8460527,6.97430519 L20.5268242,7.30951762 L20.2603751,9.55592648 L21.6486769,9.39797557 L21.8460527,6.97430519 Z" id="形状结合"></path>
                <path d="M34.3703185,10.7210987 L34.9940753,15.9467262 C37.3701228,17.8446841 38.8568233,19.4615087 39.4541768,20.7972 L49.6555313,15.4008495 C48.9309577,14.4987725 48.2090097,14.047734 47.4896873,14.047734 L47.3094787,15.7372785 L45.5436738,15.1020136 L45.5436738,13.4026829 L44.0251484,12.9954833 L43.8555614,14.434884 L42.1761611,13.8490273 L42.1761611,12.4128488 L40.5103659,12.0327401 L40.3234741,13.4026829 L38.7061324,12.9954833 L38.7061324,11.6708909 L37.0350861,11.3632236 L36.8742112,12.4128488 L35.8710106,12.0327401 L35.7061973,11.008535 L34.3703185,10.7210987 Z" id="路径-157"></path>
                <path d="M49.6555313,16.8133798 L44.689705,19.785587 L45.5504334,21.2724034 L43.7132245,22.7147436 L42.4676059,21.2724034 L38.4136349,23.1369048 L39.1291632,24.5409257 L37.9587053,25.2993451 L37.1193825,23.5926475 L32.9153451,24.9755279 L33.5132826,26.7468669 L32.3796175,27.1332928 L31.5639856,25.2993451 L27.6102912,26.2580832 L27.6102912,28.0177427 L26.6968594,28.3533498 L26.6968594,26.7468669 L23.2749268,27.1332928 L23.2749268,28.7027521 L21.9326908,28.7027521 L21.9326908,27.2889132 L18.4674183,27.6021528 L18.4674183,28.7027521 L17.6426903,28.7027521 L17.6426903,27.6021528 L14.2138779,27.6021528 L14.2138779,28.3533498 L13.7781651,28.3533498 L13.7781651,27.6021528 L10.6011996,27.4597936 L10.6011996,28.0177427 L10.0466153,28.0177427 L10.0466153,27.2889132 C5.44964017,26.868101 2.21440629,26.3049 0.34091368,25.5993103 C15.6662978,32.2623675 32.1760507,31.0612222 49.8701722,21.9958745 C50.0418937,20.2716658 49.9703467,18.5441675 49.6555313,16.8133798 Z" id="路径-158"></path>
                <path d="M0.34091368,26.2580832 C8.00009055,29.2343292 25.3505284,36.5928563 49.9610994,22.8675773 C49.8677959,24.9844415 49.6359859,26.4944675 49.2656693,27.3976552 C48.7101944,28.7524367 19.4272907,38.9754828 0.34091368,26.2580832 Z" id="路径-159"></path>
                <path d="M47.3262685,33.0184837 C28.9668381,36.0671991 13.3050532,34.1614634 0.34091368,27.3012767 C8.81239171,34.9319143 23.2539595,38.4904162 43.6656169,37.9767823 C45.2555736,36.6055529 46.4757908,34.9527867 47.3262685,33.0184837 Z" id="路径-160"></path>
                <path d="M37.4652245,43.2399979 C23.1378567,42.1939769 10.9623765,37.3414649 0.938783892,28.6824617 C4.5253241,35.2543492 11.9645168,41.1236482 23.2563619,46.290359 C27.1965021,46.2608831 31.9327896,45.2440961 37.4652245,43.2399979 Z" id="路径-161"></path>
            </g>
        </g>
    </g>
</svg>