<?xml version="1.0" encoding="UTF-8"?>
<svg width="90px" height="90px" viewBox="0 0 90 90" version="1.1" xmlns="http://www.w3.org/2000/svg" xmlns:xlink="http://www.w3.org/1999/xlink">
    <!-- Generator: Sketch 60.1 (88133) - https://sketch.com -->
    <title>海关总署</title>
    <desc>Created with Sketch.</desc>
    <g id="海关总署" stroke="none" stroke-width="1" fill="none" fill-rule="evenodd">
        <g>
            <rect id="矩形备份-11" stroke="#EBEBEB" x="0" y="0" width="90" height="90" rx="45"></rect>
            <path d="M66.037404,46.5128476 C66.037404,46.5128476 65.0060512,43.694056 65.0060512,39.843999 C65.0060512,39.843999 64.7997806,39.1564889 64.59351,39.775248 C64.59351,39.775248 64.4559963,43.3503009 64.59351,43.625305 C64.59351,43.625305 63.630914,43.625305 63.3558866,39.4314929 C63.3558866,39.4314929 63.2871298,38.7439828 63.1496161,39.4314929 C63.1496161,39.4314929 63.1496161,43.0752968 62.5308043,40.8752643 C62.5308043,40.8752643 61.9807495,38.8814848 61.9119926,37.6439665 C61.9119926,37.6439665 61.5682084,37.8502196 61.3619378,38.8127338 C61.3619378,38.8127338 60.7431261,38.8814848 60.5368555,36.2689462 C60.5368555,36.2689462 60.330585,35.650187 60.1243144,36.2689462 C60.1243144,36.2689462 59.849287,37.2314604 59.9868007,37.7127175 C59.9868007,37.7127175 59.0929615,37.5752155 59.1617184,34.8939259 C59.1617184,34.8939259 58.6116635,35.1689299 58.7491773,36.1314442 C58.7491773,36.1314442 58.7491773,36.7502033 58.3366361,36.1314442 C58.3366361,36.1314442 57.1677696,35.1001789 55.9301462,35.512685 C55.9301462,35.512685 55.5863619,35.443934 54.6925227,36.4064482 L51.6672211,39.568995 C51.6672211,39.568995 52.6298171,41.4940234 54.6925227,40.6690112 C54.6925227,40.6690112 55.1738207,40.6002602 55.7238756,40.1190031 C55.7238756,40.1190031 55.7926324,38.7439828 56.6177147,38.5377297 C56.6177147,38.5377297 57.7178244,38.3314767 58.6116635,39.3627419 C58.6116635,39.3627419 59.5742595,40.6002602 58.5429067,41.7002765 C58.5429067,41.7002765 57.3740401,44.9315743 51.3921937,42.8690438 C51.3921937,42.8690438 52.1485191,45.7565865 48.4356488,46.7878517 L48.1606214,47.0628558 L53.4548993,51.5316719 C53.4548993,51.5316719 54.4862522,52.4941861 55.7238756,51.6004229 C55.7238756,51.6004229 59.2992321,49.3316393 62.3932906,51.3254188 C62.3932906,51.3254188 67,54.3504635 65.074808,60.538055 C65.074808,60.538055 62.7370749,68.1006668 55.4488482,66.8631485 C55.4488482,66.8631485 49.1232174,64.1818589 50.6358682,58.5442755 L51.1859231,56.8255001 C51.1859231,56.8255001 51.8734916,55.7942349 50.4983545,54.9004717 L45.2040766,50.1566515 C45.2040766,50.1566515 44.1727238,52.9754432 39.8410418,53.0441942 C39.8410418,53.0441942 40.1848261,58.3380225 34.3404933,57.4442593 L26.0209137,66.9318995 L25.6771294,66.6568955 L33.1716268,56.344243 C33.1716268,56.344243 31.7964896,50.7754107 37.1595244,50.8441617 L37.5033087,50.5004066 C37.5033087,50.5004066 36.1969284,46.8566027 39.9097987,45.3440804 L23.4081532,31.0438689 C23.4081532,31.0438689 22.4455572,30.2876077 23.47691,28.7063344 C23.47691,28.7063344 24.8520472,27.9500732 26.0209137,29.0500895 L42.5225592,42.2502846 L42.9351003,41.8377785 C42.9351003,41.8377785 43.2101278,38.5377297 46.8542411,38.1939746 C46.8542411,38.1939746 47.1292686,37.0939584 46.3041863,35.7189381 C46.3041863,35.7189381 45.2040766,33.7939096 46.3041863,32.2126362 C46.3041863,32.2126362 47.1980254,30.7688649 49.1232174,31.525126 C49.1232174,31.525126 50.9796525,32.3501382 50.0170565,33.5189055 C50.0170565,33.5189055 49.2607311,34.2064157 48.84819,34.2751667 C48.84819,34.2751667 48.5731625,37.2314604 50.4295977,37.0252074 L53.592413,33.5189055 C53.592413,33.5189055 54.4862522,32.4876403 53.1798719,31.456375 C53.1798719,31.456375 52.0110054,30.8376159 53.4548993,30.4251098 C53.4548993,30.4251098 54.0049542,30.4938608 54.073711,30.0126037 C54.073711,30.0126037 54.2112248,29.7375996 53.0423582,29.7375996 C53.0423582,29.7375996 51.1859231,29.9438527 51.3234368,29.2563425 L52.9736013,28.9813384 C52.9736013,28.9813384 53.592413,28.7063344 52.7673308,28.7063344 L50.9108957,28.6375834 C50.9108957,28.6375834 49.9482997,28.7063344 49.5357585,28.0875752 L51.5984642,28.0188242 C51.5984642,28.0188242 52.1485191,28.0188242 52.0110054,27.5375671 C52.0110054,27.5375671 52.0110054,27.331314 51.3234368,27.331314 L47.0605117,27.193812 C47.0605117,27.193812 46.7854843,26.7813059 47.9543508,26.7125549 L50.0858134,26.6438039 C50.0858134,26.6438039 50.6358682,26.5750529 50.0170565,26.2312978 C50.0170565,26.2312978 50.1545702,26.1625468 49.1919743,26.0250447 L45.2040766,25.7500407 C45.2040766,25.7500407 44.2414806,25.2000325 45.1353197,25.0625305 L49.4670017,24.9250285 C49.4670017,24.9250285 50.0170565,24.5812734 49.4670017,24.3062693 L42.1100181,24.3062693 C42.1100181,24.3062693 41.6974769,24.4437713 41.2849358,23.7562612 C41.2849358,23.7562612 41.1474221,23.3437551 41.9037475,23.206253 L51.7359779,23 C51.7359779,23 54.9675502,23.068751 55.517605,26.1625468 C55.517605,26.1625468 55.7238756,27.125061 55.6551187,28.5000813 C55.6551187,28.5000813 55.998903,29.4625956 56.6864716,29.2563425 C56.6864716,29.2563425 57.3740401,29.5313466 58.1991224,28.4313303 C58.1991224,28.4313303 58.405393,27.7438201 58.4741498,27.262563 C58.4741498,27.262563 58.5429067,25.8187917 60.6743692,25.9562937 C60.6743692,25.9562937 62.1870201,26.5750529 62.8745886,27.9500732 C62.8745886,27.9500732 63.630914,28.7750854 62.5995612,29.6688486 C62.5995612,29.6688486 61.9807495,30.5626118 60.7431261,30.5626118 C60.7431261,30.5626118 59.4367458,30.9063669 59.5055027,32.1438852 C59.5055027,32.1438852 59.5742595,34.0001626 61.6369652,33.7251586 C61.6369652,33.7251586 63.1496161,32.6938933 64.3184826,33.3126525 C64.3184826,33.3126525 66.1749177,34.0689137 66.1749177,37.3002114 L67,47.4066109 C67,47.4066109 66.518702,47.956619 66.037404,46.5128476 Z" id="路径" fill="#386BA9" fill-rule="nonzero"></path>
        </g>
    </g>
</svg>