<?xml version="1.0" encoding="UTF-8"?>
<svg width="90px" height="90px" viewBox="0 0 90 90" version="1.1" xmlns="http://www.w3.org/2000/svg" xmlns:xlink="http://www.w3.org/1999/xlink">
    <!-- Generator: Sketch 60.1 (88133) - https://sketch.com -->
    <title>湖南省</title>
    <desc>Created with Sketch.</desc>
    <g id="湖南省" stroke="none" stroke-width="1" fill="none" fill-rule="evenodd">
        <g>
            <rect id="矩形备份-9" stroke="#EBEBEB" x="0" y="0" width="90" height="90" rx="45"></rect>
            <g id="编组-111" transform="translate(23.000000, 26.000000)">
                <rect id="矩形" fill="#3C5072" x="14.6105274" y="0" width="3.97740113" height="38.2824859"></rect>
                <circle id="椭圆形" fill="#3C5072" cx="5.66137483" cy="2.98305085" r="2.98305085"></circle>
                <path d="M2.68819758,7.06544697 L25.9227438,7.06544697 C28.6685663,7.06544697 30.8944952,9.2913759 30.8944952,12.0371984 L30.8944952,21.5584321 L30.8944952,21.5584321 L39.5609962,21.5584321 L39.5609962,19.7890354 L43.9921591,23.609292 L39.5609962,27.5793462 L39.5609962,25.7692224 L26.7285774,25.7692224 L26.7285774,13.1494515 C26.7285774,12.0511225 25.8382059,11.1607509 24.7398769,11.1607509 L2.68819758,11.1607509 L2.68819758,11.1607509 L2.68819758,7.06544697 Z" id="路径-189" fill="#27C9E1"></path>
                <path d="M2.68819758,13.1915422 L6.93417903,13.1915422 L6.93417903,25.686689 C6.93417903,29.5163303 3.82964133,32.620868 0,32.620868 L0,32.620868 L0,32.620868 L0,28.1764822 L0.699497015,28.1764822 C1.79782601,28.1764822 2.68819758,27.2861107 2.68819758,26.1877817 L2.68819758,13.1915422 L2.68819758,13.1915422 Z" id="路径-190" fill="#3C5072"></path>
                <path d="M22.1740047,0 L37.5288823,0 C41.0984515,-6.5571923e-16 43.9921591,2.89370761 43.9921591,6.46327684 L43.9921591,17.3223966 L43.9921591,17.3223966 L33.0830819,17.3223966 L33.0830819,13.1915422 L39.4891847,13.1915422 L39.4891847,6.96045198 C39.4891847,5.86212298 38.5988131,4.97175141 37.5004841,4.97175141 L22.1740047,4.97175141 L22.1740047,4.97175141 L22.1740047,0 Z" id="路径-191" fill="#3C5072"></path>
                <path d="M5.16419969,38.2824859 L7.58008238,38.2824859 C10.3259049,38.2824859 12.5518338,36.0565569 12.5518338,33.3107345 L12.5518338,17.3223966 L12.5518338,17.3223966 L20.7043821,17.3223966 L20.7043821,33.3107345 C20.7043821,36.0565569 22.930311,38.2824859 25.6761335,38.2824859 L38.5232326,38.2824859 C41.5436373,38.2824859 43.9921591,35.8339641 43.9921591,32.8135593 L43.9921591,28.7217651 L43.9921591,28.7217651 L39.3698388,28.7217651 L39.3698388,31.8116965 C39.3698388,32.9100255 38.4794672,33.8003971 37.3811382,33.8003971 L26.56688,33.8003971 C25.468551,33.8003971 24.5781794,32.9100255 24.5781794,31.8116965 L24.5781794,13.1915422 L24.5781794,13.1915422 L8.84909977,13.1915422 L8.84909977,31.8116965 C8.84909977,32.9100255 7.9587282,33.8003971 6.8603992,33.8003971 L5.16419969,33.8003971 L5.16419969,33.8003971" id="路径-192" fill="#3C5072"></path>
            </g>
        </g>
    </g>
</svg>