<?xml version="1.0" encoding="UTF-8"?>
<svg width="90px" height="90px" viewBox="0 0 90 90" version="1.1" xmlns="http://www.w3.org/2000/svg" xmlns:xlink="http://www.w3.org/1999/xlink">
    <!-- Generator: Sketch 60.1 (88133) - https://sketch.com -->
    <title>吉林省</title>
    <desc>Created with Sketch.</desc>
    <g id="吉林省" stroke="none" stroke-width="1" fill="none" fill-rule="evenodd">
        <g>
            <rect id="矩形备份-3" stroke="#EBEBEB" x="0" y="0" width="90" height="90" rx="45"></rect>
            <g id="编组" transform="translate(5.399000, 29.000000)" fill="#FF5F00">
                <path d="M60.601,1 C52.55935,7.13511834 48.188071,12.7846787 47.4871629,17.9486812 C46.4358007,25.6946849 50.9615913,27.2913994 60.601,30 C49.0315313,28.6702381 39.6981979,26.2644789 32.601,22.7827222 C38.7210985,21.8709031 42.7721004,19.1468366 44.7540056,14.6105225 C47.7268635,7.80605131 48.0564105,1 60.601,1 Z M54.601,0 C50.3916885,2.06332871 47.7568198,4.36701192 46.696394,6.91104964 C45.1057553,10.7271062 41.6932659,22.9964373 30.8959755,21.93519 C23.8052177,21.2382514 13.5767959,15.7913735 0.210710274,5.59455633 L-0.026,5.413 L0.316147881,5.6665809 C3.17987946,7.73552515 6.08129172,8.76999728 9.02038466,8.76999728 C14.3362561,14.5594034 20.2554392,17.4541065 26.7779339,17.4541065 C36.561676,17.4541065 40.8804392,7.26283783 43.9099965,4.58540418 C46.9395538,1.90797052 50.2493567,0 54.601,0 Z" id="形状结合"></path>
                <text id=".GOV" font-family="PingFangSC-Semibold, PingFang SC" font-size="10" font-weight="500">
                    <tspan x="54.776" y="26">.GOV</tspan>
                </text>
            </g>
        </g>
    </g>
</svg>