<?xml version="1.0" encoding="UTF-8"?>
<svg width="90px" height="90px" viewBox="0 0 90 90" version="1.1" xmlns="http://www.w3.org/2000/svg" xmlns:xlink="http://www.w3.org/1999/xlink">
    <!-- Generator: Sketch 60.1 (88133) - https://sketch.com -->
    <title>江苏省</title>
    <desc>Created with Sketch.</desc>
    <defs>
        <linearGradient x1="50%" y1="0%" x2="50%" y2="100%" id="linearGradient-1">
            <stop stop-color="#00AAEF" offset="0%"></stop>
            <stop stop-color="#6AD0FD" offset="100%"></stop>
        </linearGradient>
        <linearGradient x1="50%" y1="0%" x2="50%" y2="100%" id="linearGradient-2">
            <stop stop-color="#FF8D00" offset="0%"></stop>
            <stop stop-color="#FFA70F" offset="100%"></stop>
        </linearGradient>
        <linearGradient x1="17.2242711%" y1="37.5%" x2="87.650153%" y2="62.5%" id="linearGradient-3">
            <stop stop-color="#69D0FC" offset="0%"></stop>
            <stop stop-color="#00AAEF" offset="100%"></stop>
        </linearGradient>
        <linearGradient x1="18.1152524%" y1="6.34922376%" x2="77.8107851%" y2="100%" id="linearGradient-4">
            <stop stop-color="#89E66B" offset="0%"></stop>
            <stop stop-color="#1AACF2" offset="100%"></stop>
        </linearGradient>
        <linearGradient x1="19.2110367%" y1="37.5%" x2="100%" y2="66.7372983%" id="linearGradient-5">
            <stop stop-color="#FFAC12" offset="0%"></stop>
            <stop stop-color="#FF8E00" offset="100%"></stop>
        </linearGradient>
    </defs>
    <g id="江苏省" stroke="none" stroke-width="1" fill="none" fill-rule="evenodd">
        <g>
            <rect id="矩形" stroke="#EBEBEB" x="0" y="0" width="90" height="90" rx="45"></rect>
            <g id="编组-108" transform="translate(22.000000, 28.000000)" stroke-linecap="round" stroke-width="5.81052632">
                <path d="M5.87660995,15.1815101 C2.51838138,15.928739 3.19744231e-14,19.0369843 3.19744231e-14,22.7578947 C3.19744231e-14,27.0366482 3.3301024,30.5052632 7.43799189,30.5052632 C8.34393205,30.5052632 9.21204344,30.3365622 10.0149496,30.0276753" id="路径" stroke="url(#linearGradient-1)"></path>
                <path d="M41.7239266,15.1815101 C38.3656981,15.928739 35.8473167,19.0369843 35.8473167,22.7578947 C35.8473167,27.0366482 39.1774191,30.5052632 43.2853086,30.5052632 C44.1912487,30.5052632 45.0593601,30.3365622 45.8622663,30.0276753" id="路径备份-8" stroke="url(#linearGradient-2)" transform="translate(40.854792, 22.843387) scale(-1, 1) translate(-40.854792, -22.843387) "></path>
                <path d="M30.5210009,30.5052632 C30.5210009,26.3602208 27.1607801,23 23.0157378,23 C18.8706954,23 15.5104746,26.3602208 15.5104746,30.5052632" id="路径备份-9" stroke="url(#linearGradient-3)" transform="translate(23.015738, 26.752632) scale(-1, -1) translate(-23.015738, -26.752632) "></path>
                <path d="M15.5104746,7.50526316 C15.8306815,12.3506433 18.6408277,15.1174756 23.9409132,15.8057602 C28.4456669,16.3907608 30.6357348,18.7617239 30.511117,22.9186497" id="路径-185" stroke="url(#linearGradient-4)"></path>
                <path d="M30.5210009,7.50526316 C30.5210009,3.36022077 27.1607801,0 23.0157378,0 C18.8706954,0 15.5104746,3.36022077 15.5104746,7.50526316" id="路径" stroke="url(#linearGradient-5)"></path>
            </g>
        </g>
    </g>
</svg>