<?xml version="1.0" encoding="UTF-8"?>
<svg width="90px" height="90px" viewBox="0 0 90 90" version="1.1" xmlns="http://www.w3.org/2000/svg" xmlns:xlink="http://www.w3.org/1999/xlink">
    <!-- Generator: Sketch 60.1 (88133) - https://sketch.com -->
    <title>辽宁省</title>
    <desc>Created with Sketch.</desc>
    <defs>
        <linearGradient x1="50%" y1="0%" x2="50%" y2="100%" id="linearGradient-1">
            <stop stop-color="#00C8FF" offset="0%"></stop>
            <stop stop-color="#1A71EB" offset="100%"></stop>
        </linearGradient>
    </defs>
    <g id="辽宁省" stroke="none" stroke-width="1" fill="none" fill-rule="evenodd">
        <rect id="矩形备份-9" stroke="#EBEBEB" x="0.5" y="0.5" width="89" height="89" rx="44.5"></rect>
        <path d="M33.0692838,23.0500783 L33.2303127,23.0569105 C33.6053135,23.0887925 33.972613,23.2322423 34.2783036,23.4869898 L34.4053847,23.6029806 L44.1692977,33.3670783 L53.1388665,24.3974707 C53.4671361,24.069995 53.8856812,23.8878372 54.314257,23.8514006 L54.4752863,23.8445684 L54.6363325,23.8514006 C55.0113657,23.8832826 55.3786549,24.0267324 55.6845323,24.2814799 L55.8117062,24.3974707 L70.271949,38.8585428 L70.3881509,38.9856651 C70.9714388,39.6845449 70.9714388,40.7043597 70.3881509,41.4032395 L70.271949,41.5303618 L45.3619351,66.4409498 L45.2349048,66.556971 C44.9293274,66.8117625 44.5621035,66.9550827 44.1871484,66.9869317 L44.0261372,66.9937565 C43.5963502,66.9937565 43.1665253,66.8481613 42.8171428,66.556971 L42.6900523,66.4409498 L25.121257,48.8715166 L25.0051354,48.744622 C24.4222507,48.0468149 24.4222507,47.0258801 25.0051354,46.3273169 L25.121257,46.2002717 L27.8803051,43.7518226 C28.2082911,43.4237798 28.6268048,43.241559 29.0557803,43.2051154 L29.2169801,43.1982823 L29.3780094,43.2051154 C29.7530126,43.2370036 30.1203318,43.3805024 30.4261791,43.6356418 L30.5533362,43.7518226 L44.1871484,57.4164645 L61.4029761,40.3251796 L54.314257,33.3670783 L44.1871484,42.4934397 L33.2303127,32.1872827 L29.3597398,35.942174 L29.2328346,36.0583859 C28.9275193,36.3135964 28.5603565,36.4571523 28.1854078,36.4890537 L28.0243965,36.4958897 C27.5946023,36.4958897 27.1647263,36.3500551 26.8154669,36.0583859 L26.6884312,35.942174 L24.4098266,33.5991128 L24.2936549,33.4721127 C23.7105181,32.7737479 23.7105181,31.7523564 24.2936549,31.0542437 L24.4098266,30.9272938 L31.7335657,23.6029806 C32.0609847,23.2755049 32.4796369,23.0933471 32.908247,23.0569105 L33.0692838,23.0500783 Z M22.0194798,35.5274114 L22.238703,35.5333928 C23.1149111,35.5812437 23.9786369,35.9161908 24.6763467,36.5380047 L24.8472267,36.6994344 L24.9935831,36.8535985 C26.3612025,38.3718798 26.3612025,40.6847273 24.9935831,42.2031149 L24.8472267,42.3572903 L24.6931434,42.5035554 C24.0128797,43.1162438 23.1728815,43.4542788 22.3162633,43.5176603 L22.1183523,43.5274114 L21.9202421,43.5274114 C21.0060288,43.504909 20.0979387,43.170836 19.3688901,42.5251923 L19.190458,42.3572903 L19.0442153,42.2031149 C17.6305358,40.6323691 17.6792834,38.2114284 19.190458,36.6994344 C19.9157439,35.9740091 20.8505697,35.5852313 21.8001681,35.5333928 L22.0194798,35.5274114 Z" id="形状" fill="url(#linearGradient-1)"></path>
    </g>
</svg>