<?xml version="1.0" encoding="UTF-8"?>
<svg width="90px" height="90px" viewBox="0 0 90 90" version="1.1" xmlns="http://www.w3.org/2000/svg" xmlns:xlink="http://www.w3.org/1999/xlink">
    <!-- Generator: Sketch 60.1 (88133) - https://sketch.com -->
    <title>水土保持生态文明工程信息查询</title>
    <desc>Created with Sketch.</desc>
    <g id="水土保持生态文明工程信息查询" stroke="none" stroke-width="1" fill="none" fill-rule="evenodd">
        <g>
            <circle id="椭圆形备份-125" fill="#EDF8FF" cx="45" cy="45" r="45"></circle>
            <path d="M54,60.3809524 L45,64 L36,60.3809524 L27,64 L27,29.6190476 C27,27.6203028 28.6117749,26 30.6,26 L59.4,26 C61.3882251,26 63,27.6203028 63,29.6190476 L63,48.4375828" id="路径" stroke="#0096FA" stroke-width="4"></path>
            <path d="M35,34 L55,34 C56.1045695,34 57,34.8954305 57,36 C57,37.1045695 56.1045695,38 55,38 L35,38 C33.8954305,38 33,37.1045695 33,36 C33,34.8954305 33.8954305,34 35,34 Z" id="矩形" fill="#0096FA"></path>
            <rect id="矩形备份-95" fill="#0096FA" x="33" y="43" width="14" height="4" rx="2"></rect>
            <rect id="矩形备份-98" fill="#0096FA" transform="translate(67.000000, 63.000000) rotate(-45.000000) translate(-67.000000, -63.000000) " x="65" y="59" width="4" height="8" rx="2"></rect>
            <circle id="椭圆形备份-60" stroke="#0096FA" stroke-width="4" cx="59" cy="55" r="8"></circle>
        </g>
    </g>
</svg>