<?xml version="1.0" encoding="UTF-8"?>
<svg width="90px" height="90px" viewBox="0 0 90 90" version="1.1" xmlns="http://www.w3.org/2000/svg" xmlns:xlink="http://www.w3.org/1999/xlink">
    <!-- Generator: Sketch 57.1 (83088) - https://sketch.com -->
    <title>爱山东</title>
    <desc>Created with Sketch.</desc>
    <g id="爱山东" stroke="none" stroke-width="1" fill="none" fill-rule="evenodd">
        <g id="四川省" stroke="#EBEBEB">
            <rect id="矩形备份-2" x="0" y="0" width="90" height="90" rx="45"></rect>
        </g>
        <g id="编组-30备份-2" transform="translate(23.000000, 24.000000)" stroke="#D10000" stroke-width="1.5">
            <path d="M0,8.09978605 L0,1.94485651 C-4.13327292e-17,1.60734916 0.273603764,1.3337454 0.611111111,1.3337454 L4.4785273,1.3337454 C4.81603465,1.3337454 5.08963841,1.60734916 5.08963841,1.94485651 L5.08963841,10.5245591 C5.08963841,10.8620665 4.81603465,11.1356702 4.4785273,11.1356702 L0.611111111,11.1356702 C0.273603764,11.1356702 -4.13327292e-17,11.409274 0,11.7467814 L0,18.9044945 C4.13327292e-17,19.2420018 0.273603764,19.5156056 0.611111111,19.5156056 L17.7345143,19.5156056 C18.0720216,19.5156056 18.3456254,19.2420018 18.3456254,18.9044945 L18.3456254,11.7467814 C18.3456254,11.409274 18.0720216,11.1356702 17.7345143,11.1356702 L13.6080723,11.1356702 C13.2705649,11.1356702 12.9969612,10.8620665 12.9969612,10.5245591 L12.9969612,1.94485651 C12.9969612,1.60734916 13.2705649,1.3337454 13.6080723,1.3337454 L17.7345143,1.3337454 C18.0720216,1.3337454 18.3456254,1.60734916 18.3456254,1.94485651 L18.3456254,8.09978605 L18.3456254,8.09978605" id="路径-23" stroke-linecap="round"></path>
            <path d="M9.1728127,1.25374079 L9.1728127,14.0870741" id="路径-24" stroke-linecap="round"></path>
            <polyline id="路径-25" points="2.56233624 19.5156056 9.1728127 13.9805985 15.3089203 19.5156056"></polyline>
            <path d="M0,23.4471901 L0,24.587155 C1.52355032e-16,24.9246623 0.273603764,25.1982661 0.611111111,25.1982661 L17.7345143,25.1982661 C18.0720216,25.1982661 18.3456254,24.9246623 18.3456254,24.587155 L18.3456254,23.4471901 L18.3456254,23.4471901" id="路径-26" stroke-linecap="round"></path>
            <path d="M0,28.4233996 L0,33.2703429 C4.90982843e-16,33.6078503 0.273603764,33.881454 0.611111111,33.881454 L17.7345143,33.881454 C18.0720216,33.881454 18.3456254,33.6078503 18.3456254,33.2703429 L18.3456254,28.4233996 C18.3456254,28.0858922 18.0720216,27.8122885 17.7345143,27.8122885 L0.611111111,27.8122885 C0.273603764,27.8122885 -4.85421939e-16,28.0858922 0,28.4233996 Z" id="路径-27"></path>
            <path d="M-3.23296945e-13,41.242311 L-3.23296945e-13,37.3544328 C-3.23338278e-13,37.0169254 0.273603764,36.7433217 0.611111111,36.7433217 L17.7345143,36.7433217 C18.0720216,36.7433217 18.3456254,37.0169254 18.3456254,37.3544328 L18.3456254,41.242311 L18.3456254,41.242311" id="路径-28" stroke-linecap="round"></path>
            <path d="M9.1728127,23.4471901 L9.1728127,41.242311" id="路径-29" stroke-linecap="round"></path>
            <path d="M0,30.8468712 L18.3456254,30.8468712" id="路径-30"></path>
            <path d="M24.9421555,0 L24.9421555,8.2239668 C24.9421555,8.56147415 25.2157593,8.83507791 25.5532666,8.83507791 L43.2765317,8.83507791 C43.6140391,8.83507791 43.8876429,8.56147415 43.8876429,8.2239668 L43.8876429,0 L43.8876429,0" id="路径-31" stroke-linecap="round"></path>
            <path d="M24.6365999,2.23729409 L43.5820873,2.23729409" id="路径-32"></path>
            <path d="M34.4148992,0 L34.4148992,12.7340313 L34.4148992,12.7340313 L34.4148992,19.5156056" id="路径-33" stroke-linecap="round"></path>
            <path d="M34.4148992,13.1531423 L43.8876429,13.1531423" id="路径-34" stroke-linecap="round"></path>
            <path d="M34.4148992,17.2259753 L43.8876429,17.2259753" id="路径-35" stroke-linecap="round"></path>
            <path d="M24.9421555,23.6310385 L24.9421555,41.3250559 C24.9421555,41.6625633 25.2157593,41.936167 25.5532666,41.936167 L43.2765317,41.936167 C43.6140391,41.936167 43.8876429,41.6625633 43.8876429,41.3250559 L43.8876429,23.6310385 C43.8876429,23.2935312 43.6140391,23.0199274 43.2765317,23.0199274 L25.5532666,23.0199274 C25.2157593,23.0199274 24.9421555,23.2935312 24.9421555,23.6310385 Z" id="路径-36"></path>
            <path d="M24.9421555,28.5095098 L43.8876429,28.5095098" id="路径-37"></path>
            <path d="M27.1464447,30.2348072 L27.1464447,36.1322105 C27.1464447,36.4697179 27.4200485,36.7433217 27.7575558,36.7433217 L33.4982325,36.7433217 C33.8357399,36.7433217 34.1093436,36.4697179 34.1093436,36.1322105 L34.1093436,30.2348072 L34.1093436,30.2348072" id="路径-38" stroke-linecap="round"></path>
            <path d="M27.1464447,32.3447506 L34.1093436,32.3447506" id="路径-39"></path>
            <path d="M27.1464447,39.1426297 L34.1093436,39.1426297" id="路径-40" stroke-linecap="round"></path>
            <path d="M27.1464447,25.725504 L35.4491412,25.725504 C35.7126892,25.725504 35.9465489,25.8944614 36.0293263,26.1446722 L41.2536322,41.936167 L41.2536322,41.936167" id="路径-41" stroke-linecap="round"></path>
            <path d="M36.8326692,28.5095098 L43.8876429,23.4471901" id="路径-42"></path>
            <path d="M35.2520216,41.936167 L37.2659444,33.9507329 C37.3344035,33.6792847 37.5785535,33.4890644 37.8585013,33.4890644 L43.8876429,33.4890644 L43.8876429,33.4890644" id="路径-43"></path>
        </g>
    </g>
</svg>