<?xml version="1.0" encoding="UTF-8"?>
<svg width="90px" height="90px" viewBox="0 0 90 90" version="1.1" xmlns="http://www.w3.org/2000/svg" xmlns:xlink="http://www.w3.org/1999/xlink">
    <!-- Generator: Sketch 60.1 (88133) - https://sketch.com -->
    <title>中国法律服务网 </title>
    <desc>Created with Sketch.</desc>
    <defs>
        <linearGradient x1="50%" y1="0%" x2="50%" y2="100%" id="linearGradient-1">
            <stop stop-color="#65ADFF" offset="0%"></stop>
            <stop stop-color="#1F75FF" offset="100%"></stop>
        </linearGradient>
        <linearGradient x1="50%" y1="0%" x2="50%" y2="100%" id="linearGradient-2">
            <stop stop-color="#65ADFF" offset="0%"></stop>
            <stop stop-color="#1F75FF" offset="100%"></stop>
        </linearGradient>
    </defs>
    <g id="中国法律服务网-" stroke="none" stroke-width="1" fill="none" fill-rule="evenodd">
        <g id="中国法律服务网">
            <rect id="矩形备份-15" stroke="#EBEBEB" x="0.5" y="0.5" width="89" height="89" rx="44.5"></rect>
            <g id="编组" transform="translate(14.000000, 25.000000)">
                <path d="M0.170247979,18.6133515 C4.58629935,21.1473021 8.09213121,22.4142775 10.6877436,22.4142775 C14.5811621,22.4142775 22.2659634,21.8277698 28.4123559,28.0735392 C22.9184214,26.280203 17.6167663,25.5563656 12.5073904,25.902027 C7.39801461,26.2476885 3.28563379,23.81813 0.170247979,18.6133515 Z M61.6553841,18.6133515 C58.5399983,23.81813 54.4276175,26.2476885 49.3182416,25.902027 C44.2088658,25.5563656 38.9072107,26.280203 33.4132762,28.0735392 C39.5596687,21.8277698 47.24447,22.4142775 51.1378885,22.4142775 C53.7335009,22.4142775 57.2393327,21.1473021 61.6553841,18.6133515 Z M26.5597916,4.88389027 C28.9180181,4.64978301 30.8424972,5.49166377 31.3427,6.83826927 C32.0879414,8.84454725 30.9547704,10.4844101 27.9431871,11.7578578 C32.1021487,11.5433319 33.5358019,15.058564 31.5869225,17.6632603 C30.2876696,19.3997246 27.323191,20.4648149 22.6934866,20.8585312 L22.6934866,20.8585312 L22.7181026,19.8218647 C26.7585429,19.4408843 30.5006283,18.082831 29.8204977,15.058564 C29.3670774,13.042386 27.7081576,12.2150866 24.8437384,12.576666 L24.8437384,12.576666 L24.8437384,11.7578578 C26.7450952,11.5565066 28.0544529,10.9820767 28.7718112,10.0345682 C29.8478488,8.61330553 28.8684518,6.6496167 27.1367857,6.25831824 C25.9823416,5.99745261 24.7035641,6.25831824 23.300453,7.04091515 L23.300453,7.04091515 L22.7181026,6.25831824 C23.9344665,5.47553095 25.2150295,5.01738829 26.5597916,4.88389027 Z M43.3867178,4.23558842 L43.3867178,13.27295 L46.0462594,13.27295 L46.0462594,14.3263728 L43.3867178,14.3263728 L43.3867178,19.4524021 L41.3320614,19.8218647 L41.3320614,14.3263728 L34.6590366,14.3263728 L34.6590366,13.5293004 L42.0139764,4.23558842 L43.3867178,4.23558842 Z M53.7835138,8.70414851e-14 C55.6117403,8.70414851e-14 57.8400047,0.566769727 58.6178505,2.63056057 C59.1364144,4.00642113 58.1766175,5.47900093 55.7384598,7.04829996 C58.2757864,8.11305066 59.4790335,9.77319286 59.348201,12.0287265 C59.1519524,15.4120271 54.885209,16.1581329 52.5569597,15.8935946 C50.2287103,15.6290564 47.9585326,14.1209431 48.3475045,11.6007134 C48.606819,9.92056021 49.7749098,8.6026134 51.8517768,7.64687292 C49.8024604,6.56987349 48.8771343,5.17873286 49.0757985,3.47345103 C49.3737948,0.915528294 51.9552872,8.70414851e-14 53.7835138,8.70414851e-14 Z M7.52062918,2.93359534 L7.52062918,14.5412454 L9.62929792,15.1102023 L9.62929792,15.6452625 L3.18751297,15.6452625 L3.18751297,15.1102023 L5.39879179,14.5412454 L5.39879179,4.35334767 L3.0082087,4.35334767 L3.0082087,3.69125417 L7.52062918,2.93359534 Z M16.7156829,4.483098 C19.1174564,4.84018565 20.4984943,7.01598679 19.1075837,9.28942893 C18.1803099,10.805057 16.4938065,12.2121845 14.0480735,13.5108113 L19.6093258,13.5108113 L20.4380109,11.6300594 L20.9368432,11.6300594 L20.7202668,15.281041 L11.5430002,15.281041 L11.5430002,14.2802997 C14.889264,12.185791 16.7731179,10.5221674 17.1945619,9.28942893 C17.8267279,7.44032124 16.5671764,5.69748768 14.7054928,5.90394851 C13.4643704,6.04158906 12.6521399,6.30259916 12.2688011,6.68697881 L11.7187346,5.90394851 C13.4488512,4.71865641 15.1145006,4.24503957 16.7156829,4.483098 Z M52.8817297,7.97117333 C51.050371,9.21883431 50.3998325,10.8592805 50.9301143,12.892512 C51.725537,15.9423592 55.3083589,14.7976409 56.0420749,14.2468501 C56.7757909,13.6960593 57.508605,12.1782393 56.4046488,10.5179565 C55.668678,9.41110127 54.4943716,8.56217356 52.8817297,7.97117333 Z M41.2674304,6.90198868 L36.3300557,13.1787334 L41.2674304,13.1787334 L41.2674304,6.90198868 Z M53.2481218,1.05246958 C51.755935,1.35282944 51.4410262,2.61601685 51.5920269,3.92014906 C51.6926941,4.78957053 52.6973125,5.66749461 54.605882,6.55392128 C55.8236664,5.36247915 56.3477811,4.18029921 56.1782261,3.00738148 C55.9238936,1.24800487 54.7403086,0.752109723 53.2481218,1.05246958 Z" id="形状结合" stroke="url(#linearGradient-1)" stroke-width="0.775" fill="url(#linearGradient-1)"></path>
                <path d="M60.3511777,31.8086515 L60.3078753,32.0824324 C60.2767864,32.2605014 60.2412562,32.4296668 60.2012848,32.5899288 L60.2012848,32.5899288 L62,32.5899288 L62,33.4313044 L61.5802998,33.4313044 L61.5714304,33.7581109 C61.5189235,35.0411553 61.2620656,36.0340212 60.8008565,36.7367084 C61.0406852,37.0772652 61.4104211,37.4478711 61.9100642,37.8485262 L61.9100642,37.8485262 L61.9100642,38.75 C61.1905782,38.349345 60.6109921,37.9486899 60.1713062,37.5480349 C59.751606,37.9486899 59.2319772,38.3393286 58.6124197,38.7199509 L58.6124197,38.7199509 L58.6124197,37.8785753 L58.8438544,37.6502019 C59.141242,37.3457041 59.3938615,37.0412063 59.6017131,36.7367084 C59.2619557,36.1958241 59.0121342,35.4245632 58.8522484,34.4229256 L58.8522484,34.4229256 L58.6723769,34.513073 L58.6723769,34.9337608 L58.496769,34.9005064 C57.6971623,34.721013 57.1761123,34.2012298 56.9336188,33.341157 L56.9336188,33.341157 L58.0428266,33.341157 L58.09862,33.5147742 C58.2013245,33.7930069 58.3526053,34.015593 58.5524625,34.1825326 L58.5524625,34.1825326 L58.5524625,33.7017466 L58.6501927,33.5800476 C58.9307923,33.1924138 59.0980728,32.6019485 59.1520343,31.8086515 L59.1520343,31.8086515 L60.3511777,31.8086515 Z M1.88865096,31.7786024 L1.88865096,33.58155 L1.95797645,33.2472535 C2.02168094,32.9092008 2.06852248,32.5598797 2.09850107,32.1992902 L2.09850107,32.1992902 L2.75802998,32.1992902 L2.74322574,32.4311507 C2.69979997,33.0266923 2.62479182,33.4402078 2.51820128,33.6716974 L2.51820128,33.6716974 L1.88865096,33.6716974 L1.88865096,33.9120904 L2.60813704,33.9120904 L2.60813704,34.7234169 L1.91862955,34.7234169 L2.02415418,34.9986669 C2.17764454,35.3640643 2.38229836,35.7230512 2.63811563,36.0756276 L2.63811563,36.0756276 L2.63811563,37.1874454 L2.42264454,36.963955 C2.21654176,36.7423427 2.0385439,36.5263646 1.88865096,36.3160207 L1.88865096,36.3160207 L1.88865096,38.6899017 L0.899357602,38.6899017 L0.899357602,36.6465611 L0.759057816,36.9085895 C0.560799429,37.2547554 0.317773019,37.5881004 0.0299785867,37.9086244 L0.0299785867,37.9086244 L0.0299785867,36.7968067 L0.163352707,36.5410825 C0.422759254,36.0161426 0.638115632,35.4102541 0.809421842,34.7234169 L0.809421842,34.7234169 L0.119914347,34.7234169 L0.119914347,33.9120904 L0.899357602,33.9120904 L0.899357602,31.7786024 L1.88865096,31.7786024 Z M6.7751606,34.9638099 L6.7751606,37.6982805 L6.77439584,37.8347281 C6.74920975,38.403413 6.43968594,38.6784545 5.84582441,38.6598526 L5.84582441,38.6598526 L5.03640257,38.6598526 L5.03640257,37.9386736 L5.30620985,37.9386736 L5.37600375,37.9405516 C5.52683351,37.9317873 5.59350464,37.8309975 5.57601713,37.6381823 L5.57601713,37.6381823 L5.57601713,37.6081331 L4.13704497,37.6081331 L4.13704497,38.6899017 L2.9379015,38.6899017 L2.9379015,34.9638099 L6.7751606,34.9638099 Z M11.7216274,31.8387006 L11.6550083,32.1325143 C11.6061543,32.3239384 11.5484178,32.506459 11.4817987,32.6800762 L11.4817987,32.6800762 L12.0813704,32.6800762 L12.0813704,31.9588971 L13.3404711,31.9588971 L13.3404711,32.6800762 L14.6295503,32.6800762 L14.6295503,33.5214518 L13.3404711,33.5214518 L13.3404711,34.3027291 L14.5396146,34.3027291 L14.5396146,35.1140556 L13.3404711,35.1140556 L13.3404711,35.8953329 L14.5396146,35.8953329 L14.5396146,36.7066593 L13.3404711,36.7066593 L13.3404711,37.5480349 L14.7194861,37.5480349 L14.7194861,38.3293122 L11.1220557,38.3293122 L11.1220557,38.6899017 L9.89293362,38.6899017 L9.89293362,34.6332695 L9.62312634,34.7609783 L9.62312634,34.7609783 L9.35331906,34.9037117 L9.35331906,34.0623361 L9.52599572,33.8832433 C10.0224411,33.3315413 10.3246253,32.6500271 10.4325482,31.8387006 L10.4325482,31.8387006 L11.7216274,31.8387006 Z M56.3640257,34.9638099 L56.450364,35.2787248 C56.5686795,35.6857903 56.6997859,36.041572 56.8436831,36.3460698 C57.0835118,35.9053492 57.2533904,35.444596 57.3533191,34.9638099 L57.3533191,34.9638099 L58.4625268,34.9638099 L58.3770878,35.2564884 C58.1162741,36.1110856 57.8149893,36.7547379 57.4732334,37.1874454 C57.7130621,37.4478711 58.0328337,37.6982805 58.4325482,37.9386736 L58.4325482,37.9386736 L58.4325482,38.6598526 L58.1302641,38.5196234 C57.6389484,38.2859079 57.210088,38.0521925 56.8436831,37.818477 C56.3840114,38.1390011 55.764454,38.429476 54.9850107,38.6899017 L54.9850107,38.6899017 L54.9850107,37.9386736 L55.235665,37.8168076 C55.6381553,37.6109155 55.9643112,37.3911117 56.2141328,37.1573962 C55.7944325,36.5363809 55.474661,35.8051855 55.254818,34.9638099 L55.254818,34.9638099 L56.3640257,34.9638099 Z M54.0556745,35.2042029 L54.0551416,37.6950753 C54.031514,38.3569574 53.7119201,38.6785499 53.0963597,38.6598526 L53.0963597,38.6598526 L52.1670236,38.6598526 L52.1670236,37.9386736 L52.4668094,37.9386736 L52.5436296,37.9405516 C52.7097609,37.9317873 52.7840828,37.8309975 52.7665953,37.6381823 L52.7665953,37.6381823 L52.7665953,35.9854803 L48.869379,35.9854803 L48.869379,38.6298035 L47.6102784,38.6298035 L47.6102784,35.2042029 L54.0556745,35.2042029 Z M34.1841542,36.7968067 L34.1841542,37.4879366 L34.183414,37.5821648 C34.1972313,37.8176114 34.3373781,37.9264313 34.6038544,37.9086244 L35.6531049,37.9086244 L35.73264,37.9031052 C35.8794738,37.8810283 35.9528908,37.7927206 35.9528908,37.6381823 L35.9528908,37.6381823 L35.9528908,37.578084 L36.882227,37.578084 L36.882227,37.818477 L36.88134,37.9427631 C36.8557962,38.4192818 36.5662988,38.6482953 36.012848,38.6298035 L36.012848,38.6298035 L33.9743041,38.6298035 L33.8340471,38.6293436 C33.2494647,38.6067556 32.9664525,38.316434 32.9850107,37.7583788 L32.9850107,37.7583788 L32.9850107,36.7968067 L34.1841542,36.7968067 Z M9.4732334,34.9638099 L9.44845771,35.3661205 C9.3559618,36.682322 9.16436312,37.7501836 8.87366167,38.5697052 L8.87366167,38.5697052 L7.64453961,38.5697052 L7.78740632,38.1584078 C8.10436742,37.1855673 8.30656674,36.1207013 8.39400428,34.9638099 L8.39400428,34.9638099 L9.4732334,34.9638099 Z M29.9571734,35.4746451 L29.9571734,37.4278384 L29.9558853,37.5696327 C29.9242673,38.2551284 29.5149893,38.5884859 28.7280514,38.5697052 L28.7280514,38.5697052 L24.2912206,38.5697052 L24.2912206,35.4746451 L29.9571734,35.4746451 Z M32.8351178,36.7968067 L32.8084181,37.0381388 C32.7362821,37.5859093 32.5952891,38.0263168 32.385439,38.3593613 L32.385439,38.3593613 L31.3361884,38.3593613 L31.4502736,38.1239765 C31.6307003,37.7233215 31.7625506,37.2809315 31.8458244,36.7968067 L31.8458244,36.7968067 L32.8351178,36.7968067 Z M37.6616702,36.7968067 L37.7607831,36.975875 C37.9516672,37.3487295 38.0985011,37.8098916 38.2012848,38.3593613 L38.2012848,38.3593613 L37.1220557,38.3593613 L37.0755583,38.0993444 C36.9752218,37.5915755 36.8308351,37.1573962 36.6423983,36.7968067 L36.6423983,36.7968067 L37.6616702,36.7968067 Z M52.4368308,36.2859715 L52.4368308,37.0672489 L52.4401618,37.1871783 C52.433944,37.7269051 52.123055,37.9874199 51.5074946,37.9687227 L51.5074946,37.9687227 L49.2291221,37.9687227 L49.2291221,36.2859715 L52.4368308,36.2859715 Z M28.7280514,37.4278384 L25.5203426,37.4278384 L25.5203426,37.8485262 L28.3683084,37.8485262 L28.4497317,37.8496391 C28.6530432,37.8377678 28.7458165,37.707184 28.7280514,37.4578875 L28.7280514,37.4578875 L28.7280514,37.4278384 Z M12.0813704,36.7066593 L11.1220557,36.7066593 L11.1220557,37.5480349 L12.0813704,37.5480349 L12.0813704,36.7066593 Z M35.9528908,36.7968067 L36.0440257,36.9121954 C36.1591435,37.0756626 36.2486795,37.2775927 36.3126338,37.5179858 L36.3126338,37.5179858 L35.0535332,37.5179858 L35.0235546,37.3833657 C34.9755889,37.200667 34.895646,37.0051473 34.7837259,36.7968067 L34.7837259,36.7968067 L35.9528908,36.7968067 Z M51.3276231,36.9170032 L50.3383298,36.9170032 L50.3383298,37.3677401 L51.0278373,37.3677401 L51.1046574,37.3696182 C51.2707887,37.3608539 51.3451106,37.2600641 51.3276231,37.0672489 L51.3276231,37.0672489 L51.3276231,36.9170032 Z M5.57601713,36.6465611 L4.13704497,36.6465611 L4.13704497,36.9470523 L5.57601713,36.9470523 L5.57601713,36.6465611 Z M35.4432548,31.7786024 L35.4432548,32.0790937 L38.1713062,32.0790937 L38.1713062,32.8303218 L35.4432548,32.8303218 L35.4432548,33.100764 L37.7815846,33.100764 L37.7818844,34.6392793 C37.7656959,35.0900162 37.5957173,35.3784879 37.2719486,35.5046942 L37.2719486,35.5046942 L37.8415418,35.5046942 L37.943469,35.7162401 C38.0713776,36.0079169 38.1673091,36.3380567 38.2312634,36.7066593 L38.2312634,36.7066593 L37.2119914,36.7066593 L37.1953367,36.6131731 C37.1864541,36.5553007 37.1820128,36.5063318 37.1820128,36.4662663 C36.5024982,36.5664301 35.9029265,36.6165119 35.3832976,36.6165119 L35.3832976,36.6165119 L31.3361884,36.6165119 L31.3361884,35.8352346 L34.0942184,35.8352346 L34.0942184,35.5647925 L31.8158458,35.5647925 L31.8158458,33.100764 L34.0942184,33.100764 L34.0942184,32.8303218 L31.3961456,32.8303218 L31.3961456,32.0790937 L34.0942184,32.0790937 L34.0942184,31.7786024 L35.4432548,31.7786024 Z M28.7280514,36.2559224 L25.5203426,36.2559224 L25.5203426,36.6766102 L28.7280514,36.6766102 L28.7280514,36.2559224 Z M5.57601713,35.684989 L4.13704497,35.684989 L4.13704497,35.9854803 L5.57601713,35.9854803 L5.57601713,35.684989 Z M12.0813704,35.1140556 L11.1220557,35.1140556 L11.1220557,35.8953329 L12.0813704,35.8953329 L12.0813704,35.1140556 Z M36.9122056,35.5647925 L35.4432548,35.5647925 L35.4432548,35.8352346 C35.9828694,35.8352346 36.5024982,35.8051855 37.0021413,35.7450872 L37.0021413,35.7450872 L36.9122056,35.5647925 Z M60.5310493,33.4313044 L59.8715203,33.4313044 L59.6916488,33.6942343 L59.6916488,33.6942343 L59.5117773,33.9421396 L59.8715203,33.9421396 L59.9038972,34.2642662 C59.9582584,34.6905632 60.0573876,35.1040392 60.2012848,35.5046942 C60.401142,34.9037117 60.5110635,34.2125817 60.5310493,33.4313044 L60.5310493,33.4313044 Z M26.3297645,31.7786024 L26.3564121,31.9221704 C26.3786184,32.0201083 26.4097074,32.122498 26.4496788,32.2293393 L26.4496788,32.2293393 L27.738758,32.2293393 L27.7953842,32.0724161 C27.8309144,31.9700265 27.8620033,31.8720886 27.888651,31.7786024 L27.888651,31.7786024 L29.267666,31.7786024 L29.2639186,31.8142857 C29.256424,31.8556033 29.2376874,31.9138235 29.2077088,31.9889463 C29.1877231,32.08911 29.1677373,32.169241 29.1477516,32.2293393 L29.1477516,32.2293393 L30.3768737,32.2293393 L30.3768737,32.9805675 L28.5481799,32.9805675 L28.5481799,34.3928765 L30.6167024,34.3928765 L30.6167024,35.1741538 L23.6316916,35.1741538 L23.6316916,34.3928765 L25.6702355,34.3928765 L25.6702355,32.9805675 L23.8415418,32.9805675 L23.8415418,32.2293393 L25.0706638,32.2293393 L25.0173685,32.0724161 C24.9862796,31.9700265 24.9640733,31.8720886 24.9507495,31.7786024 L24.9507495,31.7786024 L26.3297645,31.7786024 Z M56.8137045,33.341157 L56.7534808,33.5165104 C56.4525402,34.3117661 55.8730431,34.7841829 55.0149893,34.9337608 L55.0149893,34.9337608 L55.0149893,34.27268 L55.1367773,34.1923925 C55.4078337,33.993004 55.5870807,33.7092588 55.6745182,33.341157 L55.6745182,33.341157 L56.8137045,33.341157 Z M53.3961456,33.2209605 L53.3961456,33.8820413 L53.3994766,34.0212022 C53.3932588,34.6469363 53.0823697,34.9411061 52.4668094,34.9037117 L52.4668094,34.9037117 L48.2398287,34.9037117 L48.2398287,33.2209605 L53.3961456,33.2209605 Z M36.5524625,34.6032204 L35.4432548,34.6032204 L35.4432548,34.9037117 L36.1927195,34.9037117 L36.2704764,34.9055897 C36.4409797,34.8968254 36.534975,34.7960356 36.5524625,34.6032204 L36.5524625,34.6032204 Z M34.0942184,34.6032204 L33.0449679,34.6032204 L33.0449679,34.9037117 L34.0942184,34.9037117 L34.0942184,34.6032204 Z M5.4261242,31.7485533 L5.4261242,32.0790937 L6.92505353,32.0790937 L6.92505353,32.7702236 L5.4261242,32.7702236 L5.4261242,33.0406657 L6.7751606,33.0406657 L6.7751606,33.7317957 L5.4261242,33.7317957 L5.4261242,34.032287 L7.04496788,34.032287 L7.04496788,34.7234169 L2.75802998,34.7234169 L2.75802998,34.032287 L4.25695931,34.032287 L4.25695931,33.7317957 L2.96788009,33.7317957 L2.96788009,33.0406657 L4.25695931,33.0406657 L4.25695931,32.7702236 L2.87794433,32.7702236 L2.87794433,32.0790937 L4.25695931,32.0790937 L4.25695931,31.7485533 L5.4261242,31.7485533 Z M27.379015,32.9805675 L26.8394004,32.9805675 L26.8394004,34.3928765 L27.379015,34.3928765 L27.379015,32.9805675 Z M12.0813704,33.5214518 L11.1220557,33.5214518 L11.1220557,34.3027291 L12.0813704,34.3027291 L12.0813704,33.5214518 Z M52.137045,33.8820413 L49.5289079,33.8820413 L49.5289079,34.27268 L51.8672377,34.27268 L51.9370316,34.274558 C52.0878613,34.2657937 52.1545325,34.1650039 52.137045,33.9721887 L52.137045,33.9721887 L52.137045,33.8820413 Z M30.137045,33.1608623 L30.1029027,33.3645286 C30.0390594,33.6928431 29.9405187,33.9655111 29.8072805,34.1825326 L29.8072805,34.1825326 L28.75803,34.1825326 L28.8263812,34.0166614 C28.9127195,33.7826789 28.9798715,33.4974125 29.0278373,33.1608623 L29.0278373,33.1608623 L30.137045,33.1608623 Z M25.1905782,33.1608623 L25.2301499,33.4036592 C25.2877088,33.7145675 25.364454,33.974192 25.4603854,34.1825326 L25.4603854,34.1825326 L24.4111349,34.1825326 L24.3353557,34.0456421 C24.2159965,33.806362 24.1313348,33.5114354 24.0813704,33.1608623 L24.0813704,33.1608623 L25.1905782,33.1608623 Z M36.5524625,33.7317957 L35.4432548,33.7317957 L35.4432548,34.032287 L36.5524625,34.032287 L36.5524625,33.7317957 Z M34.0942184,33.7317957 L33.0449679,33.7317957 L33.0449679,34.032287 L34.0942184,34.032287 L34.0942184,33.7317957 Z M8.87366167,32.1091428 L8.99602325,32.4035016 C9.22851025,32.9799542 9.3875803,33.4828172 9.4732334,33.9120904 L9.4732334,33.9120904 L8.30406852,33.9120904 L8.2474423,33.6366401 C8.14196209,33.1692092 7.98096598,32.6600435 7.76445396,32.1091428 L7.76445396,32.1091428 L8.87366167,32.1091428 Z M0.659528908,32.1992902 L0.695511511,32.5177735 C0.746320893,32.9296413 0.80846059,33.2904028 0.881930603,33.6000578 L0.881930603,33.6000578 L0.899357602,33.6717318 L0.239828694,33.6716974 L0.183202474,33.4638576 C0.0943770323,33.1049375 0.0333095408,32.683415 -8.17124146e-14,32.1992902 L-8.17124146e-14,32.1992902 L0.659528908,32.1992902 Z M57.5631692,31.8086515 L57.5631692,32.3194867 L58.5824411,32.3194867 L58.5824411,33.100764 L55.1349036,33.100764 L55.1349036,32.3194867 L56.2141328,32.3194867 L56.2141328,31.8086515 L57.5631692,31.8086515 Z M51.5974304,31.8086515 L51.5974304,32.169241 L54.2955032,32.169241 L54.2955032,32.9805675 L47.3404711,32.9805675 L47.3404711,32.169241 L50.0685225,32.169241 L50.0685225,31.8086515 L51.5974304,31.8086515 Z" id="形状结合" stroke="#3D83FF" stroke-width="0.2" fill="#3D83FF" fill-rule="nonzero"></path>
                <rect id="矩形" fill="url(#linearGradient-2)" x="18.3383298" y="34.1224343" width="1.78158458" height="1.78577673"></rect>
                <rect id="矩形备份-137" fill="url(#linearGradient-2)" x="41.7730193" y="34.1224343" width="1.78158458" height="1.78577673"></rect>
            </g>
        </g>
    </g>
</svg>