<?xml version="1.0" encoding="UTF-8"?>
<svg width="90px" height="90px" viewBox="0 0 90 90" version="1.1" xmlns="http://www.w3.org/2000/svg" xmlns:xlink="http://www.w3.org/1999/xlink">
    <!-- Generator: Sketch 60.1 (88133) - https://sketch.com -->
    <title>上海市</title>
    <desc>Created with Sketch.</desc>
    <g id="上海市" stroke="none" stroke-width="1" fill="none" fill-rule="evenodd">
        <g>
            <rect id="矩形备份-9" stroke="#EBEBEB" x="0" y="0" width="90" height="90" rx="45"></rect>
            <g id="编组-77" transform="translate(28.000000, 18.000000)" fill="#D20011" stroke="#D20011" stroke-width="0.945454545">
                <path d="M33.5771429,46.9485714 C34.3976802,46.9485714 35.0628571,47.6137484 35.0628571,48.4342857 L35.0628571,51.7028571 L32.0914286,51.7028571 L32.0914286,48.4342857 C32.0914286,47.6137484 32.7566055,46.9485714 33.5771429,46.9485714 Z M1.48571429,46.9485714 C2.30625163,46.9485714 2.97142857,47.6137484 2.97142857,48.4342857 L2.97142857,51.7028571 L-1.0393908e-12,51.7028571 L-1.0393908e-12,48.4342857 C-1.03949128e-12,47.6137484 0.665176943,46.9485714 1.48571429,46.9485714 Z M19.0171429,36.0083117 L19.0178334,37.5501297 C24.8908073,38.347868 29.4171429,43.3824857 29.4171429,49.4742857 C29.4171429,50.2356934 29.3464314,50.9805856 29.2112171,51.7027535 L26.1697423,51.7025721 C26.349966,50.9896886 26.4457143,50.2431687 26.4457143,49.4742857 C26.4457143,45.0271048 23.2425425,41.3280648 19.0174897,40.5584566 L19.0171429,51.7028571 L16.0457143,51.7028571 L16.044981,40.5094909 C11.6740704,41.1562173 8.32,44.9235589 8.32,49.4742857 C8.32,50.2431687 8.41574833,50.9896886 8.59597198,51.7025721 L5.55449721,51.7027535 C5.41928292,50.9805856 5.34857143,50.2356934 5.34857143,49.4742857 C5.34857143,43.2800661 10.0283863,38.1788757 16.0452295,37.5135012 L16.0457143,36.0083117 L19.0171429,36.0083117 Z M17.2342857,12.7771429 C23.1421546,12.7771429 27.9314286,17.5664168 27.9314286,23.4742857 C27.9314286,23.9785131 27.8965418,24.4745922 27.8290503,24.9602409 L16.64,24.96 C15.9835701,24.96 15.4514286,24.4278584 15.4514286,23.7714286 C15.4514286,23.1149987 15.9835701,22.5828571 16.64,22.5828571 L25.2081809,22.5828853 C24.7647576,18.5714873 21.3638861,15.4514286 17.2342857,15.4514286 C12.8033841,15.4514286 9.21142857,19.0433841 9.21142857,23.4742857 C9.21142857,27.9051874 12.8033841,31.4971429 17.2342857,31.4971429 C20.406755,31.4971429 23.1491488,29.6557706 24.4509966,26.9834967 C25.6347885,27.0028318 26.8390592,27.0396183 27.3228757,27.0396183 C25.8544925,31.1945608 21.8920315,34.1714286 17.2342857,34.1714286 C11.3264168,34.1714286 6.53714286,29.3821546 6.53714286,23.4742857 C6.53714286,17.5664168 11.3264168,12.7771429 17.2342857,12.7771429 Z M18.1257143,8.32223179e-13 L18.1261329,1.99437321 C19.8295608,2.39695379 21.0971429,3.92733019 21.0971429,5.75376623 C21.0971429,7.58020228 19.8295608,9.11057868 18.1261329,9.51315926 L18.1257143,11.2374026 L16.0457143,11.2374026 L16.0451417,9.43013014 C14.4936013,8.92864298 13.3714286,7.47225335 13.3714286,5.75376623 C13.3714286,4.03527912 14.4936013,2.57888949 16.0451417,2.07740233 L16.0457143,8.32223179e-13 L18.1257143,8.32223179e-13 Z" id="形状结合"></path>
            </g>
        </g>
    </g>
</svg>