<?xml version="1.0" encoding="UTF-8"?>
<svg width="90px" height="90px" viewBox="0 0 90 90" version="1.1" xmlns="http://www.w3.org/2000/svg" xmlns:xlink="http://www.w3.org/1999/xlink">
    <!-- Generator: Sketch 60.1 (88133) - https://sketch.com -->
    <title>税务总局</title>
    <desc>Created with Sketch.</desc>
    <g id="税务总局" stroke="none" stroke-width="1" fill="none" fill-rule="evenodd">
        <g>
            <rect id="矩形备份-12" stroke="#EBEBEB" x="0" y="0" width="90" height="90" rx="45"></rect>
            <path d="M45.3224114,41.8408637 L45.3224114,69 L42.4970053,68.5002643 L42.4970053,42.2364249 L45.3224114,41.8408637 Z M47.5126237,43.1568522 L50.5791243,43.8500719 L50.5791243,68.6769675 L47.5126237,69 L47.5126237,43.1568522 Z M47.5797855,30.6178328 L60,33.5609063 L60,43.4910359 L55.2353471,42.4076181 L55.2353471,63.8532142 L57.2273863,63.657397 L57.2273863,45.2998875 L60,45.953551 L60,67.6201669 L52.2093517,68.5422766 L52.2093517,41.8408637 L47.5797855,40.6750995 L47.5797855,30.6178328 Z M45.3224114,21 L45.3224114,28.1402243 L39.5095116,28.8423818 L39.5095116,31.5267248 L45.3224114,30.9081086 L45.3224114,38.8148121 L39.5095116,39.4398348 L39.5095116,67.8228862 L36.8614304,67.218877 L36.8614304,39.8793239 L32,40.3323949 L32,32.4774563 L36.8614304,32.0576994 L36.8614304,29.219343 L32,29.8318088 L32,22.4553111 L45.3224114,21 Z M34.9372164,43.1568522 L34.9372164,66.8303341 L32,66.0871895 L32,43.4189144 L34.9372164,43.1568522 Z M52.1033492,35.4442213 L52.1033492,37.8688302 L55.2186321,38.6266862 L55.2186321,36.1518527 L52.1033492,35.4442213 Z M55.0841585,22.7850757 L60,24.0183485 L60,30.9173407 L55.0841585,29.4872864 L55.0841585,22.7850757 Z M47.5797855,21 L52.7042703,22.2867037 L52.7042703,29.1184682 L47.5797855,27.9814799 L47.5797855,21 Z" id="形状结合" fill="#E0001D"></path>
        </g>
    </g>
</svg>