<?xml version="1.0" encoding="UTF-8"?>
<svg width="90px" height="90px" viewBox="0 0 90 90" version="1.1" xmlns="http://www.w3.org/2000/svg" xmlns:xlink="http://www.w3.org/1999/xlink">
    <!-- Generator: Sketch 60.1 (88133) - https://sketch.com -->
    <title>天津</title>
    <desc>Created with Sketch.</desc>
    <defs>
        <linearGradient x1="62.8679037%" y1="27.7777778%" x2="28.2962093%" y2="70.4783468%" id="linearGradient-1">
            <stop stop-color="#64BAD1" offset="0%"></stop>
            <stop stop-color="#81F1D5" offset="50.5592322%"></stop>
            <stop stop-color="#5BC5E2" offset="100%"></stop>
        </linearGradient>
    </defs>
    <g id="天津" stroke="none" stroke-width="1" fill="none" fill-rule="evenodd">
        <rect id="矩形备份-3" stroke="#EBEBEB" x="0.5" y="0.5" width="89" height="89" rx="44.5"></rect>
        <path d="M41.8948782,47.7165679 L31.6523434,47.7165679 L41.8948782,33.2698018 C34.486367,31.7929885 29.8179777,33.8315796 27.8897103,39.3855749 C24.9973091,47.7165679 28.1483362,53.9581222 33.7111682,56.145242 C39.2740002,58.3323619 45.990806,56.0255394 51.4362042,50.3680075 C55.0664697,46.5963195 60.2941969,40.006191 67.1193856,30.5976217 L78,30.5976217 C66.0167751,46.2957317 57.8502616,56.0890419 53.5004595,59.9775523 C46.9757565,65.8103179 33.3418966,66.8767814 26.8144783,61.5110117 C20.28706,56.145242 17.1774403,50.0321451 18.1868279,41.6509734 C19.1962155,33.2698018 26.5341306,26.4020181 32.6501912,25.4466167 C38.7662518,24.4912153 47.864995,24.5989321 54.3842676,30.5976217 C46.9445313,40.6703712 42.7814015,46.3766866 41.8948782,47.7165679 Z" id="路径-391" fill="url(#linearGradient-1)"></path>
    </g>
</svg>