<?xml version="1.0" encoding="UTF-8"?>
<svg width="90px" height="90px" viewBox="0 0 90 90" version="1.1" xmlns="http://www.w3.org/2000/svg" xmlns:xlink="http://www.w3.org/1999/xlink">
    <!-- Generator: Sketch 57.1 (83088) - https://sketch.com -->
    <title>疫苗服务</title>
    <desc>Created with Sketch.</desc>
    <g id="疫苗服务" stroke="none" stroke-width="1" fill="none" fill-rule="evenodd">
        <g id="护照通行证">
            <circle id="椭圆形备份-21" fill="#EFFCFA" cx="45" cy="45" r="45"></circle>
            <g id="编组-172" transform="translate(23.000000, 23.000000)">
                <rect id="矩形" x="0" y="0" width="44" height="44"></rect>
            </g>
        </g>
        <g id="编组-173" transform="translate(45.000000, 45.000000) rotate(-330.000000) translate(-45.000000, -45.000000) translate(25.000000, 23.000000)">
            <rect id="矩形" x="0" y="2" width="40" height="40"></rect>
            <g id="编组" transform="translate(5.000000, 0.000000)">
                <path d="M6,10 C4.8954305,10 4,10.8954305 4,12 L4,35 C4,36.1045695 4.8954305,37 6,37 L24,37 C25.1045695,37 26,36.1045695 26,35 L26,12 C26,10.8954305 25.1045695,10 24,10 L6,10 Z" id="矩形" stroke="#00B68A" stroke-width="4"></path>
                <path d="M2,0 L28,0 C29.1045695,-2.02906125e-16 30,0.8954305 30,2 C30,3.1045695 29.1045695,4 28,4 L2,4 C0.8954305,4 1.3527075e-16,3.1045695 0,2 C-1.3527075e-16,0.8954305 0.8954305,2.02906125e-16 2,0 Z" id="矩形备份" fill="#00B68A"></path>
                <path d="M8.5,3.5 L13.5,3.5 C14.6045695,3.5 15.5,4.3954305 15.5,5.5 C15.5,6.6045695 14.6045695,7.5 13.5,7.5 L8.5,7.5 C7.3954305,7.5 6.5,6.6045695 6.5,5.5 C6.5,4.3954305 7.3954305,3.5 8.5,3.5 Z" id="矩形备份-202" fill="#00B68A" transform="translate(11.000000, 5.500000) rotate(-270.000000) translate(-11.000000, -5.500000) "></path>
                <path d="M6.3660254,18.6339746 L23.3660254,18.6339746 C24.4705949,18.6339746 25.3660254,19.5294051 25.3660254,20.6339746 C25.3660254,21.7385441 24.4705949,22.6339746 23.3660254,22.6339746 L6.3660254,22.6339746 C5.2614559,22.6339746 4.3660254,21.7385441 4.3660254,20.6339746 C4.3660254,19.5294051 5.2614559,18.6339746 6.3660254,18.6339746 Z" id="矩形备份-205" fill="#00B68A" transform="translate(14.866025, 20.633975) rotate(-180.000000) translate(-14.866025, -20.633975) "></path>
                <path d="M6,26.6961524 L13,26.6961524 C14.1045695,26.6961524 15,27.5915829 15,28.6961524 C15,29.8007219 14.1045695,30.6961524 13,30.6961524 L6,30.6961524 C4.8954305,30.6961524 4,29.8007219 4,28.6961524 C4,27.5915829 4.8954305,26.6961524 6,26.6961524 Z" id="矩形备份-206" fill="#00B68A" transform="translate(9.500000, 28.696152) rotate(-180.000000) translate(-9.500000, -28.696152) "></path>
                <path d="M16.5,3.5 L21.5,3.5 C22.6045695,3.5 23.5,4.3954305 23.5,5.5 C23.5,6.6045695 22.6045695,7.5 21.5,7.5 L16.5,7.5 C15.3954305,7.5 14.5,6.6045695 14.5,5.5 C14.5,4.3954305 15.3954305,3.5 16.5,3.5 Z" id="矩形备份-203" fill="#00B68A" transform="translate(19.000000, 5.500000) rotate(-270.000000) translate(-19.000000, -5.500000) "></path>
                <path d="M13,38 L17,38 C18.1045695,38 19,38.8954305 19,40 C19,41.1045695 18.1045695,42 17,42 L13,42 C11.8954305,42 11,41.1045695 11,40 C11,38.8954305 11.8954305,38 13,38 Z" id="矩形备份-204" fill="#00B68A" transform="translate(15.000000, 40.000000) rotate(-270.000000) translate(-15.000000, -40.000000) "></path>
            </g>
        </g>
    </g>
</svg>