<?xml version="1.0" encoding="UTF-8"?>
<svg width="90px" height="90px" viewBox="0 0 90 90" version="1.1" xmlns="http://www.w3.org/2000/svg" xmlns:xlink="http://www.w3.org/1999/xlink">
    <!-- Generator: Sketch 60.1 (88133) - https://sketch.com -->
    <title>移民局</title>
    <desc>Created with Sketch.</desc>
    <defs>
        <linearGradient x1="50%" y1="0%" x2="50%" y2="100%" id="linearGradient-1">
            <stop stop-color="#577FF7" offset="0%"></stop>
            <stop stop-color="#7FCAF3" offset="100%"></stop>
        </linearGradient>
    </defs>
    <g id="移民局" stroke="none" stroke-width="1" fill="none" fill-rule="evenodd">
        <g>
            <rect id="矩形备份-14" stroke="#EBEBEB" x="0" y="0" width="90" height="90" rx="45"></rect>
            <g id="编组-83" transform="translate(22.000000, 28.000000)">
                <path d="M2.22810194,0.417820195 C2.44084616,0.417820195 2.65249388,0.448289354 2.85659892,0.508299673 L22.2380579,6.20677487 L22.2380579,39.5706372 L1.59294504,33.4306484 C0.64794168,33.1495984 1.42797979e-15,32.2809064 0,31.2949954 L0,2.64592213 C7.37479909e-16,1.41537541 0.997555216,0.417820195 2.22810194,0.417820195 Z M32.4433839,1.03921992 C33.6739307,1.03921992 34.6714859,2.03677514 34.6714859,3.26732186 L34.6714859,3.26732186 L34.6714859,30.9052224 C34.6714859,31.6253674 34.3234242,32.3011077 33.7371111,32.7192533 L33.7371111,32.7192533 L24.1302772,39.5706372 L24.1302772,6.00757317 L31.2301756,1.39848162 C31.5913644,1.16400612 32.012761,1.03921992 32.4433839,1.03921992 Z M44.2629445,0.139051049 C45.4934912,0.139051049 46.4910464,1.13660626 46.4910464,2.36715298 L46.4910464,2.36715298 L46.4910464,30.9280329 C46.4910464,31.8952724 45.8670006,32.7520379 44.9463878,33.048727 L44.9463878,33.048727 L29.4008815,38.0586307 C32.4220388,36.1818702 34.3778291,34.9204227 35.2682522,34.2742884 C36.6038869,33.3050869 36.7299378,32.6589943 36.8675384,29.9452548 C36.8724893,12.2921448 36.8725958,3.22782665 36.8678578,2.75230037 L36.8675384,2.73339301 L43.4882014,0.278083453 C43.7361519,0.186129649 43.9984923,0.139051049 44.2629445,0.139051049 Z" id="形状结合" fill="url(#linearGradient-1)"></path>
                <path d="M37.8911734,11.6588723 C38.7453036,12.3717011 38.9506234,14.5343107 36.9735021,15.7626741 C34.9963809,16.9910374 25.5583717,23.3776737 20.6438812,26.5371057 C17.3675541,28.6433936 14.3199859,28.7659173 11.5011765,26.9046767 L14.1919356,24.3288357 L15.2932521,24.3288357 L15.2932521,24.3288357 C15.6300657,24.3288357 17.1504803,23.4045959 19.8544958,21.5561164 L11.143034,14.1359914 C11.0259358,14.0362512 11.0118644,13.860469 11.1116046,13.7433709 C11.1302246,13.7215104 11.1521133,13.702661 11.1764947,13.6874909 L12.4771539,12.8782219 C12.9905137,12.5588099 13.6230169,12.4956539 14.1893985,12.7072527 L24.5859314,16.5913722 C25.2567325,16.8419702 26.0071004,16.7549017 26.6026888,16.3573493 C30.6738512,13.6398676 33.1593744,12.0737086 34.0592583,11.6588723 C35.5107609,10.989746 37.0370432,10.9460436 37.8911734,11.6588723 Z M13.2912354,23.8842416 L10.6313429,26.5371057 C8.50738909,25.3846602 7.5864252,24.3512546 7.86845124,23.4368887 C8.15047727,22.5225228 9.95807198,22.6716405 13.2912354,23.8842416 Z" id="形状结合" fill="#FFFFFF"></path>
            </g>
        </g>
    </g>
</svg>